<svg width="547" height="330" viewBox="0 0 547 330" fill="none" xmlns="http://www.w3.org/2000/svg">
<mask id="path-1-outside-1_238_74" maskUnits="userSpaceOnUse" x="8" y="47.7183" width="516" height="207" fill="black">
<rect fill="white" x="8" y="47.7183" width="516" height="207"/>
<path d="M14 164.718L70.0002 108.718L98.0003 136.718L70.0002 164.718L98.0003 192.718L70.0002 220.718L14 164.718ZM182.001 192.718H238.001V108.718H182.001V192.718ZM294.001 178.718V248.718H126V52.7177H294.001V122.718H322.001L308.001 178.718H294.001ZM406.001 52.7177V234.718L350.001 248.718V108.718H322.001L336.001 52.7177H406.001ZM462.001 220.718L434.001 192.718L462.001 164.718L434.001 136.718L462.001 108.718L518.001 164.718L462.001 220.718Z"/>
</mask>
<path d="M14 164.718L70.0002 108.718L98.0003 136.718L70.0002 164.718L98.0003 192.718L70.0002 220.718L14 164.718ZM182.001 192.718H238.001V108.718H182.001V192.718ZM294.001 178.718V248.718H126V52.7177H294.001V122.718H322.001L308.001 178.718H294.001ZM406.001 52.7177V234.718L350.001 248.718V108.718H322.001L336.001 52.7177H406.001ZM462.001 220.718L434.001 192.718L462.001 164.718L434.001 136.718L462.001 108.718L518.001 164.718L462.001 220.718Z" fill="black"/>
<path d="M14 164.718L11.1716 161.89L8.34319 164.718L11.1716 167.546L14 164.718ZM70.0002 108.718L72.8287 105.889L70.0002 103.061L67.1718 105.889L70.0002 108.718ZM98.0003 136.718L100.829 139.546L103.657 136.718L100.829 133.89L98.0003 136.718ZM70.0002 164.718L67.1718 161.89L64.3434 164.718L67.1718 167.546L70.0002 164.718ZM98.0003 192.718L100.829 195.547L103.657 192.718L100.829 189.89L98.0003 192.718ZM70.0002 220.718L67.1718 223.547L70.0002 226.375L72.8287 223.547L70.0002 220.718ZM16.8285 167.546L72.8287 111.546L67.1718 105.889L11.1716 161.89L16.8285 167.546ZM67.1718 111.546L95.1719 139.546L100.829 133.89L72.8287 105.889L67.1718 111.546ZM95.1719 133.89L67.1718 161.89L72.8287 167.546L100.829 139.546L95.1719 133.89ZM67.1718 167.546L95.1719 195.547L100.829 189.89L72.8287 161.89L67.1718 167.546ZM95.1719 189.89L67.1718 217.89L72.8287 223.547L100.829 195.547L95.1719 189.89ZM72.8287 217.89L16.8285 161.89L11.1716 167.546L67.1718 223.547L72.8287 217.89ZM182.001 192.718H178.001V196.718H182.001V192.718ZM238.001 192.718V196.718H242.001V192.718H238.001ZM238.001 108.718H242.001V104.718H238.001V108.718ZM182.001 108.718V104.718H178.001V108.718H182.001ZM294.001 178.718V174.718H290.001V178.718H294.001ZM294.001 248.718V252.718H298.001V248.718H294.001ZM126 248.718H122V252.718H126V248.718ZM126 52.7177V48.7177H122V52.7177H126ZM294.001 52.7177H298.001V48.7177H294.001V52.7177ZM294.001 122.718H290.001V126.718H294.001V122.718ZM322.001 122.718L325.882 123.688L327.124 118.718H322.001V122.718ZM308.001 178.718V182.718H311.124L311.882 179.688L308.001 178.718ZM182.001 196.718H238.001V188.718H182.001V196.718ZM242.001 192.718V108.718H234.001V192.718H242.001ZM238.001 104.718H182.001V112.718H238.001V104.718ZM178.001 108.718V192.718H186.001V108.718H178.001ZM290.001 178.718V248.718H298.001V178.718H290.001ZM294.001 244.718H126V252.718H294.001V244.718ZM130 248.718V52.7177H122V248.718H130ZM126 56.7177H294.001V48.7177H126V56.7177ZM290.001 52.7177V122.718H298.001V52.7177H290.001ZM294.001 126.718H322.001V118.718H294.001V126.718ZM318.12 121.748L304.12 177.748L311.882 179.688L325.882 123.688L318.12 121.748ZM308.001 174.718H294.001V182.718H308.001V174.718ZM406.001 52.7177H410.001V48.7177H406.001V52.7177ZM406.001 234.718L406.971 238.599L410.001 237.841V234.718H406.001ZM350.001 248.718H346.001V253.841L350.971 252.599L350.001 248.718ZM350.001 108.718H354.001V104.718H350.001V108.718ZM322.001 108.718L318.12 107.748L316.878 112.718H322.001V108.718ZM336.001 52.7177V48.7177H332.878L332.12 51.7476L336.001 52.7177ZM402.001 52.7177V234.718H410.001V52.7177H402.001ZM405.031 230.838L349.031 244.838L350.971 252.599L406.971 238.599L405.031 230.838ZM354.001 248.718V108.718H346.001V248.718H354.001ZM350.001 104.718H322.001V112.718H350.001V104.718ZM325.881 109.688L339.881 53.6878L332.12 51.7476L318.12 107.748L325.881 109.688ZM336.001 56.7177H406.001V48.7177H336.001V56.7177ZM462.001 220.718L459.173 223.547L462.001 226.375L464.83 223.547L462.001 220.718ZM434.001 192.718L431.173 189.89L428.344 192.718L431.173 195.547L434.001 192.718ZM462.001 164.718L464.83 167.546L467.658 164.718L464.83 161.89L462.001 164.718ZM434.001 136.718L431.173 133.89L428.344 136.718L431.173 139.546L434.001 136.718ZM462.001 108.718L464.83 105.889L462.001 103.061L459.173 105.889L462.001 108.718ZM518.001 164.718L520.83 167.546L523.658 164.718L520.83 161.89L518.001 164.718ZM464.83 217.89L436.83 189.89L431.173 195.547L459.173 223.547L464.83 217.89ZM436.83 195.547L464.83 167.546L459.173 161.89L431.173 189.89L436.83 195.547ZM464.83 161.89L436.83 133.89L431.173 139.546L459.173 167.546L464.83 161.89ZM436.83 139.546L464.83 111.546L459.173 105.889L431.173 133.89L436.83 139.546ZM459.173 111.546L515.173 167.546L520.83 161.89L464.83 105.889L459.173 111.546ZM515.173 161.89L459.173 217.89L464.83 223.547L520.83 167.546L515.173 161.89Z" fill="black" mask="url(#path-1-outside-1_238_74)"/>
<mask id="path-3-outside-2_238_74" maskUnits="userSpaceOnUse" x="21.504" y="41" width="504" height="202" fill="black">
<rect fill="white" x="21.504" y="41" width="504" height="202"/>
<path d="M27.1759 154.969L81.8634 100.281L109.207 127.625L81.8634 154.969L109.207 182.312L81.8634 209.656L27.1759 154.969ZM191.238 182.312H245.926V100.281H191.238V182.312ZM300.613 168.641V237H136.551V45.5938H300.613V113.953H327.957L314.285 168.641H300.613ZM409.988 45.5938V223.328L355.301 237V100.281H327.957L341.629 45.5938H409.988ZM464.676 209.656L437.332 182.312L464.676 154.969L437.332 127.625L464.676 100.281L519.363 154.969L464.676 209.656Z"/>
</mask>
<path d="M27.1759 154.969L81.8634 100.281L109.207 127.625L81.8634 154.969L109.207 182.312L81.8634 209.656L27.1759 154.969ZM191.238 182.312H245.926V100.281H191.238V182.312ZM300.613 168.641V237H136.551V45.5938H300.613V113.953H327.957L314.285 168.641H300.613ZM409.988 45.5938V223.328L355.301 237V100.281H327.957L341.629 45.5938H409.988ZM464.676 209.656L437.332 182.312L464.676 154.969L437.332 127.625L464.676 100.281L519.363 154.969L464.676 209.656Z" fill="#E82338"/>
<path d="M27.1759 154.969L24.3475 152.14L21.519 154.969L24.3475 157.797L27.1759 154.969ZM81.8634 100.281L84.6918 97.4528L81.8634 94.6244L79.035 97.4528L81.8634 100.281ZM109.207 127.625L112.036 130.453L114.864 127.625L112.036 124.797L109.207 127.625ZM81.8634 154.969L79.035 152.14L76.2065 154.969L79.035 157.797L81.8634 154.969ZM109.207 182.312L112.036 185.141L114.864 182.312L112.036 179.484L109.207 182.312ZM81.8634 209.656L79.035 212.485L81.8634 215.313L84.6918 212.485L81.8634 209.656ZM30.0043 157.797L84.6918 103.11L79.035 97.4528L24.3475 152.14L30.0043 157.797ZM79.035 103.11L106.379 130.453L112.036 124.797L84.6918 97.4528L79.035 103.11ZM106.379 124.797L79.035 152.14L84.6918 157.797L112.036 130.453L106.379 124.797ZM79.035 157.797L106.379 185.141L112.036 179.484L84.6918 152.14L79.035 157.797ZM106.379 179.484L79.035 206.828L84.6918 212.485L112.036 185.141L106.379 179.484ZM84.6918 206.828L30.0043 152.14L24.3475 157.797L79.035 212.485L84.6918 206.828ZM191.238 182.312H187.238V186.312H191.238V182.312ZM245.926 182.312V186.312H249.926V182.312H245.926ZM245.926 100.281H249.926V96.2812H245.926V100.281ZM191.238 100.281V96.2812H187.238V100.281H191.238ZM300.613 168.641V164.641H296.613V168.641H300.613ZM300.613 237V241H304.613V237H300.613ZM136.551 237H132.551V241H136.551V237ZM136.551 45.5938V41.5938H132.551V45.5938H136.551ZM300.613 45.5938H304.613V41.5938H300.613V45.5938ZM300.613 113.953H296.613V117.953H300.613V113.953ZM327.957 113.953L331.838 114.923L333.08 109.953H327.957V113.953ZM314.285 168.641V172.641H317.408L318.166 169.611L314.285 168.641ZM191.238 186.312H245.926V178.312H191.238V186.312ZM249.926 182.312V100.281H241.926V182.312H249.926ZM245.926 96.2812H191.238V104.281H245.926V96.2812ZM187.238 100.281V182.312H195.238V100.281H187.238ZM296.613 168.641V237H304.613V168.641H296.613ZM300.613 233H136.551V241H300.613V233ZM140.551 237V45.5938H132.551V237H140.551ZM136.551 49.5938H300.613V41.5938H136.551V49.5938ZM296.613 45.5938V113.953H304.613V45.5938H296.613ZM300.613 117.953H327.957V109.953H300.613V117.953ZM324.077 112.983L310.405 167.67L318.166 169.611L331.838 114.923L324.077 112.983ZM314.285 164.641H300.613V172.641H314.285V164.641ZM409.988 45.5938H413.988V41.5938H409.988V45.5938ZM409.988 223.328L410.959 227.209L413.988 226.451V223.328H409.988ZM355.301 237H351.301V242.123L356.271 240.881L355.301 237ZM355.301 100.281H359.301V96.2812H355.301V100.281ZM327.957 100.281L324.077 99.3111L322.834 104.281H327.957V100.281ZM341.629 45.5938V41.5938H338.506L337.748 44.6236L341.629 45.5938ZM405.988 45.5938V223.328H413.988V45.5938H405.988ZM409.018 219.448L354.331 233.119L356.271 240.881L410.959 227.209L409.018 219.448ZM359.301 237V100.281H351.301V237H359.301ZM355.301 96.2812H327.957V104.281H355.301V96.2812ZM331.838 101.251L345.51 46.5639L337.748 44.6236L324.077 99.3111L331.838 101.251ZM341.629 49.5938H409.988V41.5938H341.629V49.5938ZM464.676 209.656L461.847 212.485L464.676 215.313L467.504 212.485L464.676 209.656ZM437.332 182.312L434.504 179.484L431.675 182.312L434.504 185.141L437.332 182.312ZM464.676 154.969L467.504 157.797L470.333 154.969L467.504 152.14L464.676 154.969ZM437.332 127.625L434.504 124.797L431.675 127.625L434.504 130.453L437.332 127.625ZM464.676 100.281L467.504 97.4528L464.676 94.6244L461.847 97.4528L464.676 100.281ZM519.363 154.969L522.192 157.797L525.02 154.969L522.192 152.14L519.363 154.969ZM467.504 206.828L440.161 179.484L434.504 185.141L461.847 212.485L467.504 206.828ZM440.161 185.141L467.504 157.797L461.847 152.14L434.504 179.484L440.161 185.141ZM467.504 152.14L440.161 124.797L434.504 130.453L461.847 157.797L467.504 152.14ZM440.161 130.453L467.504 103.11L461.847 97.4528L434.504 124.797L440.161 130.453ZM461.847 103.11L516.535 157.797L522.192 152.14L467.504 97.4528L461.847 103.11ZM516.535 152.14L461.847 206.828L467.504 212.485L522.192 157.797L516.535 152.14Z" fill="black" mask="url(#path-3-outside-2_238_74)"/>
</svg>
