<svg width="84" height="32" viewBox="0 0 84 32" fill="none" xmlns="http://www.w3.org/2000/svg">
    <mask id="path-1-outside-1_1037_581" maskUnits="userSpaceOnUse" x="-4" y="-4" width="92" height="40" fill="black">
        <rect fill="white" x="-4" y="-4" width="92" height="40"/>
        <path d="M9.23047 23.0156H18.2148V9.53906H9.23047V23.0156ZM27.1992 20.7695V32H0.246094V0.554688H27.1992V11.7852H31.6914L29.4453 20.7695H27.1992ZM66.8167 0.554688V9.53906H48.848V11.7852H66.8167V32H39.8636V23.0156H57.8323V20.7695H39.8636V9.53906H35.3714L37.6175 0.554688H66.8167ZM83.9733 32H74.9889V25.2617H83.9733V32Z"/>
    </mask>
    <path d="M9.23047 23.0156H18.2148V9.53906H9.23047V23.0156ZM27.1992 20.7695V32H0.246094V0.554688H27.1992V11.7852H31.6914L29.4453 20.7695H27.1992ZM66.8167 0.554688V9.53906H48.848V11.7852H66.8167V32H39.8636V23.0156H57.8323V20.7695H39.8636V9.53906H35.3714L37.6175 0.554688H66.8167ZM83.9733 32H74.9889V25.2617H83.9733V32Z" fill="#E82338"/>
    <path d="M9.23047 23.0156H5.23047V27.0156H9.23047V23.0156ZM18.2148 23.0156V27.0156H22.2148V23.0156H18.2148ZM18.2148 9.53906H22.2148V5.53906H18.2148V9.53906ZM9.23047 9.53906V5.53906H5.23047V9.53906H9.23047ZM27.1992 20.7695V16.7695H23.1992V20.7695H27.1992ZM27.1992 32V36H31.1992V32H27.1992ZM0.246094 32H-3.75391V36H0.246094V32ZM0.246094 0.554688V-3.44531H-3.75391V0.554688H0.246094ZM27.1992 0.554688H31.1992V-3.44531H27.1992V0.554688ZM27.1992 11.7852H23.1992V15.7852H27.1992V11.7852ZM31.6914 11.7852L35.572 12.7553L36.8145 7.78516H31.6914V11.7852ZM29.4453 20.7695V24.7695H32.5684L33.3259 21.7397L29.4453 20.7695ZM9.23047 27.0156H18.2148V19.0156H9.23047V27.0156ZM22.2148 23.0156V9.53906H14.2148V23.0156H22.2148ZM18.2148 5.53906H9.23047V13.5391H18.2148V5.53906ZM5.23047 9.53906V23.0156H13.2305V9.53906H5.23047ZM23.1992 20.7695V32H31.1992V20.7695H23.1992ZM27.1992 28H0.246094V36H27.1992V28ZM4.24609 32V0.554688H-3.75391V32H4.24609ZM0.246094 4.55469H27.1992V-3.44531H0.246094V4.55469ZM23.1992 0.554688V11.7852H31.1992V0.554688H23.1992ZM27.1992 15.7852H31.6914V7.78516H27.1992V15.7852ZM27.8108 10.815L25.5647 19.7994L33.3259 21.7397L35.572 12.7553L27.8108 10.815ZM29.4453 16.7695H27.1992V24.7695H29.4453V16.7695ZM66.8167 0.554688H70.8167V-3.44531H66.8167V0.554688ZM66.8167 9.53906V13.5391H70.8167V9.53906H66.8167ZM48.848 9.53906V5.53906H44.848V9.53906H48.848ZM48.848 11.7852H44.848V15.7852H48.848V11.7852ZM66.8167 11.7852H70.8167V7.78516H66.8167V11.7852ZM66.8167 32V36H70.8167V32H66.8167ZM39.8636 32H35.8636V36H39.8636V32ZM39.8636 23.0156V19.0156H35.8636V23.0156H39.8636ZM57.8323 23.0156V27.0156H61.8323V23.0156H57.8323ZM57.8323 20.7695H61.8323V16.7695H57.8323V20.7695ZM39.8636 20.7695H35.8636V24.7695H39.8636V20.7695ZM39.8636 9.53906H43.8636V5.53906H39.8636V9.53906ZM35.3714 9.53906L31.4908 8.56892L30.2483 13.5391H35.3714V9.53906ZM37.6175 0.554688V-3.44531H34.4944L33.7369 -0.415455L37.6175 0.554688ZM62.8167 0.554688V9.53906H70.8167V0.554688H62.8167ZM66.8167 5.53906H48.848V13.5391H66.8167V5.53906ZM44.848 9.53906V11.7852H52.848V9.53906H44.848ZM48.848 15.7852H66.8167V7.78516H48.848V15.7852ZM62.8167 11.7852V32H70.8167V11.7852H62.8167ZM66.8167 28H39.8636V36H66.8167V28ZM43.8636 32V23.0156H35.8636V32H43.8636ZM39.8636 27.0156H57.8323V19.0156H39.8636V27.0156ZM61.8323 23.0156V20.7695H53.8323V23.0156H61.8323ZM57.8323 16.7695H39.8636V24.7695H57.8323V16.7695ZM43.8636 20.7695V9.53906H35.8636V20.7695H43.8636ZM39.8636 5.53906H35.3714V13.5391H39.8636V5.53906ZM39.252 10.5092L41.4981 1.52483L33.7369 -0.415455L31.4908 8.56892L39.252 10.5092ZM37.6175 4.55469H66.8167V-3.44531H37.6175V4.55469ZM83.9733 32V36H87.9733V32H83.9733ZM74.9889 32H70.9889V36H74.9889V32ZM74.9889 25.2617V21.2617H70.9889V25.2617H74.9889ZM83.9733 25.2617H87.9733V21.2617H83.9733V25.2617ZM83.9733 28H74.9889V36H83.9733V28ZM78.9889 32V25.2617H70.9889V32H78.9889ZM74.9889 29.2617H83.9733V21.2617H74.9889V29.2617ZM79.9733 25.2617V32H87.9733V25.2617H79.9733Z" fill="black" mask="url(#path-1-outside-1_1037_581)"/>
</svg>
