<svg width="122" height="167" viewBox="0 0 122 167" fill="none" xmlns="http://www.w3.org/2000/svg">
<path d="M94.6605 101.017C90.2225 103.246 86.8079 112.541 87.8293 118.597C93.3619 112.818 94.8095 108.952 94.6605 101.017Z" fill="#715C23"/>
<path d="M26.6779 101.017C31.1158 103.246 34.5304 112.541 33.509 118.597C27.9764 112.818 26.5289 108.952 26.6779 101.017Z" fill="#715C23"/>
<path d="M94.6605 101.017C90.2225 103.246 86.8079 112.541 87.8293 118.597C93.3619 112.818 94.8095 108.952 94.6605 101.017Z" stroke="black"/>
<path d="M26.6779 101.017C31.1158 103.246 34.5304 112.541 33.509 118.597C27.9764 112.818 26.5289 108.952 26.6779 101.017Z" stroke="black"/>
<path d="M98.7629 86.9212C95.3147 90.4957 95.1735 100.397 98.1441 105.772C101.449 98.4864 101.533 94.3584 98.7629 86.9212Z" fill="#715C23"/>
<path d="M22.0541 86.9213C25.5023 90.4959 25.6435 100.397 22.6729 105.772C19.3681 98.4865 19.2838 94.3585 22.0541 86.9213Z" fill="#715C23"/>
<path d="M98.7629 86.9212C95.3147 90.4957 95.1735 100.397 98.1441 105.772C101.449 98.4864 101.533 94.3584 98.7629 86.9212Z" stroke="black"/>
<path d="M22.0541 86.9213C25.5023 90.4959 25.6435 100.397 22.6729 105.772C19.3681 98.4865 19.2838 94.3585 22.0541 86.9213Z" stroke="black"/>
<path d="M100.868 75.1817C98.2751 79.4178 100.28 89.1151 104.343 93.72C105.993 85.8917 105.182 81.8433 100.868 75.1817Z" fill="#715C23"/>
<path d="M20.7297 74.2529C23.3227 78.4889 21.3179 88.1862 17.2547 92.7911C15.6047 84.9628 16.4157 80.9144 20.7297 74.2529Z" fill="#715C23"/>
<path d="M100.868 75.1817C98.2751 79.4178 100.28 89.1151 104.343 93.72C105.993 85.8917 105.182 81.8433 100.868 75.1817Z" stroke="black"/>
<path d="M20.7297 74.2529C23.3227 78.4889 21.3179 88.1862 17.2547 92.7911C15.6047 84.9628 16.4157 80.9144 20.7297 74.2529Z" stroke="black"/>
<path d="M97.2762 60.7333C96.2781 65.5986 101.461 74.0364 106.848 76.9851C105.738 69.0622 103.598 65.5308 97.2762 60.7333Z" fill="#715C23"/>
<path d="M23.6662 61.6391C24.6642 66.5044 19.4813 74.9422 14.0943 77.8909C15.2047 69.968 17.344 66.4366 23.6662 61.6391Z" fill="#715C23"/>
<path d="M97.2762 60.7333C96.2781 65.5986 101.461 74.0364 106.848 76.9851C105.738 69.0622 103.598 65.5308 97.2762 60.7333Z" stroke="black"/>
<path d="M23.6662 61.6391C24.6642 66.5044 19.4813 74.9422 14.0943 77.8909C15.2047 69.968 17.344 66.4366 23.6662 61.6391Z" stroke="black"/>
<path d="M86.4588 47.7589C87.3512 52.6447 95.3118 58.5344 101.41 59.2563C97.4197 52.3225 94.1158 49.8463 86.4588 47.7589Z" fill="#715C23"/>
<path d="M34.9153 47.7588C34.0229 52.6447 26.0624 58.5343 19.9637 59.2563C23.9544 52.3224 27.2584 49.8463 34.9153 47.7588Z" fill="#715C23"/>
<path d="M86.4588 47.7589C87.3512 52.6447 95.3118 58.5344 101.41 59.2563C97.4197 52.3225 94.1158 49.8463 86.4588 47.7589Z" stroke="black"/>
<path d="M34.9153 47.7588C34.0229 52.6447 26.0624 58.5343 19.9637 59.2563C23.9544 52.3224 27.2584 49.8463 34.9153 47.7588Z" stroke="black"/>
<path d="M83.2667 33.5087C83.064 38.4712 89.5361 45.9658 95.3272 48.0099C92.9573 40.3687 90.278 37.2272 83.2667 33.5087Z" fill="#715C23"/>
<path d="M38.797 33.5085C38.9997 38.471 32.5276 45.9656 26.7365 48.0098C29.1064 40.3686 31.7857 37.2271 38.797 33.5085Z" fill="#715C23"/>
<path d="M83.2667 33.5087C83.064 38.4712 89.5361 45.9658 95.3272 48.0099C92.9573 40.3687 90.278 37.2272 83.2667 33.5087Z" stroke="black"/>
<path d="M38.797 33.5085C38.9997 38.471 32.5276 45.9656 26.7365 48.0098C29.1064 40.3686 31.7857 37.2271 38.797 33.5085Z" stroke="black"/>
<path d="M58.2488 132.341C56.999 131.211 55.3732 130.501 53.3205 130.009C55.5829 129.517 57.2741 128.684 58.5185 127.326C59.6315 126.111 60.3503 124.515 60.8303 122.47C61.1951 124.58 61.8369 126.238 62.9591 127.484C64.082 128.732 65.641 129.521 67.7514 129.977C66.1173 130.387 64.8291 131.052 63.8025 132.057C62.4793 133.352 61.642 135.165 61.0117 137.571C60.4811 135.26 59.6126 133.573 58.2488 132.341Z" fill="#715C23" stroke="black"/>
<path d="M47.9575 127.105C47.9575 122.139 41.1848 114.914 35.3152 113.108C37.995 120.646 40.8003 123.676 47.9575 127.105Z" fill="#715C23"/>
<path d="M73.2421 127.105C73.2421 122.139 80.0148 114.914 85.8845 113.108C83.2047 120.646 80.3994 123.676 73.2421 127.105Z" fill="#715C23"/>
<path d="M47.9575 127.105C47.9575 122.139 41.1848 114.914 35.3152 113.108C37.995 120.646 40.8003 123.676 47.9575 127.105Z" stroke="black"/>
<path d="M73.2421 127.105C73.2421 122.139 80.0148 114.914 85.8845 113.108C83.2047 120.646 80.3994 123.676 73.2421 127.105Z" stroke="black"/>
<path d="M92.3894 132.062C89.1768 128.275 79.3389 127.146 73.6943 129.566C80.614 133.581 84.7129 134.077 92.3894 132.062Z" fill="#715C23"/>
<path d="M29.4457 132.976C32.6583 129.188 42.4962 128.06 48.1408 130.479C41.2212 134.494 37.1222 134.99 29.4457 132.976Z" fill="#715C23"/>
<path d="M92.3894 132.062C89.1768 128.275 79.3389 127.146 73.6943 129.566C80.614 133.581 84.7129 134.077 92.3894 132.062Z" stroke="black"/>
<path d="M29.4457 132.976C32.6583 129.188 42.4962 128.06 48.1408 130.479C41.2212 134.494 37.1222 134.99 29.4457 132.976Z" stroke="black"/>
<path d="M102.603 124.615C98.9153 121.288 89.0147 121.479 83.7421 124.628C91.1344 127.687 95.263 127.633 102.603 124.615Z" fill="#715C23"/>
<path d="M18.2598 124.603C21.9477 121.276 31.8483 121.466 37.1209 124.615C29.7286 127.674 25.6 127.62 18.2598 124.603Z" fill="#715C23"/>
<path d="M102.603 124.615C98.9153 121.288 89.0147 121.479 83.7421 124.628C91.1344 127.687 95.263 127.633 102.603 124.615Z" stroke="black"/>
<path d="M18.2598 124.603C21.9477 121.276 31.8483 121.466 37.1209 124.615C29.7286 127.674 25.6 127.62 18.2598 124.603Z" stroke="black"/>
<path d="M111.089 112.577C106.435 110.843 97.301 114.668 93.5596 119.538C101.559 119.658 105.377 118.087 111.089 112.577Z" fill="#715C23"/>
<path d="M10.5614 112.577C15.2156 110.843 24.3495 114.668 28.0909 119.538C20.0915 119.658 16.2734 118.087 10.5614 112.577Z" fill="#715C23"/>
<path d="M111.089 112.577C106.435 110.843 97.301 114.668 93.5596 119.538C101.559 119.658 105.377 118.087 111.089 112.577Z" stroke="black"/>
<path d="M10.5614 112.577C15.2156 110.843 24.3495 114.668 28.0909 119.538C20.0915 119.658 16.2734 118.087 10.5614 112.577Z" stroke="black"/>
<path d="M114.875 100.978C109.977 100.156 101.731 105.639 98.9783 111.129C106.856 109.734 110.308 107.469 114.875 100.978Z" fill="#715C23"/>
<path d="M6.77603 100.978C11.6741 100.156 19.9199 105.639 22.6727 111.128C14.795 109.734 11.3429 107.469 6.77603 100.978Z" fill="#715C23"/>
<path d="M114.875 100.978C109.977 100.156 101.731 105.639 98.9783 111.129C106.856 109.734 110.308 107.469 114.875 100.978Z" stroke="black"/>
<path d="M6.77603 100.978C11.6741 100.156 19.9199 105.639 22.6727 111.128C14.795 109.734 11.3429 107.469 6.77603 100.978Z" stroke="black"/>
<path d="M120.199 86.0187C115.233 86.0353 108.031 92.832 106.245 98.7077C113.774 96.0028 116.794 93.1874 120.199 86.0187Z" fill="#715C23"/>
<path d="M1.00003 86.0184C5.96664 86.035 13.1682 92.8317 14.9547 98.7074C7.42554 96.0024 4.40542 93.1871 1.00003 86.0184Z" fill="#715C23"/>
<path d="M120.199 86.0187C115.233 86.0353 108.031 92.832 106.245 98.7077C113.774 96.0028 116.794 93.1874 120.199 86.0187Z" stroke="black"/>
<path d="M1.00003 86.0184C5.96664 86.035 13.1682 92.8317 14.9547 98.7074C7.42554 96.0024 4.40542 93.1871 1.00003 86.0184Z" stroke="black"/>
<path d="M117.202 71.6397C112.658 73.4744 108.585 82.4231 109.13 88.533C115.023 83.2635 116.745 79.5432 117.202 71.6397Z" fill="#715C23"/>
<path d="M4.21575 71.6397C8.75969 73.4744 12.8334 82.4231 12.2881 88.533C6.39489 83.2635 4.67352 79.5432 4.21575 71.6397Z" fill="#715C23"/>
<path d="M117.202 71.6397C112.658 73.4744 108.585 82.4231 109.13 88.533C115.023 83.2635 116.745 79.5432 117.202 71.6397Z" stroke="black"/>
<path d="M4.21575 71.6397C8.75969 73.4744 12.8334 82.4231 12.2881 88.533C6.39489 83.2635 4.67352 79.5432 4.21575 71.6397Z" stroke="black"/>
<path d="M114.035 54.412C109.974 57.1549 107.858 66.7569 109.667 72.6184C114.33 66.2347 115.237 62.2369 114.035 54.412Z" fill="#715C23"/>
<path d="M7.46892 54.4125C11.5297 57.1554 13.6454 66.7573 11.8366 72.6188C7.17335 66.2351 6.26661 62.2374 7.46892 54.4125Z" fill="#715C23"/>
<path d="M114.035 54.412C109.974 57.1549 107.858 66.7569 109.667 72.6184C114.33 66.2347 115.237 62.2369 114.035 54.412Z" stroke="black"/>
<path d="M7.46892 54.4125C11.5297 57.1554 13.6454 66.7573 11.8366 72.6188C7.17335 66.2351 6.26661 62.2374 7.46892 54.4125Z" stroke="black"/>
<path d="M105.454 44.479C102.195 48.1383 102.512 57.9656 105.71 63.2002C108.656 55.8639 108.549 51.766 105.454 44.479Z" fill="#715C23"/>
<path d="M15.9001 44.4789C19.1594 48.1383 18.8427 57.9655 15.6447 63.2001C12.6991 55.8638 12.8059 51.7659 15.9001 44.4789Z" fill="#715C23"/>
<path d="M105.454 44.479C102.195 48.1383 102.512 57.9656 105.71 63.2002C108.656 55.8639 108.549 51.766 105.454 44.479Z" stroke="black"/>
<path d="M15.9001 44.4789C19.1594 48.1383 18.8427 57.9655 15.6447 63.2001C12.6991 55.8638 12.8059 51.7659 15.9001 44.4789Z" stroke="black"/>
<path d="M95.0465 33.6429C92.917 38.0563 95.9193 47.4191 100.431 51.5747C101.25 43.7116 100.022 39.8005 95.0465 33.6429Z" fill="#715C23"/>
<path d="M26.2848 33.6432C28.4143 38.0566 25.412 47.4193 20.8999 51.575C20.0814 43.7119 21.3091 39.8008 26.2848 33.6432Z" fill="#715C23"/>
<path d="M95.0465 33.6429C92.917 38.0563 95.9193 47.4191 100.431 51.5747C101.25 43.7116 100.022 39.8005 95.0465 33.6429Z" stroke="black"/>
<path d="M26.2848 33.6432C28.4143 38.0566 25.412 47.4193 20.8999 51.575C20.0814 43.7119 21.3091 39.8008 26.2848 33.6432Z" stroke="black"/>
</svg>
