<svg width="41" height="30" viewBox="0 0 41 30" fill="none" xmlns="http://www.w3.org/2000/svg">
<path d="M33.6235 2.93159C31.1673 1.82713 28.5333 1.01342 25.7794 0.547365C25.7292 0.538371 25.6791 0.560849 25.6533 0.605806C25.5114 0.853113 25.3631 1.13197 25.2194 1.41705C24.8803 2.08951 24.1593 2.49119 23.4104 2.41251C21.3089 2.19177 19.2174 2.19049 17.1465 2.40866C16.3909 2.48828 15.6612 2.08147 15.3115 1.40685C15.1658 1.12565 15.0159 0.851341 14.8744 0.605806C14.8485 0.562349 14.7984 0.539871 14.7483 0.547365C11.9959 1.01193 9.36191 1.82564 6.90415 2.93159C6.88287 2.94058 6.86463 2.95558 6.85253 2.97505C1.85648 10.2896 0.487854 17.4243 1.15926 24.4706C1.16229 24.5051 1.18204 24.538 1.20938 24.559C4.50563 26.9312 7.69861 28.3714 10.8323 29.3259C10.8825 29.3409 10.9356 29.323 10.9675 29.2825C11.7088 28.2905 12.3696 27.2445 12.9361 26.1445C12.9696 26.0801 12.9376 26.0036 12.8693 25.9781C11.8212 25.5885 10.8232 25.1135 9.86317 24.574C9.78723 24.5305 9.78115 24.4241 9.85101 24.3731C10.053 24.2248 10.2551 24.0704 10.448 23.9146C10.4829 23.8861 10.5315 23.8801 10.5726 23.8981C16.8795 26.7199 23.7074 26.7199 29.9399 23.8981C29.9809 23.8786 30.0296 23.8846 30.066 23.9131C30.2589 24.0689 30.461 24.2248 30.6645 24.3731C30.7344 24.4241 30.7298 24.5305 30.6539 24.574C29.6939 25.1239 28.6958 25.5885 27.6462 25.9766C27.5779 26.0021 27.5475 26.0801 27.5809 26.1445C28.1596 27.2429 28.8204 28.2889 29.548 29.281C29.5784 29.323 29.6331 29.3409 29.6832 29.3259C32.8321 28.3714 36.0251 26.9312 39.3213 24.559C39.3502 24.538 39.3684 24.5066 39.3715 24.4721C40.175 16.3258 38.0256 9.24958 33.6736 2.97654C33.663 2.95558 33.6448 2.94058 33.6235 2.93159ZM13.8779 20.1801C11.9791 20.1801 10.4146 18.4718 10.4146 16.3738C10.4146 14.2758 11.9488 12.5674 13.8779 12.5674C15.8222 12.5674 17.3717 14.2908 17.3413 16.3738C17.3413 18.4718 15.807 20.1801 13.8779 20.1801ZM26.6832 20.1801C24.7844 20.1801 23.2198 18.4718 23.2198 16.3738C23.2198 14.2758 24.754 12.5674 26.6832 12.5674C28.6275 12.5674 30.1769 14.2908 30.1465 16.3738C30.1465 18.4718 28.6275 20.1801 26.6832 20.1801Z" stroke="black" stroke-linecap="round" stroke-linejoin="round"/>
</svg>
