<svg width="63" height="46" viewBox="0 0 63 46" fill="none" xmlns="http://www.w3.org/2000/svg">
<path d="M53.5042 4.58908C49.8098 2.92785 45.848 1.70393 41.7058 1.00294C41.6303 0.989412 41.555 1.02322 41.5161 1.09084C41.2073 1.62908 40.8784 2.26668 40.5791 2.88822C40.2524 3.56677 39.5298 3.969 38.7819 3.87997C35.1871 3.45199 31.6099 3.45048 28.0745 3.87545C27.3201 3.96613 26.5904 3.55804 26.2546 2.87639C25.9496 2.25719 25.6132 1.6282 25.3035 1.09084C25.2646 1.02548 25.1893 0.991668 25.1138 1.00294C20.9739 1.70169 17.0121 2.92561 13.3154 4.58908C13.2834 4.6026 13.256 4.62516 13.2378 4.65444C5.72317 15.6563 3.66461 26.3877 4.67447 36.986C4.67904 37.0379 4.70875 37.0875 4.74987 37.119C9.70778 40.6871 14.5104 42.8532 19.2238 44.289C19.2992 44.3116 19.3791 44.2845 19.4271 44.2236C20.5421 42.7315 21.536 41.1582 22.3881 39.5037C22.4384 39.4068 22.3904 39.2919 22.2876 39.2535C20.7112 38.6675 19.2101 37.953 17.7661 37.1416C17.6519 37.0762 17.6427 36.9161 17.7478 36.8395C18.0517 36.6163 18.3556 36.3842 18.6458 36.1497C18.6983 36.1069 18.7714 36.0979 18.8331 36.1249C28.3194 40.3693 38.5893 40.3693 47.9636 36.1249C48.0254 36.0957 48.0985 36.1047 48.1533 36.1475C48.4435 36.3819 48.7474 36.6163 49.0535 36.8395C49.1586 36.9161 49.1518 37.0762 49.0375 37.1416C47.5936 37.9687 46.0925 38.6675 44.5137 39.2513C44.4109 39.2896 44.3652 39.4068 44.4155 39.5037C45.2859 41.1559 46.2798 42.7292 47.3742 44.2214C47.4199 44.2845 47.5021 44.3116 47.5776 44.289C52.3138 42.8532 57.1164 40.6871 62.0743 37.119C62.1177 37.0875 62.1452 37.0401 62.1497 36.9883C63.3583 24.7354 60.1254 14.092 53.5796 4.65668C53.5636 4.62516 53.5362 4.6026 53.5042 4.58908ZM23.8048 30.5327C20.9487 30.5327 18.5955 27.9632 18.5955 24.8076C18.5955 21.6519 20.9031 19.0824 23.8048 19.0824C26.7292 19.0824 29.0597 21.6745 29.014 24.8076C29.014 27.9632 26.7063 30.5327 23.8048 30.5327ZM43.0652 30.5327C40.2092 30.5327 37.856 27.9632 37.856 24.8076C37.856 21.6519 40.1635 19.0824 43.0652 19.0824C45.9897 19.0824 48.3201 21.6745 48.2744 24.8076C48.2744 27.9632 45.9897 30.5327 43.0652 30.5327Z" fill="#7289D7"/>
<path d="M50.5317 4.58908C46.8372 2.92785 42.8755 1.70393 38.7332 1.00294C38.6578 0.989412 38.5825 1.02322 38.5436 1.09084C38.2348 1.62908 37.9058 2.26668 37.6066 2.88822C37.2799 3.56677 36.5572 3.969 35.8094 3.87997C32.2145 3.45199 28.6374 3.45048 25.102 3.87545C24.3476 3.96613 23.6179 3.55804 23.2821 2.87639C22.9771 2.25719 22.6406 1.6282 22.331 1.09084C22.2921 1.02548 22.2167 0.991668 22.1413 1.00294C18.0013 1.70169 14.0396 2.92561 10.3429 4.58908C10.3109 4.6026 10.2834 4.62516 10.2652 4.65444C2.75064 15.6563 0.692079 26.3877 1.70194 36.986C1.70651 37.0379 1.73621 37.0875 1.77734 37.119C6.73525 40.6871 11.5378 42.8532 16.2512 44.289C16.3267 44.3116 16.4066 44.2845 16.4546 44.2236C17.5696 42.7315 18.5634 41.1582 19.4156 39.5037C19.4659 39.4068 19.4179 39.2919 19.3151 39.2535C17.7386 38.6675 16.2375 37.953 14.7936 37.1416C14.6793 37.0762 14.6702 36.9161 14.7753 36.8395C15.0791 36.6163 15.3831 36.3842 15.6732 36.1497C15.7257 36.1069 15.7989 36.0979 15.8606 36.1249C25.3468 40.3693 35.6168 40.3693 44.9911 36.1249C45.0528 36.0957 45.126 36.1047 45.1808 36.1475C45.471 36.3819 45.7749 36.6163 46.081 36.8395C46.1861 36.9161 46.1792 37.0762 46.065 37.1416C44.621 37.9687 43.1199 38.6675 41.5412 39.2513C41.4384 39.2896 41.3927 39.4068 41.443 39.5037C42.3134 41.1559 43.3073 42.7292 44.4017 44.2214C44.4474 44.2845 44.5296 44.3116 44.605 44.289C49.3413 42.8532 54.1438 40.6871 59.1018 37.119C59.1452 37.0875 59.1726 37.0401 59.1772 36.9883C60.3858 24.7354 57.1529 14.092 50.607 4.65668C50.591 4.62516 50.5637 4.6026 50.5317 4.58908ZM20.8322 30.5327C17.9762 30.5327 15.6229 27.9632 15.6229 24.8076C15.6229 21.6519 17.9306 19.0824 20.8322 19.0824C23.7566 19.0824 26.0871 21.6745 26.0414 24.8076C26.0414 27.9632 23.7338 30.5327 20.8322 30.5327ZM40.0926 30.5327C37.2367 30.5327 34.8834 27.9632 34.8834 24.8076C34.8834 21.6519 37.191 19.0824 40.0926 19.0824C43.0171 19.0824 45.3476 21.6745 45.3019 24.8076C45.3019 27.9632 43.0171 30.5327 40.0926 30.5327Z" stroke="black" stroke-width="2" stroke-linecap="round" stroke-linejoin="round"/>
</svg>
