<svg width="14" height="11" viewBox="0 0 14 11" fill="none" xmlns="http://www.w3.org/2000/svg">
<g filter="url(#filter0_d_927_1960)">
<mask id="path-1-outside-1_927_1960" maskUnits="userSpaceOnUse" x="-2" y="-1" width="16" height="13" fill="black">
<rect fill="white" x="-2" y="-1" width="16" height="13"/>
<path d="M0.0273438 3.54102L3.05469 0.513672L6.08203 3.54102L9.10938 0.513672L12.1367 3.54102L6.08203 9.5957L0.0273438 3.54102Z"/>
</mask>
<path d="M0.0273438 3.54102L3.05469 0.513672L6.08203 3.54102L9.10938 0.513672L12.1367 3.54102L6.08203 9.5957L0.0273438 3.54102Z" fill="#CC232F"/>
<path d="M0.0273438 3.54102L-0.679764 2.83391L-1.38687 3.54102L-0.679764 4.24812L0.0273438 3.54102ZM3.05469 0.513672L3.7618 -0.193435L3.05469 -0.900542L2.34758 -0.193435L3.05469 0.513672ZM6.08203 3.54102L5.37492 4.24812L6.08203 4.95523L6.78914 4.24812L6.08203 3.54102ZM9.10938 0.513672L9.81648 -0.193435L9.10938 -0.900542L8.40227 -0.193435L9.10938 0.513672ZM12.1367 3.54102L12.8438 4.24812L13.5509 3.54102L12.8438 2.83391L12.1367 3.54102ZM6.08203 9.5957L5.37492 10.3028L6.08203 11.0099L6.78914 10.3028L6.08203 9.5957ZM0.734451 4.24812L3.7618 1.22078L2.34758 -0.193435L-0.679764 2.83391L0.734451 4.24812ZM2.34758 1.22078L5.37492 4.24812L6.78914 2.83391L3.7618 -0.193435L2.34758 1.22078ZM6.78914 4.24812L9.81648 1.22078L8.40227 -0.193435L5.37492 2.83391L6.78914 4.24812ZM8.40227 1.22078L11.4296 4.24812L12.8438 2.83391L9.81648 -0.193435L8.40227 1.22078ZM11.4296 2.83391L5.37492 8.8886L6.78914 10.3028L12.8438 4.24812L11.4296 2.83391ZM6.78914 8.8886L0.734451 2.83391L-0.679764 4.24812L5.37492 10.3028L6.78914 8.8886Z" fill="black" mask="url(#path-1-outside-1_927_1960)"/>
</g>
<defs>
<filter id="filter0_d_927_1960" x="0.0273438" y="0.513672" width="13.1094" height="10.082" filterUnits="userSpaceOnUse" color-interpolation-filters="sRGB">
<feFlood flood-opacity="0" result="BackgroundImageFix"/>
<feColorMatrix in="SourceAlpha" type="matrix" values="0 0 0 0 0 0 0 0 0 0 0 0 0 0 0 0 0 0 127 0" result="hardAlpha"/>
<feOffset dx="1" dy="1"/>
<feComposite in2="hardAlpha" operator="out"/>
<feColorMatrix type="matrix" values="0 0 0 0 0 0 0 0 0 0 0 0 0 0 0 0 0 0 1 0"/>
<feBlend mode="normal" in2="BackgroundImageFix" result="effect1_dropShadow_927_1960"/>
<feBlend mode="normal" in="SourceGraphic" in2="effect1_dropShadow_927_1960" result="shape"/>
</filter>
</defs>
</svg>
