<svg width="146" height="116" viewBox="0 0 146 116" fill="none" xmlns="http://www.w3.org/2000/svg">
<rect width="63.1976" height="20.7372" rx="10.3686" transform="matrix(0.857237 -0.514923 0.451285 0.89238 6.30328 41.7983)" fill="#EA4335"/>
<rect width="62.3166" height="23.1303" rx="11.5651" transform="matrix(0.857237 0.514923 -0.518534 0.855057 14.9663 32.8291)" fill="#4285F4"/>
<rect x="0.547667" y="2.04395" width="65.2167" height="21.2934" rx="10.6467" transform="matrix(0.867261 0.497853 -0.50215 0.864781 13.298 25.4965)" stroke="black" stroke-width="3"/>
<path d="M11.5186 32.0646L49.4183 10.0296C49.4183 10.0296 58.0035 5.7772 63.1663 14.282C68.3291 22.7867 59.8222 28.972 59.8222 28.972L37.8998 42.1157" stroke="black" stroke-width="3"/>
<rect width="64.5576" height="22.0597" rx="11.0298" transform="matrix(-0.857237 0.514923 -0.451285 -0.89238 139.657 42.1022)" fill="#FBBC05"/>
<rect width="62.3166" height="22.2009" rx="11.1005" transform="matrix(-0.857237 -0.514923 0.518534 -0.855057 130.994 51.0713)" fill="#34A835"/>
<path d="M133.15 51.7801L95.2499 73.8151C95.2499 73.8151 86.6648 78.0675 81.502 69.5628C76.3392 61.058 84.8461 54.8727 84.8461 54.8727L106.768 41.729" stroke="black" stroke-width="3"/>
<rect x="-2.05408" y="0.550382" width="65.2148" height="21.2932" rx="10.6466" transform="matrix(-0.867253 -0.497867 -0.502136 0.864789 142.303 36.0848)" stroke="black" stroke-width="3"/>
<path d="M13.36 109H8.696C7.64 108.032 6.87 106.881 6.386 105.546C5.902 104.211 5.66 102.818 5.66 101.366C5.66 99.8993 5.95333 98.4547 6.54 97.032C7.12667 95.6093 7.948 94.4653 9.004 93.6H14.35V96.24H10.258C9.87667 96.68 9.54667 97.3767 9.268 98.33C8.98933 99.2687 8.85 100.273 8.85 101.344C8.85 102.4 8.97467 103.412 9.224 104.38C9.488 105.333 9.81067 106.023 10.192 106.448H12.304V100.464H15.208V104.16C15.208 106.184 14.592 107.797 13.36 109ZM19.9191 106.448H21.8991C22.3098 105.935 22.6324 105.187 22.8671 104.204C23.1164 103.221 23.2411 102.246 23.2411 101.278C23.2411 98.9753 22.8084 97.296 21.9431 96.24H19.9191V106.448ZM16.9271 109V93.6H23.3071C25.3898 95.448 26.4311 97.956 26.4311 101.124C26.4311 104.277 25.4558 106.903 23.5051 109H16.9271ZM29.2277 93.6H34.5077V96.24H30.2837L30.2177 96.372L33.7377 102.796C34.4563 104.087 34.8157 105.069 34.8157 105.744C34.8157 107.225 34.3243 108.311 33.3417 109H27.5117V106.448H32.0657L32.1317 106.316L28.1717 99.21C27.5997 98.1833 27.3137 97.3473 27.3137 96.702C27.3137 95.1767 27.9517 94.1427 29.2277 93.6ZM40.2947 106.448H44.1667V109H38.5787C37.6107 108.091 36.8774 106.939 36.3787 105.546C35.88 104.153 35.6307 102.723 35.6307 101.256C35.6307 99.7747 35.9094 98.352 36.4667 96.988C37.024 95.624 37.8527 94.4947 38.9527 93.6H44.1667V96.24H40.2947C39.8987 96.6947 39.554 97.428 39.2607 98.44C38.982 99.452 38.8427 100.42 38.8427 101.344C38.8427 102.268 38.982 103.236 39.2607 104.248C39.554 105.26 39.8987 105.993 40.2947 106.448ZM49.304 109V93.6H52.318V109H49.304ZM54.4388 109V93.6H57.4528V109H54.4388ZM59.5736 109V93.6H62.5876V109H59.5736ZM67.1943 96.24H63.8723V93.6H73.5083V96.24H70.1863V109H67.1943V96.24ZM78.308 109V93.6H81.322V100.09H81.432L84.182 93.6H87.284L84.072 100.948L87.438 109H84.094L81.476 102.268H81.322V109H78.308ZM93.4687 103.918H91.1147C90.8067 104.299 90.6527 104.776 90.6527 105.348C90.6527 105.92 90.814 106.367 91.1367 106.69H93.4687V103.918ZM88.7387 97.758H94.1947C95.0747 98.286 95.654 98.8947 95.9327 99.584C96.2114 100.259 96.3507 101.183 96.3507 102.356V105.656C96.3507 106.873 96.38 107.988 96.4387 109H93.9307L93.5347 108.208C92.9627 108.736 92.156 109 91.1147 109H89.7287C88.482 108.179 87.8587 106.998 87.8587 105.458C87.8587 103.903 88.4967 102.679 89.7727 101.784H91.8407C92.4127 101.784 92.948 101.96 93.4467 102.312V101.212C93.4467 100.64 93.1974 100.259 92.6987 100.068H88.7387V97.758ZM101.147 93.6V109H98.2429V93.6H101.147ZM102.968 102.818V97.758H105.894V102.84C105.894 104.116 106.151 105.179 106.664 106.03H107.962C108.446 105.194 108.688 104.131 108.688 102.84V97.758H111.614V102.664C111.614 103.764 111.467 104.732 111.174 105.568C110.895 106.404 110.433 107.35 109.788 108.406L108.314 110.804C108.05 111.259 107.771 111.596 107.478 111.816C107.185 112.036 106.803 112.197 106.334 112.3H102.858V109.99H105.234C105.542 109.902 105.799 109.748 106.004 109.528C106.209 109.308 106.422 108.993 106.642 108.582L106.774 108.34H105.256C104.552 107.768 103.995 106.998 103.584 106.03C103.173 105.047 102.968 103.977 102.968 102.818ZM118.412 103.918H116.058C115.75 104.299 115.596 104.776 115.596 105.348C115.596 105.92 115.757 106.367 116.08 106.69H118.412V103.918ZM113.682 97.758H119.138C120.018 98.286 120.597 98.8947 120.876 99.584C121.155 100.259 121.294 101.183 121.294 102.356V105.656C121.294 106.873 121.323 107.988 121.382 109H118.874L118.478 108.208C117.906 108.736 117.099 109 116.058 109H114.672C113.425 108.179 112.802 106.998 112.802 105.458C112.802 103.903 113.44 102.679 114.716 101.784H116.784C117.356 101.784 117.891 101.96 118.39 102.312V101.212C118.39 100.64 118.141 100.259 117.642 100.068H113.682V97.758ZM128.07 97.758H130.402C131.048 98.5793 131.488 99.4007 131.722 100.222C131.957 101.043 132.074 102.07 132.074 103.302V109H129.148V103.082C129.148 101.689 128.958 100.684 128.576 100.068H126.112V109H123.186V97.758H125.474L125.87 98.55C126.193 98.2567 126.494 98.0513 126.772 97.934C127.066 97.8167 127.498 97.758 128.07 97.758ZM133.885 109V97.758H136.789V109H133.885ZM133.885 93.6H136.789V96.57H133.885V93.6Z" fill="black"/>
</svg>
