<svg width="122" height="167" viewBox="0 0 122 167" fill="none" xmlns="http://www.w3.org/2000/svg">
<path d="M94.6606 101.017C90.2226 103.246 86.808 112.541 87.8294 118.597C93.362 112.818 94.8096 108.952 94.6606 101.017Z" fill="#BC993D"/>
<path d="M26.678 101.017C31.116 103.246 34.5306 112.541 33.5092 118.597C27.9766 112.818 26.529 108.952 26.678 101.017Z" fill="#BC993D"/>
<path d="M94.6606 101.017C90.2226 103.246 86.808 112.541 87.8294 118.597C93.362 112.818 94.8096 108.952 94.6606 101.017Z" stroke="black"/>
<path d="M26.678 101.017C31.116 103.246 34.5306 112.541 33.5092 118.597C27.9766 112.818 26.529 108.952 26.678 101.017Z" stroke="black"/>
<path d="M98.7629 86.9212C95.3147 90.4957 95.1735 100.397 98.1441 105.772C101.449 98.4864 101.533 94.3584 98.7629 86.9212Z" fill="#BC993D"/>
<path d="M22.0541 86.9213C25.5023 90.4959 25.6435 100.397 22.6729 105.772C19.3681 98.4865 19.2838 94.3585 22.0541 86.9213Z" fill="#BC993D"/>
<path d="M98.7629 86.9212C95.3147 90.4957 95.1735 100.397 98.1441 105.772C101.449 98.4864 101.533 94.3584 98.7629 86.9212Z" stroke="black"/>
<path d="M22.0541 86.9213C25.5023 90.4959 25.6435 100.397 22.6729 105.772C19.3681 98.4865 19.2838 94.3585 22.0541 86.9213Z" stroke="black"/>
<path d="M100.868 75.1817C98.2749 79.4178 100.28 89.1151 104.343 93.72C105.993 85.8917 105.182 81.8433 100.868 75.1817Z" fill="#BC993D"/>
<path d="M20.7295 74.2529C23.3225 78.4889 21.3178 88.1862 17.2545 92.7911C15.6046 84.9628 16.4155 80.9144 20.7295 74.2529Z" fill="#BC993D"/>
<path d="M100.868 75.1817C98.2749 79.4178 100.28 89.1151 104.343 93.72C105.993 85.8917 105.182 81.8433 100.868 75.1817Z" stroke="black"/>
<path d="M20.7295 74.2529C23.3225 78.4889 21.3178 88.1862 17.2545 92.7911C15.6046 84.9628 16.4155 80.9144 20.7295 74.2529Z" stroke="black"/>
<path d="M97.276 60.7333C96.278 65.5986 101.461 74.0364 106.848 76.9851C105.738 69.0622 103.598 65.5308 97.276 60.7333Z" fill="#BC993D"/>
<path d="M23.6661 61.6391C24.6641 66.5044 19.4812 74.9422 14.0942 77.8909C15.2046 69.968 17.3439 66.4366 23.6661 61.6391Z" fill="#BC993D"/>
<path d="M97.276 60.7333C96.278 65.5986 101.461 74.0364 106.848 76.9851C105.738 69.0622 103.598 65.5308 97.276 60.7333Z" stroke="black"/>
<path d="M23.6661 61.6391C24.6641 66.5044 19.4812 74.9422 14.0942 77.8909C15.2046 69.968 17.3439 66.4366 23.6661 61.6391Z" stroke="black"/>
<path d="M86.4587 47.7589C87.3511 52.6447 95.3116 58.5344 101.41 59.2563C97.4196 52.3225 94.1156 49.8463 86.4587 47.7589Z" fill="#BC993D"/>
<path d="M34.9152 47.7588C34.0228 52.6447 26.0623 58.5343 19.9636 59.2563C23.9543 52.3224 27.2583 49.8463 34.9152 47.7588Z" fill="#BC993D"/>
<path d="M86.4587 47.7589C87.3511 52.6447 95.3116 58.5344 101.41 59.2563C97.4196 52.3225 94.1156 49.8463 86.4587 47.7589Z" stroke="black"/>
<path d="M34.9152 47.7588C34.0228 52.6447 26.0623 58.5343 19.9636 59.2563C23.9543 52.3224 27.2583 49.8463 34.9152 47.7588Z" stroke="black"/>
<path d="M83.2666 33.5087C83.0638 38.4712 89.536 45.9658 95.327 48.0099C92.9572 40.3687 90.2779 37.2272 83.2666 33.5087Z" fill="#BC993D"/>
<path d="M38.7969 33.5085C38.9996 38.471 32.5275 45.9656 26.7364 48.0098C29.1063 40.3686 31.7856 37.2271 38.7969 33.5085Z" fill="#BC993D"/>
<path d="M83.2666 33.5087C83.0638 38.4712 89.536 45.9658 95.327 48.0099C92.9572 40.3687 90.2779 37.2272 83.2666 33.5087Z" stroke="black"/>
<path d="M38.7969 33.5085C38.9996 38.471 32.5275 45.9656 26.7364 48.0098C29.1063 40.3686 31.7856 37.2271 38.7969 33.5085Z" stroke="black"/>
<path d="M58.2487 132.341C56.9989 131.211 55.3731 130.501 53.3204 130.009C55.5828 129.517 57.274 128.684 58.5183 127.326C59.6313 126.111 60.3501 124.515 60.8301 122.47C61.1949 124.58 61.8368 126.238 62.959 127.484C64.0819 128.732 65.6409 129.521 67.7513 129.977C66.1171 130.387 64.829 131.052 63.8024 132.057C62.4792 133.352 61.6419 135.165 61.0116 137.571C60.481 135.26 59.6125 133.573 58.2487 132.341Z" fill="#BC993D" stroke="black"/>
<path d="M47.9574 127.105C47.9574 122.139 41.1847 114.914 35.3151 113.108C37.9949 120.646 40.8002 123.676 47.9574 127.105Z" fill="#BC993D"/>
<path d="M73.242 127.105C73.242 122.139 80.0147 114.914 85.8844 113.108C83.2046 120.646 80.3993 123.676 73.242 127.105Z" fill="#BC993D"/>
<path d="M47.9574 127.105C47.9574 122.139 41.1847 114.914 35.3151 113.108C37.9949 120.646 40.8002 123.676 47.9574 127.105Z" stroke="black"/>
<path d="M73.242 127.105C73.242 122.139 80.0147 114.914 85.8844 113.108C83.2046 120.646 80.3993 123.676 73.242 127.105Z" stroke="black"/>
<path d="M92.3893 132.062C89.1767 128.275 79.3388 127.146 73.6942 129.566C80.6138 133.581 84.7128 134.077 92.3893 132.062Z" fill="#BC993D"/>
<path d="M29.4455 132.976C32.6582 129.188 42.4961 128.06 48.1407 130.479C41.221 134.494 37.122 134.99 29.4455 132.976Z" fill="#BC993D"/>
<path d="M92.3893 132.062C89.1767 128.275 79.3388 127.146 73.6942 129.566C80.6138 133.581 84.7128 134.077 92.3893 132.062Z" stroke="black"/>
<path d="M29.4455 132.976C32.6582 129.188 42.4961 128.06 48.1407 130.479C41.221 134.494 37.122 134.99 29.4455 132.976Z" stroke="black"/>
<path d="M102.603 124.615C98.9153 121.288 89.0147 121.479 83.7421 124.628C91.1344 127.687 95.263 127.633 102.603 124.615Z" fill="#BC993D"/>
<path d="M18.2598 124.603C21.9477 121.276 31.8483 121.466 37.1209 124.615C29.7286 127.674 25.6 127.62 18.2598 124.603Z" fill="#BC993D"/>
<path d="M102.603 124.615C98.9153 121.288 89.0147 121.479 83.7421 124.628C91.1344 127.687 95.263 127.633 102.603 124.615Z" stroke="black"/>
<path d="M18.2598 124.603C21.9477 121.276 31.8483 121.466 37.1209 124.615C29.7286 127.674 25.6 127.62 18.2598 124.603Z" stroke="black"/>
<path d="M111.089 112.577C106.435 110.843 97.3009 114.668 93.5595 119.538C101.559 119.658 105.377 118.087 111.089 112.577Z" fill="#BC993D"/>
<path d="M10.5613 112.577C15.2155 110.843 24.3494 114.668 28.0908 119.538C20.0914 119.658 16.2732 118.087 10.5613 112.577Z" fill="#BC993D"/>
<path d="M111.089 112.577C106.435 110.843 97.3009 114.668 93.5595 119.538C101.559 119.658 105.377 118.087 111.089 112.577Z" stroke="black"/>
<path d="M10.5613 112.577C15.2155 110.843 24.3494 114.668 28.0908 119.538C20.0914 119.658 16.2732 118.087 10.5613 112.577Z" stroke="black"/>
<path d="M114.875 100.978C109.977 100.156 101.731 105.639 98.9783 111.129C106.856 109.734 110.308 107.469 114.875 100.978Z" fill="#BC993D"/>
<path d="M6.77603 100.978C11.6741 100.156 19.9199 105.639 22.6727 111.128C14.795 109.734 11.3429 107.469 6.77603 100.978Z" fill="#BC993D"/>
<path d="M114.875 100.978C109.977 100.156 101.731 105.639 98.9783 111.129C106.856 109.734 110.308 107.469 114.875 100.978Z" stroke="black"/>
<path d="M6.77603 100.978C11.6741 100.156 19.9199 105.639 22.6727 111.128C14.795 109.734 11.3429 107.469 6.77603 100.978Z" stroke="black"/>
<path d="M120.199 86.0187C115.233 86.0353 108.031 92.832 106.245 98.7077C113.774 96.0028 116.794 93.1874 120.199 86.0187Z" fill="#BC993D"/>
<path d="M1.00003 86.0184C5.96664 86.035 13.1682 92.8317 14.9547 98.7074C7.42554 96.0024 4.40542 93.1871 1.00003 86.0184Z" fill="#BC993D"/>
<path d="M120.199 86.0187C115.233 86.0353 108.031 92.832 106.245 98.7077C113.774 96.0028 116.794 93.1874 120.199 86.0187Z" stroke="black"/>
<path d="M1.00003 86.0184C5.96664 86.035 13.1682 92.8317 14.9547 98.7074C7.42554 96.0024 4.40542 93.1871 1.00003 86.0184Z" stroke="black"/>
<path d="M117.202 71.6397C112.658 73.4744 108.585 82.4231 109.13 88.533C115.023 83.2635 116.744 79.5432 117.202 71.6397Z" fill="#BC993D"/>
<path d="M4.21563 71.6397C8.75957 73.4744 12.8333 82.4231 12.288 88.533C6.39477 83.2635 4.6734 79.5432 4.21563 71.6397Z" fill="#BC993D"/>
<path d="M117.202 71.6397C112.658 73.4744 108.585 82.4231 109.13 88.533C115.023 83.2635 116.744 79.5432 117.202 71.6397Z" stroke="black"/>
<path d="M4.21563 71.6397C8.75957 73.4744 12.8333 82.4231 12.288 88.533C6.39477 83.2635 4.6734 79.5432 4.21563 71.6397Z" stroke="black"/>
<path d="M114.035 54.412C109.974 57.1549 107.858 66.7569 109.667 72.6184C114.33 66.2347 115.237 62.2369 114.035 54.412Z" fill="#BC993D"/>
<path d="M7.46892 54.4125C11.5297 57.1554 13.6454 66.7573 11.8366 72.6188C7.17335 66.2351 6.26661 62.2374 7.46892 54.4125Z" fill="#BC993D"/>
<path d="M114.035 54.412C109.974 57.1549 107.858 66.7569 109.667 72.6184C114.33 66.2347 115.237 62.2369 114.035 54.412Z" stroke="black"/>
<path d="M7.46892 54.4125C11.5297 57.1554 13.6454 66.7573 11.8366 72.6188C7.17335 66.2351 6.26661 62.2374 7.46892 54.4125Z" stroke="black"/>
<path d="M105.454 44.479C102.195 48.1383 102.512 57.9656 105.71 63.2002C108.656 55.8639 108.549 51.766 105.454 44.479Z" fill="#BC993D"/>
<path d="M15.9001 44.4789C19.1594 48.1383 18.8427 57.9655 15.6447 63.2001C12.6991 55.8638 12.8059 51.7659 15.9001 44.4789Z" fill="#BC993D"/>
<path d="M105.454 44.479C102.195 48.1383 102.512 57.9656 105.71 63.2002C108.656 55.8639 108.549 51.766 105.454 44.479Z" stroke="black"/>
<path d="M15.9001 44.4789C19.1594 48.1383 18.8427 57.9655 15.6447 63.2001C12.6991 55.8638 12.8059 51.7659 15.9001 44.4789Z" stroke="black"/>
<path d="M95.0465 33.6429C92.917 38.0563 95.9193 47.4191 100.431 51.5747C101.25 43.7116 100.022 39.8005 95.0465 33.6429Z" fill="#BC993D"/>
<path d="M26.2848 33.6432C28.4143 38.0566 25.412 47.4193 20.8999 51.575C20.0814 43.7119 21.3091 39.8008 26.2848 33.6432Z" fill="#BC993D"/>
<path d="M95.0465 33.6429C92.917 38.0563 95.9193 47.4191 100.431 51.5747C101.25 43.7116 100.022 39.8005 95.0465 33.6429Z" stroke="black"/>
<path d="M26.2848 33.6432C28.4143 38.0566 25.412 47.4193 20.8999 51.575C20.0814 43.7119 21.3091 39.8008 26.2848 33.6432Z" stroke="black"/>
</svg>
