<svg width="61" height="49" viewBox="0 0 61 49" fill="none" xmlns="http://www.w3.org/2000/svg">
<rect width="25.9962" height="8.53023" rx="4.26512" transform="matrix(0.857237 -0.514923 0.451285 0.89238 3.59277 17.1938)" fill="#EA4335"/>
<rect width="25.6339" height="9.51461" rx="4.7573" transform="matrix(0.857237 0.514923 -0.518534 0.855057 7.15649 13.5044)" fill="#4285F4"/>
<rect x="0.182556" y="0.681317" width="27.0608" height="8.99306" rx="4.49653" transform="matrix(0.867261 0.497853 -0.50215 0.864781 6.38442 10.4876)" stroke="white"/>
<path d="M5.73804 13.1899L21.3281 4.12578C21.3281 4.12578 24.8595 2.37657 26.9833 5.87499C29.107 9.37341 25.6077 11.9177 25.6077 11.9177L16.5899 17.3243" stroke="white"/>
<rect width="26.5557" height="9.07421" rx="4.53711" transform="matrix(-0.857237 0.514923 -0.451285 -0.89238 58.4478 17.3184)" fill="#FBBC05"/>
<rect width="25.6339" height="9.13233" rx="4.56616" transform="matrix(-0.857237 -0.514923 0.518534 -0.855057 54.8843 21.0078)" fill="#34A835"/>
<path d="M55.771 21.2999L40.181 30.364C40.181 30.364 36.6495 32.1132 34.5258 28.6148C32.4021 25.1163 35.9014 22.572 35.9014 22.572L44.9191 17.1654" stroke="white"/>
<rect x="-0.684695" y="0.183461" width="27.0601" height="8.99297" rx="4.49648" transform="matrix(-0.867253 -0.497867 -0.502136 0.864789 59.8136 14.9173)" stroke="white"/>
<path d="M3.8 46H1.68C1.2 45.56 0.85 45.0367 0.63 44.43C0.41 43.8233 0.3 43.19 0.3 42.53C0.3 41.8633 0.433333 41.2067 0.7 40.56C0.966667 39.9133 1.34 39.3933 1.82 39H4.25V40.2H2.39C2.21667 40.4 2.06667 40.7167 1.94 41.15C1.81333 41.5767 1.75 42.0333 1.75 42.52C1.75 43 1.80667 43.46 1.92 43.9C2.04 44.3333 2.18667 44.6467 2.36 44.84H3.32V42.12H4.64V43.8C4.64 44.72 4.36 45.4533 3.8 46ZM6.78141 44.84H7.68141C7.86807 44.6067 8.01474 44.2667 8.12141 43.82C8.23474 43.3733 8.29141 42.93 8.29141 42.49C8.29141 41.4433 8.09474 40.68 7.70141 40.2H6.78141V44.84ZM5.42141 46V39H8.32141C9.26807 39.84 9.74141 40.98 9.74141 42.42C9.74141 43.8533 9.29807 45.0467 8.41141 46H5.42141ZM11.0126 39H13.4126V40.2H11.4926L11.4626 40.26L13.0626 43.18C13.3892 43.7667 13.5526 44.2133 13.5526 44.52C13.5526 45.1933 13.3292 45.6867 12.8826 46H10.2326V44.84H12.3026L12.3326 44.78L10.5326 41.55C10.2726 41.0833 10.1426 40.7033 10.1426 40.41C10.1426 39.7167 10.4326 39.2467 11.0126 39ZM16.043 44.84H17.803V46H15.263C14.823 45.5867 14.4897 45.0633 14.263 44.43C14.0364 43.7967 13.923 43.1467 13.923 42.48C13.923 41.8067 14.0497 41.16 14.303 40.54C14.5564 39.92 14.933 39.4067 15.433 39H17.803V40.2H16.043C15.863 40.4067 15.7064 40.74 15.573 41.2C15.4464 41.66 15.383 42.1 15.383 42.52C15.383 42.94 15.4464 43.38 15.573 43.84C15.7064 44.3 15.863 44.6333 16.043 44.84ZM20.1382 46V39H21.5082V46H20.1382ZM22.4722 46V39H23.8422V46H22.4722ZM24.8062 46V39H26.1762V46H24.8062ZM28.2702 40.2H26.7602V39H31.1402V40.2H29.6302V46H28.2702V40.2ZM33.3218 46V39H34.6918V41.95H34.7418L35.9918 39H37.4018L35.9418 42.34L37.4718 46H35.9518L34.7618 42.94H34.6918V46H33.3218ZM40.213 43.69H39.143C39.003 43.8633 38.933 44.08 38.933 44.34C38.933 44.6 39.0064 44.8033 39.153 44.95H40.213V43.69ZM38.063 40.89H40.543C40.943 41.13 41.2064 41.4067 41.333 41.72C41.4597 42.0267 41.523 42.4467 41.523 42.98V44.48C41.523 45.0333 41.5364 45.54 41.563 46H40.423L40.243 45.64C39.983 45.88 39.6164 46 39.143 46H38.513C37.9464 45.6267 37.663 45.09 37.663 44.39C37.663 43.6833 37.953 43.1267 38.533 42.72H39.473C39.733 42.72 39.9764 42.8 40.203 42.96V42.46C40.203 42.2 40.0897 42.0267 39.863 41.94H38.063V40.89ZM43.7031 39V46H42.3831V39H43.7031ZM44.5309 43.19V40.89H45.8609V43.2C45.8609 43.78 45.9775 44.2633 46.2109 44.65H46.8009C47.0209 44.27 47.1309 43.7867 47.1309 43.2V40.89H48.4609V43.12C48.4609 43.62 48.3942 44.06 48.2609 44.44C48.1342 44.82 47.9242 45.25 47.6309 45.73L46.9609 46.82C46.8409 47.0267 46.7142 47.18 46.5809 47.28C46.4475 47.38 46.2742 47.4533 46.0609 47.5H44.4809V46.45H45.5609C45.7009 46.41 45.8175 46.34 45.9109 46.24C46.0042 46.14 46.1009 45.9967 46.2009 45.81L46.2609 45.7H45.5709C45.2509 45.44 44.9975 45.09 44.8109 44.65C44.6242 44.2033 44.5309 43.7167 44.5309 43.19ZM51.5509 43.69H50.4809C50.3409 43.8633 50.2709 44.08 50.2709 44.34C50.2709 44.6 50.3443 44.8033 50.4909 44.95H51.5509V43.69ZM49.4009 40.89H51.8809C52.2809 41.13 52.5443 41.4067 52.6709 41.72C52.7976 42.0267 52.8609 42.4467 52.8609 42.98V44.48C52.8609 45.0333 52.8743 45.54 52.9009 46H51.7609L51.5809 45.64C51.3209 45.88 50.9543 46 50.4809 46H49.8509C49.2843 45.6267 49.0009 45.09 49.0009 44.39C49.0009 43.6833 49.2909 43.1267 49.8709 42.72H50.8109C51.0709 42.72 51.3143 42.8 51.5409 42.96V42.46C51.5409 42.2 51.4276 42.0267 51.2009 41.94H49.4009V40.89ZM55.941 40.89H57.001C57.2943 41.2633 57.4943 41.6367 57.601 42.01C57.7077 42.3833 57.761 42.85 57.761 43.41V46H56.431V43.31C56.431 42.6767 56.3443 42.22 56.171 41.94H55.051V46H53.721V40.89H54.761L54.941 41.25C55.0877 41.1167 55.2243 41.0233 55.351 40.97C55.4843 40.9167 55.681 40.89 55.941 40.89ZM58.5843 46V40.89H59.9043V46H58.5843ZM58.5843 39H59.9043V40.35H58.5843V39Z" fill="white"/>
</svg>
