<svg
              width="577"
              height="639"
              viewBox="0 0 577 639"
              fill="none"
              xmlns="http://www.w3.org/2000/svg"
            >
              <rect
                x="548"
                y="46"
                width="19"
                height="585"
                stroke="black"
                stroke-width="2"
              />
              <path
                d="M2.5 2.5H574.5V636.5H2.5V2.5Z"
                stroke="black"
                stroke-width="5"
              />
              <path
                d="M9 46H548V631H9V46Z"
                fill="#193248"
                stroke="black"
                stroke-width="2"
              />
              <path d="M8 7H568V41H8V7Z" fill="black" />
              <path
                d="M555 310.5H562V307.5H555V310.5ZM555 315.5H562V312.5H555V315.5ZM555 321H562V318H555V321ZM546.5 246.5H569.5V368.5H546.5V246.5Z"
                fill="#F4E1B9"
                stroke="black"
                stroke-width="3"
              />
              <path
                d="M504 32H525.5M541.5 16.5L559 32M559 16.5L541.5 32M498 11H530.5V37.5H498V11ZM536 11H564.5V37.5H536V11Z"
                stroke="#F4E1B9"
                stroke-width="2"
              />
              <path
                d="M28.75 30.75V17.25H24.25V15H37.75V17.25H33.25V30.75H28.75ZM46.75 21.75H49V24H46.75V30.75H42.25V19.5H46.75V21.75ZM55.75 19.5V21.75H49V19.5H55.75ZM60.25 30.75V28.5H58V26.25H60.25V24H69.25V21.75H60.25V19.5H71.5V21.75H73.75V30.75H60.25ZM62.5 28.5H69.25V26.25H62.5V28.5ZM78.25 30.75V28.5H76V21.75H78.25V19.5H91.75V21.75H80.5V28.5H91.75V30.75H78.25ZM94 30.75V15H98.5V24H103V21.75H105.25V19.5H109.75V21.75H107.5V24H105.25V26.25H107.5V28.5H109.75V30.75H105.25V28.5H103V26.25H98.5V30.75H94ZM112 30.75V28.5H123.25V26.25H114.25V24H112V21.75H114.25V19.5H125.5V21.75H116.5V24H125.5V26.25H127.75V28.5H125.5V30.75H112ZM134.5 30.75V26.25H139V30.75H134.5ZM154.75 30.75V21.75H150.25V19.5H154.75V15H159.25V19.5H163.75V21.75H159.25V30.75H154.75ZM166 30.75V28.5H168.25V26.25H170.5V24H168.25V21.75H166V19.5H170.5V21.75H172.75V24H175V21.75H177.25V19.5H181.75V21.75H179.5V24H177.25V26.25H179.5V28.5H181.75V30.75H177.25V28.5H175V26.25H172.75V28.5H170.5V30.75H166ZM190.75 30.75V21.75H186.25V19.5H190.75V15H195.25V19.5H199.75V21.75H195.25V30.75H190.75Z"
                fill="#F4E1B9"
              />
            </svg>