<svg width="50" height="49" viewBox="0 0 50 49" fill="none" xmlns="http://www.w3.org/2000/svg">
<path d="M4.86627 11.1605C4.86627 6.03649 8.85882 1.88263 13.7839 1.88263H40.5367C45.4617 1.88263 49.4543 6.03649 49.4543 11.1605V38.9942C49.4543 44.1183 45.4617 48.2721 40.5367 48.2721H13.7839C8.85881 48.2721 4.86627 44.1183 4.86627 38.9942V11.1605Z" fill="url(#paint0_radial_8_241)"/>
<path d="M37.3518 25.7401C37.3518 31.5961 32.7889 36.3434 27.1603 36.3434C21.5316 36.3434 16.9687 31.5961 16.9687 25.7401C16.9687 19.884 21.5316 15.1368 27.1603 15.1368C32.7889 15.1368 37.3518 19.884 37.3518 25.7401Z" fill="url(#paint1_radial_8_241)"/>
<path d="M40.5367 11.1605C40.5367 11.8925 39.9663 12.4859 39.2627 12.4859C38.5591 12.4859 37.9888 11.8925 37.9888 11.1605C37.9888 10.4285 38.5591 9.83512 39.2627 9.83512C39.9663 9.83512 40.5367 10.4285 40.5367 11.1605Z" fill="url(#paint2_radial_8_241)"/>
<path d="M36.0779 9.61421C36.0779 10.3462 35.5075 10.9396 34.8039 10.9396C34.1003 10.9396 33.53 10.3462 33.53 9.61421C33.53 8.8822 34.1003 8.28879 34.8039 8.28879C35.5075 8.28879 36.0779 8.8822 36.0779 9.61421Z" fill="black"/>
<path d="M1.90747 9.61421C1.90747 5.26204 5.28388 1.8363 9.32507 1.8363H36.0779C40.119 1.8363 43.4954 5.26204 43.4954 9.61421V37.4479C43.4954 41.8001 40.119 45.2258 36.0779 45.2258H9.32507C5.28388 45.2258 1.90747 41.8001 1.90747 37.4479V9.61421ZM31.393 24.1938C31.393 29.2779 27.4462 33.2971 22.7015 33.2971C17.9567 33.2971 14.0099 29.2779 14.0099 24.1938C14.0099 19.1096 17.9567 15.0905 22.7015 15.0905C27.4462 15.0905 31.393 19.1096 31.393 24.1938ZM22.7015 36.2971C29.214 36.2971 34.393 30.8217 34.393 24.1938C34.393 17.5658 29.214 12.0905 22.7015 12.0905C16.189 12.0905 11.0099 17.5658 11.0099 24.1938C11.0099 30.8217 16.189 36.2971 22.7015 36.2971ZM34.5779 9.61421C34.5779 9.58551 34.5903 9.54631 34.6233 9.51196C34.6573 9.47657 34.722 9.43962 34.8039 9.43962C34.8859 9.43962 34.9505 9.47657 34.9846 9.51196C35.0176 9.54632 35.03 9.58552 35.03 9.61421C35.03 9.6429 35.0176 9.68209 34.9846 9.71645C34.9505 9.75185 34.8859 9.78879 34.8039 9.78879C34.722 9.78879 34.6573 9.75185 34.6233 9.71645C34.5903 9.6821 34.5779 9.6429 34.5779 9.61421ZM34.8039 12.4396C36.3914 12.4396 37.5779 11.1181 37.5779 9.61421C37.5779 8.11032 36.3914 6.78879 34.8039 6.78879C33.2165 6.78879 32.03 8.11033 32.03 9.61421C32.03 11.1181 33.2165 12.4396 34.8039 12.4396Z" stroke="black" stroke-width="3"/>
<defs>
<radialGradient id="paint0_radial_8_241" cx="0" cy="0" r="1" gradientUnits="userSpaceOnUse" gradientTransform="translate(9.32507 48.2721) rotate(-55.4341) scale(53.0478 58.532)">
<stop stop-color="#FCAF45"/>
<stop offset="0.380108" stop-color="#E2356A"/>
<stop offset="0.380208" stop-color="#E1306C"/>
<stop offset="0.78125" stop-color="#DF306D"/>
<stop offset="1" stop-color="#833AB4"/>
</radialGradient>
<radialGradient id="paint1_radial_8_241" cx="0" cy="0" r="1" gradientUnits="userSpaceOnUse" gradientTransform="translate(9.32507 48.2721) rotate(-55.4341) scale(53.0478 58.532)">
<stop stop-color="#FCAF45"/>
<stop offset="0.380108" stop-color="#E2356A"/>
<stop offset="0.380208" stop-color="#E1306C"/>
<stop offset="0.78125" stop-color="#DF306D"/>
<stop offset="1" stop-color="#833AB4"/>
</radialGradient>
<radialGradient id="paint2_radial_8_241" cx="0" cy="0" r="1" gradientUnits="userSpaceOnUse" gradientTransform="translate(9.32507 48.2721) rotate(-55.4341) scale(53.0478 58.532)">
<stop stop-color="#FCAF45"/>
<stop offset="0.380108" stop-color="#E2356A"/>
<stop offset="0.380208" stop-color="#E1306C"/>
<stop offset="0.78125" stop-color="#DF306D"/>
<stop offset="1" stop-color="#833AB4"/>
</radialGradient>
</defs>
</svg>
