<svg width="29" height="30" viewBox="0 0 29 30" fill="none" xmlns="http://www.w3.org/2000/svg">
<path d="M0.952515 6.42591C0.952515 3.29173 3.3946 0.750977 6.40707 0.750977H22.7707C25.7832 0.750977 28.2253 3.29173 28.2253 6.42591V23.4507C28.2253 26.5849 25.7832 29.1257 22.7707 29.1257H6.40707C3.3946 29.1257 0.952515 26.5849 0.952515 23.4507V6.42591Z" fill="url(#paint0_radial_145_15)"/>
<path d="M20.8227 15.3437C20.8227 18.9256 18.0317 21.8293 14.5889 21.8293C11.1461 21.8293 8.35512 18.9256 8.35512 15.3437C8.35512 11.7618 11.1461 8.85803 14.5889 8.85803C18.0317 8.85803 20.8227 11.7618 20.8227 15.3437Z" fill="url(#paint1_radial_145_15)"/>
<path d="M22.7707 6.42591C22.7707 6.87365 22.4219 7.23662 21.9915 7.23662C21.5611 7.23662 21.2123 6.87365 21.2123 6.42591C21.2123 5.97817 21.5611 5.61521 21.9915 5.61521C22.4219 5.61521 22.7707 5.97817 22.7707 6.42591Z" fill="url(#paint2_radial_145_15)"/>
<path d="M22.7707 6.42591C22.7707 6.87366 22.4219 7.23662 21.9915 7.23662C21.5611 7.23662 21.2123 6.87366 21.2123 6.42591C21.2123 5.97817 21.5611 5.61521 21.9915 5.61521C22.4219 5.61521 22.7707 5.97817 22.7707 6.42591Z" fill="black"/>
<path d="M1.45251 6.42591C1.45251 3.54902 3.68922 1.25098 6.40707 1.25098H22.7707C25.4886 1.25098 27.7253 3.54903 27.7253 6.42591V23.4507C27.7253 26.3276 25.4886 28.6257 22.7707 28.6257H6.40707C3.68922 28.6257 1.45251 26.3276 1.45251 23.4507V6.42591ZM20.3227 15.3437C20.3227 18.6683 17.7371 21.3293 14.5889 21.3293C11.4407 21.3293 8.85512 18.6683 8.85512 15.3437C8.85512 12.019 11.4407 9.35803 14.5889 9.35803C17.7371 9.35803 20.3227 12.019 20.3227 15.3437ZM14.5889 22.3293C18.3263 22.3293 21.3227 19.1829 21.3227 15.3437C21.3227 11.5045 18.3263 8.35803 14.5889 8.35803C10.8515 8.35803 7.85512 11.5045 7.85512 15.3437C7.85512 19.1829 10.8515 22.3293 14.5889 22.3293ZM22.2707 6.42591C22.2707 6.61636 22.1272 6.73662 21.9915 6.73662C21.8558 6.73662 21.7123 6.61636 21.7123 6.42591C21.7123 6.23547 21.8558 6.11521 21.9915 6.11521C22.1272 6.11521 22.2707 6.23547 22.2707 6.42591ZM21.9915 7.73662C22.7165 7.73662 23.2707 7.13095 23.2707 6.42591C23.2707 5.72088 22.7165 5.11521 21.9915 5.11521C21.2665 5.11521 20.7123 5.72088 20.7123 6.42591C20.7123 7.13095 21.2665 7.73662 21.9915 7.73662Z" stroke="black"/>
<defs>
<radialGradient id="paint0_radial_145_15" cx="0" cy="0" r="1" gradientUnits="userSpaceOnUse" gradientTransform="translate(3.67979 29.1257) rotate(-55.4341) scale(32.4473 35.8018)">
<stop stop-color="#FCAF45"/>
<stop offset="0.380108" stop-color="#E2356A"/>
<stop offset="0.380208" stop-color="#E1306C"/>
<stop offset="0.78125" stop-color="#DF306D"/>
<stop offset="1" stop-color="#833AB4"/>
</radialGradient>
<radialGradient id="paint1_radial_145_15" cx="0" cy="0" r="1" gradientUnits="userSpaceOnUse" gradientTransform="translate(3.67979 29.1257) rotate(-55.4341) scale(32.4473 35.8018)">
<stop stop-color="#FCAF45"/>
<stop offset="0.380108" stop-color="#E2356A"/>
<stop offset="0.380208" stop-color="#E1306C"/>
<stop offset="0.78125" stop-color="#DF306D"/>
<stop offset="1" stop-color="#833AB4"/>
</radialGradient>
<radialGradient id="paint2_radial_145_15" cx="0" cy="0" r="1" gradientUnits="userSpaceOnUse" gradientTransform="translate(3.67979 29.1257) rotate(-55.4341) scale(32.4473 35.8018)">
<stop stop-color="#FCAF45"/>
<stop offset="0.380108" stop-color="#E2356A"/>
<stop offset="0.380208" stop-color="#E1306C"/>
<stop offset="0.78125" stop-color="#DF306D"/>
<stop offset="1" stop-color="#833AB4"/>
</radialGradient>
</defs>
</svg>
