<svg width="148" height="148" viewBox="0 0 148 148" fill="none" xmlns="http://www.w3.org/2000/svg">
<circle cx="74" cy="74" r="74" fill="url(#paint0_linear_1602_177)"/>
<mask id="mask0_1602_177" style="mask-type:alpha" maskUnits="userSpaceOnUse" x="0" y="0" width="148" height="148">
<circle cx="74" cy="74" r="74" fill="#D9D9D9"/>
</mask>
<g mask="url(#mask0_1602_177)">
<path d="M53.0276 126.857C33.5054 116.73 24.38 113.428 10.7419 111L8.18433 119.014L20.4608 142.373L84.2304 157.889L110.829 138.281C107.76 134.871 99.0645 139.36 96.1659 138.281C65.4747 126.857 61.3825 131.191 53.0276 126.857Z" fill="url(#paint1_linear_1602_177)"/>
<path d="M109.806 119.014C117.302 124.717 121.454 126.522 128.733 126.516L135.383 119.866L116.456 115.604L80.3088 108.613L69.3963 112.364C85.2294 118.238 93.5468 121.26 96.848 121.06C104.35 120.719 107.419 117.65 109.806 119.014Z" fill="#923446"/>
<path d="M21.4839 83.8895C25.1742 86.3007 26.6114 87.7752 28.4747 90.5393L1.8756 83.8895L-4.77417 70.4194C4.31738 75.9873 9.14888 79.1792 21.4839 83.8895Z" fill="#923446"/>
<path d="M136.917 35.295C116.627 34.4424 73.8562 25.7353 38.023 9.37793L31.3732 10.9125L15.6866 24.7236C65.8156 39.3871 110.829 49.9586 147.659 54.2212L141.18 36.1475L136.917 35.295Z" fill="url(#paint2_linear_1602_177)"/>
<path d="M149.535 72.1245V59.848C144.34 59.848 139.043 59.6758 133.677 59.3452C132.389 63.2887 130.613 65.5098 123.958 69.5035C133.028 69.1932 140.354 71.0267 149.535 72.1245Z" fill="url(#paint3_linear_1602_177)"/>
<path d="M12.447 29.6683L7.33175 38.5346C19.3777 44.7285 30.9551 49.6964 44.6728 53.9711C50.8968 56.3152 57.5896 58.2662 65.1336 60.0165C82.8851 56.6024 90.9752 55.4627 100.429 55.4903C69.0266 50.2645 37.6104 40.8025 12.447 29.6683Z" fill="url(#paint4_linear_1602_177)"/>
<path d="M71.4424 112.383C84.5714 111.55 104.35 120.378 134.359 120.378L139.645 111.682C122.9 111.904 98.0414 108.101 87.6405 105.714C77.2396 103.327 75.023 91.3918 58.1428 89.8572C68.8435 95.0102 72.4457 97.9514 72.8064 103.327C58.1099 104.627 51.1744 103.399 41.9447 96.507C25.9453 87.73 16.1883 84.1816 -2.04613 79.2858L-5.28577 92.9263C-5.28577 92.9263 9.54834 102.304 32.3963 103.327C55.2442 104.35 55.2442 108.442 55.2442 108.442C53.5258 109.985 51.2586 109.822 44.6728 107.59C54.3917 116.286 58.3133 113.217 71.4424 112.383Z" fill="url(#paint5_linear_1602_177)"/>
<path d="M53.7096 95.3134C60.3594 93.4378 65.0232 93.7626 66.1566 99.5761C61.7235 106.396 47.0599 97.189 53.7096 95.3134Z" fill="url(#paint6_linear_1602_177)"/>
<path d="M31.5437 123.788C29.4449 120.266 24.7235 119.696 25.4055 126.005C28.1336 130.779 32.3807 130.335 33.2842 129.926C34.1392 129.54 33.2842 127.71 31.5437 123.788Z" fill="url(#paint7_linear_1602_177)"/>
<path d="M106.567 56.4575C94.4608 58.3134 86.0284 58.5037 72.2949 61.5695C85.0341 64.1577 100.168 66.3948 119.184 69.0293C125.966 65.8595 128.881 63.8053 130.949 59.164C122.925 58.5926 114.76 57.6752 106.567 56.4575Z" fill="url(#paint8_linear_1602_177)"/>
<path d="M98.8941 98.0415L145.442 100.599L143.737 106.737C112.023 103.327 97.189 99.9171 79.9678 99.4056C77.9577 94.8037 73.6782 92.1408 62.5761 87.2996C70.9309 85.765 79.9678 98.0415 98.8941 98.0415Z" fill="url(#paint9_linear_1602_177)"/>
<path d="M100.429 82.0139L149.364 89.3457L151.24 84.9125L88.3226 74.8526H68.8848L30.3503 63.5991L0.511562 49.7881L-1.36401 54.9033L21.9954 63.5991L61.0415 76.5577L75.1936 79.7973L83.7189 77.9217L100.429 82.0139Z" fill="url(#paint10_linear_1602_177)"/>
<path d="M126.516 31.3733C111.682 35.1244 98.212 24.553 70.5899 21.4839C94.5088 28.1462 116.286 35.636 130.949 39.5576L121.23 33.9309L126.516 31.3733Z" fill="#923240"/>
<path d="M54.7328 34.7834C49.7881 34.4424 43.1383 26.2581 21.8249 21.4839L16.7097 24.7235C22.494 28.2039 26.4192 29.9887 34.1014 32.0553C53.1014 35.4424 63.5393 37.6873 81.6728 42.4562C71.7144 37.1925 67.8618 34.1014 54.7328 34.7834Z" fill="#923240"/>
<path d="M118.332 72.977C133.646 72.7273 141.015 73.3215 148 78.0922L149.364 82.5254C127.375 79.7518 115.059 77.5663 93.0968 72.977C79.1152 70.0553 49.2765 69.7373 49.2765 65.8157C49.3729 63.9798 41.4542 62.8581 28.4747 60.871C24.7976 60.3968 22.5383 59.5309 18.0738 56.6083C12.9959 53.3496 12.6175 56.6083 1.02307 51.3226L3.06915 46.0369C6.31562 48.5961 9.37881 49.8131 18.5853 51.3226C28.9862 55.4148 31.2028 61.212 38.7051 62.0645C52.1751 62.0645 63.2581 67.3502 70.0784 67.3502C78.5778 67.7274 83.3947 68.2371 92.0738 69.7373C102.36 71.9084 108.117 72.8364 118.332 72.977Z" fill="#923240"/>
<path d="M126.516 31.3733C111.682 35.1244 98.212 24.553 70.5899 21.4839C94.5088 28.1462 116.286 35.636 130.949 39.5576L121.23 33.9309L126.516 31.3733Z" stroke="#144692"/>
<path d="M54.7328 34.7834C49.7881 34.4424 43.1383 26.2581 21.8249 21.4839L16.7097 24.7235C22.494 28.2039 26.4192 29.9887 34.1014 32.0553C53.1014 35.4424 63.5393 37.6873 81.6728 42.4562C71.7144 37.1925 67.8618 34.1014 54.7328 34.7834Z" stroke="#144692"/>
<path d="M118.332 72.977C133.646 72.7273 141.015 73.3215 148 78.0922L149.364 82.5254C127.375 79.7518 115.059 77.5663 93.0968 72.977C79.1152 70.0553 49.2765 69.7373 49.2765 65.8157C49.3729 63.9798 41.4542 62.8581 28.4747 60.871C24.7976 60.3968 22.5383 59.5309 18.0738 56.6083C12.9959 53.3496 12.6175 56.6083 1.02307 51.3226L3.06915 46.0369C6.31562 48.5961 9.37881 49.8131 18.5853 51.3226C28.9862 55.4148 31.2028 61.212 38.7051 62.0645C52.1751 62.0645 63.2581 67.3502 70.0784 67.3502C78.5778 67.7274 83.3947 68.2371 92.0738 69.7373C102.36 71.9084 108.117 72.8364 118.332 72.977Z" stroke="#144692"/>
<path d="M66.4976 147.829C-48.424 80.1381 55.9262 -28.1338 131.972 27.622L124.64 1.53441L57.4607 -10.0601L-2.04619 27.622L-16.3688 120.719L27.963 147.829H66.4976Z" fill="#831F37" fill-opacity="0.26"/>
</g>
<defs>
<linearGradient id="paint0_linear_1602_177" x1="-1.36406" y1="74" x2="66.8387" y2="74" gradientUnits="userSpaceOnUse">
<stop stop-color="#BB2A4B"/>
<stop offset="0.997353" stop-color="#DA5254"/>
</linearGradient>
<linearGradient id="paint1_linear_1602_177" x1="27.2811" y1="124.3" x2="92.4147" y2="144.078" gradientUnits="userSpaceOnUse">
<stop stop-color="#A4293E"/>
<stop offset="1" stop-color="#A9343C"/>
</linearGradient>
<linearGradient id="paint2_linear_1602_177" x1="51.3225" y1="25.9171" x2="124.811" y2="51.3226" gradientUnits="userSpaceOnUse">
<stop stop-color="#E9A17B"/>
<stop offset="1" stop-color="#F9D1A0"/>
</linearGradient>
<linearGradient id="paint3_linear_1602_177" x1="51.3225" y1="25.9171" x2="124.811" y2="51.3226" gradientUnits="userSpaceOnUse">
<stop stop-color="#E9A17B"/>
<stop offset="1" stop-color="#F9D1A0"/>
</linearGradient>
<linearGradient id="paint4_linear_1602_177" x1="51.3225" y1="25.9171" x2="124.811" y2="51.3226" gradientUnits="userSpaceOnUse">
<stop stop-color="#E9A17B"/>
<stop offset="1" stop-color="#F9D1A0"/>
</linearGradient>
<linearGradient id="paint5_linear_1602_177" x1="51.3225" y1="25.9171" x2="124.811" y2="51.3226" gradientUnits="userSpaceOnUse">
<stop stop-color="#E9A17B"/>
<stop offset="1" stop-color="#F9D1A0"/>
</linearGradient>
<linearGradient id="paint6_linear_1602_177" x1="51.3225" y1="25.9171" x2="124.811" y2="51.3226" gradientUnits="userSpaceOnUse">
<stop stop-color="#E9A17B"/>
<stop offset="1" stop-color="#F9D1A0"/>
</linearGradient>
<linearGradient id="paint7_linear_1602_177" x1="51.3225" y1="25.9171" x2="124.811" y2="51.3226" gradientUnits="userSpaceOnUse">
<stop stop-color="#E9A17B"/>
<stop offset="1" stop-color="#F9D1A0"/>
</linearGradient>
<linearGradient id="paint8_linear_1602_177" x1="51.3225" y1="25.9171" x2="124.811" y2="51.3226" gradientUnits="userSpaceOnUse">
<stop stop-color="#E9A17B"/>
<stop offset="1" stop-color="#F9D1A0"/>
</linearGradient>
<linearGradient id="paint9_linear_1602_177" x1="49.447" y1="90.1982" x2="134.701" y2="71.7835" gradientUnits="userSpaceOnUse">
<stop stop-color="#A01F45"/>
<stop offset="1" stop-color="#AC3839"/>
</linearGradient>
<linearGradient id="paint10_linear_1602_177" x1="49.447" y1="90.1982" x2="134.701" y2="71.7835" gradientUnits="userSpaceOnUse">
<stop stop-color="#A01F45"/>
<stop offset="1" stop-color="#AC3839"/>
</linearGradient>
</defs>
</svg>
