<svg width="148" height="148" viewBox="0 0 148 148" fill="none" xmlns="http://www.w3.org/2000/svg">
<circle cx="74" cy="74" r="74" fill="url(#paint0_linear_1602_177)"/>
<mask id="mask0_1602_177" style="mask-type:alpha" maskUnits="userSpaceOnUse" x="0" y="0" width="148" height="148">
<circle cx="74" cy="74" r="74" fill="#D9D9D9"/>
</mask>
<g mask="url(#mask0_1602_177)">
<path d="M53.0276 126.857C33.5054 116.73 24.38 113.428 10.7419 111L8.18433 119.014L20.4608 142.373L84.2304 157.889L110.829 138.281C107.76 134.871 99.0645 139.36 96.1659 138.281C65.4747 126.857 61.3825 131.191 53.0276 126.857Z" fill="url(#paint1_linear_1602_177)"/>
<path d="M109.806 119.014C117.302 124.717 121.454 126.522 128.733 126.516L135.383 119.866L116.456 115.604L80.3088 108.613L69.3963 112.364C85.2294 118.238 93.5468 121.26 96.848 121.06C104.35 120.719 107.419 117.65 109.806 119.014Z" fill="#923446"/>
<path d="M21.4839 83.8895C25.1742 86.3007 26.6114 87.7752 28.4747 90.5393L1.8756 83.8895L-4.77417 70.4194C4.31738 75.9873 9.14888 79.1792 21.4839 83.8895Z" fill="#923446"/>
<path d="M136.917 35.295C116.627 34.4424 73.8563 25.7353 38.0231 9.37793L31.3733 10.9125L15.6867 24.7236C65.8157 39.3871 110.83 49.9586 147.659 54.2212L141.18 36.1475L136.917 35.295Z" fill="url(#paint2_linear_1602_177)"/>
<path d="M149.535 72.1245V59.848C144.341 59.848 139.044 59.6758 133.678 59.3452C132.389 63.2887 130.614 65.5098 123.959 69.5035C133.028 69.1932 140.354 71.0267 149.535 72.1245Z" fill="url(#paint3_linear_1602_177)"/>
<path d="M12.4471 29.6683L7.33187 38.5346C19.3778 44.7285 30.9552 49.6964 44.6729 53.9711C50.8969 56.3152 57.5897 58.2662 65.1337 60.0165C82.8852 56.6024 90.9753 55.4627 100.429 55.4903C69.0267 50.2645 37.6105 40.8025 12.4471 29.6683Z" fill="url(#paint4_linear_1602_177)"/>
<path d="M71.4425 112.383C84.5715 111.55 104.35 120.378 134.36 120.378L139.645 111.682C122.9 111.904 98.0415 108.101 87.6406 105.714C77.2397 103.327 75.0231 91.3918 58.1429 89.8572C68.8436 95.0102 72.4458 97.9514 72.8065 103.327C58.11 104.627 51.1745 103.399 41.9448 96.507C25.9454 87.73 16.1885 84.1816 -2.04601 79.2858L-5.28564 92.9263C-5.28564 92.9263 9.54846 102.304 32.3964 103.327C55.2443 104.35 55.2443 108.442 55.2443 108.442C53.5259 109.985 51.2587 109.822 44.6729 107.59C54.3918 116.286 58.3134 113.217 71.4425 112.383Z" fill="url(#paint5_linear_1602_177)"/>
<path d="M53.7098 95.3134C60.3595 93.4378 65.0233 93.7626 66.1568 99.5761C61.7236 106.396 47.06 97.189 53.7098 95.3134Z" fill="url(#paint6_linear_1602_177)"/>
<path d="M31.5438 123.788C29.445 120.266 24.7236 119.696 25.4056 126.005C28.1337 130.779 32.3808 130.335 33.2843 129.926C34.1393 129.54 33.2843 127.71 31.5438 123.788Z" fill="url(#paint7_linear_1602_177)"/>
<path d="M106.567 56.4575C94.4609 58.3134 86.0286 58.5037 72.295 61.5695C85.0343 64.1577 100.168 66.3948 119.184 69.0293C125.966 65.8595 128.881 63.8053 130.949 59.164C122.925 58.5926 114.76 57.6752 106.567 56.4575Z" fill="url(#paint8_linear_1602_177)"/>
<path d="M98.8941 98.0415L145.442 100.599L143.737 106.737C112.023 103.327 97.189 99.9171 79.9678 99.4056C77.9577 94.8037 73.6782 92.1408 62.5761 87.2996C70.9309 85.765 79.9678 98.0415 98.8941 98.0415Z" fill="url(#paint9_linear_1602_177)"/>
<path d="M100.429 82.0139L149.364 89.3457L151.24 84.9125L88.3226 74.8526H68.8848L30.3503 63.5991L0.511562 49.7881L-1.36401 54.9033L21.9954 63.5991L61.0415 76.5577L75.1936 79.7973L83.7189 77.9217L100.429 82.0139Z" fill="url(#paint10_linear_1602_177)"/>
<path d="M126.516 31.3733C111.682 35.1244 98.2121 24.553 70.59 21.4839C94.5089 28.1462 116.286 35.636 130.949 39.5576L121.231 33.9309L126.516 31.3733Z" fill="#923240"/>
<path d="M54.7329 34.7834C49.7882 34.4424 43.1384 26.2581 21.825 21.4839L16.7098 24.7235C22.4942 28.2039 26.4193 29.9887 34.1015 32.0553C53.1016 35.4424 63.5394 37.6873 81.673 42.4562C71.7145 37.1925 67.8619 34.1014 54.7329 34.7834Z" fill="#923240"/>
<path d="M118.332 72.977C133.646 72.7273 141.015 73.3215 148 78.0922L149.364 82.5254C127.375 79.7518 115.059 77.5663 93.0969 72.977C79.1154 70.0553 49.2767 69.7373 49.2767 65.8157C49.373 63.9798 41.4543 62.8581 28.4748 60.871C24.7978 60.3968 22.5384 59.5309 18.0739 56.6083C12.996 53.3496 12.6177 56.6083 1.02319 51.3226L3.06928 46.0369C6.31574 48.5961 9.37894 49.8131 18.5854 51.3226C28.9863 55.4148 31.2029 61.212 38.7052 62.0645C52.1753 62.0645 63.2582 67.3502 70.0785 67.3502C78.5779 67.7274 83.3949 68.2371 92.0739 69.7373C102.361 71.9084 108.117 72.8364 118.332 72.977Z" fill="#923240"/>
<path d="M66.4978 147.829C-48.4238 80.1381 55.9263 -28.1338 131.972 27.622L124.641 1.53441L57.4608 -10.0601L-2.04607 27.622L-16.3687 120.719L27.9631 147.829H66.4978Z" fill="#831F37" fill-opacity="0.26"/>
</g>
<defs>
<linearGradient id="paint0_linear_1602_177" x1="-1.36406" y1="74" x2="66.8387" y2="74" gradientUnits="userSpaceOnUse">
<stop stop-color="#BB2A4B"/>
<stop offset="0.997353" stop-color="#DA5254"/>
</linearGradient>
<linearGradient id="paint1_linear_1602_177" x1="27.2811" y1="124.3" x2="92.4147" y2="144.078" gradientUnits="userSpaceOnUse">
<stop stop-color="#A4293E"/>
<stop offset="1" stop-color="#A9343C"/>
</linearGradient>
<linearGradient id="paint2_linear_1602_177" x1="51.3227" y1="25.9171" x2="124.811" y2="51.3226" gradientUnits="userSpaceOnUse">
<stop stop-color="#E9A17B"/>
<stop offset="1" stop-color="#F9D1A0"/>
</linearGradient>
<linearGradient id="paint3_linear_1602_177" x1="51.3227" y1="25.9171" x2="124.811" y2="51.3226" gradientUnits="userSpaceOnUse">
<stop stop-color="#E9A17B"/>
<stop offset="1" stop-color="#F9D1A0"/>
</linearGradient>
<linearGradient id="paint4_linear_1602_177" x1="51.3227" y1="25.9171" x2="124.811" y2="51.3226" gradientUnits="userSpaceOnUse">
<stop stop-color="#E9A17B"/>
<stop offset="1" stop-color="#F9D1A0"/>
</linearGradient>
<linearGradient id="paint5_linear_1602_177" x1="51.3227" y1="25.9171" x2="124.811" y2="51.3226" gradientUnits="userSpaceOnUse">
<stop stop-color="#E9A17B"/>
<stop offset="1" stop-color="#F9D1A0"/>
</linearGradient>
<linearGradient id="paint6_linear_1602_177" x1="51.3227" y1="25.9171" x2="124.811" y2="51.3226" gradientUnits="userSpaceOnUse">
<stop stop-color="#E9A17B"/>
<stop offset="1" stop-color="#F9D1A0"/>
</linearGradient>
<linearGradient id="paint7_linear_1602_177" x1="51.3227" y1="25.9171" x2="124.811" y2="51.3226" gradientUnits="userSpaceOnUse">
<stop stop-color="#E9A17B"/>
<stop offset="1" stop-color="#F9D1A0"/>
</linearGradient>
<linearGradient id="paint8_linear_1602_177" x1="51.3227" y1="25.9171" x2="124.811" y2="51.3226" gradientUnits="userSpaceOnUse">
<stop stop-color="#E9A17B"/>
<stop offset="1" stop-color="#F9D1A0"/>
</linearGradient>
<linearGradient id="paint9_linear_1602_177" x1="49.447" y1="90.1982" x2="134.701" y2="71.7835" gradientUnits="userSpaceOnUse">
<stop stop-color="#A01F45"/>
<stop offset="1" stop-color="#AC3839"/>
</linearGradient>
<linearGradient id="paint10_linear_1602_177" x1="49.447" y1="90.1982" x2="134.701" y2="71.7835" gradientUnits="userSpaceOnUse">
<stop stop-color="#A01F45"/>
<stop offset="1" stop-color="#AC3839"/>
</linearGradient>
</defs>
</svg>
