<svg width="100" height="99" viewBox="0 0 100 99" fill="none" xmlns="http://www.w3.org/2000/svg">
<ellipse cx="50" cy="49.0099" rx="50" ry="49.0099" fill="#DDB560"/>
<mask id="mask0_1646_56" style="mask-type:alpha" maskUnits="userSpaceOnUse" x="0" y="0" width="100" height="99">
<ellipse cx="50" cy="49.0099" rx="50" ry="49.0099" fill="#DDB560"/>
</mask>
<g mask="url(#mask0_1646_56)">
<path d="M56.9312 40.5939C91.0896 26.7325 83.1689 7.42555 50.0005 -0.000188351L64.3565 -4.95068L102.97 22.7721L109.406 77.7226L67.8218 113.366L-3.46533 97.0295L1.50204e-05 52.9701C6.43566 84.1582 38.9786 92.2068 38.6144 69.8018C36.6337 51.98 45.5543 44.5689 56.9312 40.5939Z" fill="#C8955C"/>
<path d="M70.7922 25.7426C85.1486 14.3564 72.7724 1.9802 50.9902 0H75.2476L106.436 22.2772L98.515 86.1386L49.01 104.455L30.1981 94.0594C78.713 98.0198 90.5942 54.4554 70.7922 25.7426Z" fill="#AF8054"/>
<path d="M56.4357 97.5245C114.852 82.178 105.941 14.3562 64.8515 1.97998H95.0495L109.901 34.1582L90.099 94.5542L60.3961 103.465L56.4357 97.5245Z" fill="#E3CE9F"/>
</g>
<path d="M22.5907 9.04793C0.00546813 26.0985 -1.65119 43.986 5.03244 65.0018C6.23476 68.7823 6.83591 70.6725 7.47023 70.7524C7.68816 70.7798 7.92858 70.7282 8.11607 70.6138C8.66179 70.2807 8.4316 68.2851 7.97123 64.2938C7.94929 64.1036 7.93832 64.0084 7.94695 63.9081C7.9501 63.8716 7.95668 63.8266 7.96414 63.7907C7.9846 63.6921 8.0187 63.6126 8.08689 63.4537C10.5848 57.6329 15.5508 60.1912 19.6181 67.0143L19.6181 67.0143C19.7153 67.1774 19.7639 67.259 19.8242 67.3277C19.8845 67.3965 19.9512 67.4492 20.0846 67.5545C26.6429 72.7336 33.4685 70.7551 27.8622 65.9593L27.8621 65.9592C27.7973 65.9037 27.7649 65.876 27.727 65.8493C27.6892 65.8226 27.6496 65.7998 27.5704 65.7542C24.1417 63.7796 20.3001 61.0092 24.2573 55.9405C26.7033 52.4647 33.5792 53.6767 43.7673 55.1273C44.8226 55.2775 45.3503 55.3526 45.6949 55.0536C46.0395 54.7546 46.0395 54.2206 46.0395 53.1526V50.862C46.0395 50.4427 46.0395 50.2331 46.1155 50.0494C46.1915 49.8657 46.348 49.7091 46.6609 49.3959C53.9566 42.0927 52.7475 35.4491 45.809 36.4331C44.4417 36.627 43.758 36.724 43.4136 36.4249C43.0692 36.1259 43.0692 35.5185 43.0692 34.3036V32.1781C41.5505 20.2195 43.8939 16.8336 54.9504 17.8217C63.9224 18.4519 65.3098 23.6869 64.8146 33.7241C64.6784 36.4856 64.6102 37.8663 65.3636 38.0896C66.117 38.3128 66.7745 37.1825 68.0895 34.922C69.5343 32.4381 70.1339 30.3494 70.5605 27.7786C70.6858 27.0238 70.7484 26.6464 70.9959 26.4146C71.2434 26.1829 71.6099 26.1466 72.3429 26.074C77.2678 25.5863 80.5082 25.6187 83.8618 26.8976C85.4261 27.4942 86.2083 27.7925 86.6661 27.3415C87.1238 26.8905 86.9152 26.3181 86.498 25.1733C86.1928 24.3356 85.533 23.6662 84.2459 23.0365C83.9998 22.9161 83.8768 22.856 83.7278 22.8326C83.5788 22.8092 83.3959 22.8357 83.0301 22.8887C74.6542 24.1014 72.6169 11.0733 66.3367 8.91079C49.3943 3.0769 39.8613 1.29846 22.9801 8.81815L22.9801 8.81816C22.8767 8.86421 22.825 8.88724 22.7759 8.91618C22.7269 8.94511 22.6815 8.97938 22.5907 9.04791L22.5907 9.04793Z" fill="#865625"/>
<path d="M64.5192 50.8722C62.285 50.0384 61.5886 48.8502 62.2165 45.3608C62.2875 44.9663 62.323 44.769 62.4506 44.588C62.5782 44.4069 62.7439 44.3119 63.0751 44.1219C64.9857 43.0258 66.2225 43.1547 67.9962 45.5842C68.1525 45.7983 68.2307 45.9053 68.2797 46.048C68.3288 46.1908 68.333 46.3257 68.3415 46.5957V46.5957C68.4456 49.8962 67.631 50.8462 65.2037 50.9769C65.0384 50.9858 64.9557 50.9902 64.8537 50.9746C64.7518 50.959 64.6743 50.9301 64.5192 50.8722Z" fill="#865625"/>
<path d="M32.6732 9.90088C18.5907 11.3403 6.93065 27.7227 5.94055 42.0791C6.93065 44.5543 10.891 42.0791 11.8811 38.7034C13.3663 35.6435 20.0265 40.8798 22.2772 37.1286C29.7029 17.3266 32.6732 27.7227 34.6534 24.2573C40.9479 15.4489 39.4971 12.7674 32.6732 9.90088Z" fill="#CB864F"/>
<path d="M20.792 45.5444C22.2772 41.089 28.7128 37.1286 32.1782 38.7034C25.3574 47.8879 23.2841 48.228 20.792 45.5444Z" fill="#CB864F"/>
</svg>
