<svg width="424" height="498" viewBox="0 0 424 498" fill="none" xmlns="http://www.w3.org/2000/svg">
<path d="M206.503 32.6922L285.194 142.863L282.158 153.888L232.945 150.372L192.281 105.872L190.684 33.8104L206.503 32.6922Z" fill="#984A32" stroke="black"/>
<path d="M287.112 37.3267C301.972 18.153 316.192 7.92713 320.426 43.0793M194.838 38.6037C196.001 38.9236 197.098 39.272 198.135 39.6533M198.135 39.6533C208.466 43.452 212.886 50.5168 218.793 65.2123C218.067 65.1351 217.325 65.0275 216.568 64.8882C213.881 71.3676 211.596 77.1736 209.747 82.3877C196.756 70.0439 190.46 62.6158 198.135 39.6533Z" stroke="#B96037" stroke-width="0.3"/>
<path d="M155.291 183.046C156.264 194.944 149.467 200.617 143.626 204.696C137.785 208.776 134.119 227.625 135.868 235.619C141.232 245.646 147.033 256.191 151.098 267.377C160.155 272.082 168.041 273.924 179.476 272.867C168.857 301.11 159.968 324.012 154.679 344.345C137.658 357.601 128.03 358.498 115.471 347.742L114.932 347.023C101.568 354.826 90.6388 353.383 85.5439 341.069C39.4993 323.106 4.61568 246.478 22.1485 200.515C39.6814 154.552 36.8128 157.719 40.2484 141.102C46.3453 145.214 48.773 150.087 50.9534 164.35C54.622 128.537 82.3013 103.216 108.45 114.849C134.6 126.483 157.649 143.259 147.941 191.515L147.859 192.663C153.01 189.303 155.291 183.046 155.291 183.046Z" fill="url(#paint0_linear_1365_93)"/>
<path d="M115.423 347.701C115.439 347.715 115.455 347.728 115.471 347.742M120.217 343.546C118.419 344.857 116.655 346.017 114.932 347.023M136.916 204.217C136.916 204.217 139.712 196.548 146.103 193.632C146.722 193.349 147.307 193.023 147.859 192.663M147.859 192.663C153.01 189.303 155.291 183.046 155.291 183.046C156.264 194.944 149.467 200.617 143.626 204.696C137.785 208.776 134.119 227.625 135.868 235.619C141.232 245.646 147.033 256.191 151.098 267.377C160.155 272.082 168.041 273.924 179.476 272.867C168.857 301.11 159.968 324.012 154.679 344.345C137.658 357.601 128.03 358.498 115.471 347.742M147.859 192.663L147.941 191.515C157.649 143.259 134.6 126.483 108.45 114.849C82.3013 103.216 54.622 128.537 50.9534 164.35C48.773 150.087 46.3453 145.214 40.2484 141.102C36.8128 157.719 39.6814 154.552 22.1485 200.515C4.61568 246.478 39.4993 323.106 85.5439 341.069C90.6388 353.383 101.568 354.826 114.932 347.023M115.471 347.742L114.932 347.023" stroke="black" stroke-width="1.5"/>
<path d="M113.827 165.47C132.111 169.561 140.732 173.802 146.742 192.553L149.059 191.594C150.799 191.03 152.156 189.206 155.016 185.269C155.91 193.202 149.28 200.859 141.75 205.587L141.704 205.665C140.849 207.108 140.664 207.421 138.112 212.416L138.034 204.297C126.618 185.833 117.487 181.647 98.0885 181.208C72.4874 163.453 58.3687 163.29 29.4622 181.926C36.1093 166.947 37.6619 157.972 40.248 141.102C47.2128 147.385 49.4258 152.357 51.033 163.232L52.7108 155.482C69.8077 136.469 94.4141 138.227 113.827 165.47Z" fill="url(#paint1_linear_1365_93)"/>
<path d="M70.6855 218.596C117.901 202.859 117.167 236.581 141.134 247.287L146.004 256.299C113.583 229.537 98.5275 229.236 74.1204 249.195C49.0312 253.671 41.9681 265.006 36.0918 293.693C29.1532 279.814 25.7777 271.823 21.8716 256.704C28.9558 224.779 39.2149 215.828 70.6855 218.596Z" fill="url(#paint2_linear_1365_93)"/>
<path d="M142.106 351.855C96.6488 311.51 130.009 310.591 173.151 273.203L176.341 272.643L170.408 289.547C137.514 315.031 130.237 328.005 152.732 344.745L142.106 351.855Z" fill="url(#paint3_linear_1365_93)"/>
<path d="M94.5721 277.636C99.1288 261.851 110.168 258.941 150.034 266.038L150.705 267.661L153 268.613C133.537 265.251 123.938 268.058 106.636 281.87C83.7233 290.178 77.1294 301.923 77.954 337.155C65.0122 298.008 72.2027 276.038 94.5721 277.636Z" fill="url(#paint4_linear_1365_93)"/>
<path d="M113.827 165.47C132.111 169.561 140.732 173.802 146.742 192.553L149.059 191.594C150.799 191.03 152.156 189.206 155.016 185.269C155.91 193.202 149.28 200.859 141.75 205.587L141.704 205.665C140.849 207.108 140.664 207.421 138.112 212.416L138.034 204.297C126.618 185.833 117.487 181.647 98.0885 181.208C72.4874 163.453 58.3687 163.29 29.4622 181.926C36.1093 166.947 37.6619 157.972 40.248 141.102C47.2128 147.385 49.4258 152.357 51.033 163.232L52.7108 155.482C69.8077 136.469 94.4141 138.227 113.827 165.47Z" stroke="#B1613E"/>
<path d="M70.6855 218.596C117.901 202.859 117.167 236.581 141.134 247.287L146.004 256.299C113.583 229.537 98.5275 229.236 74.1204 249.195C49.0312 253.671 41.9681 265.006 36.0918 293.693C29.1532 279.814 25.7777 271.823 21.8716 256.704C28.9558 224.779 39.2149 215.828 70.6855 218.596Z" stroke="#B1613E"/>
<path d="M142.106 351.855C96.6488 311.51 130.009 310.591 173.151 273.203L176.341 272.643L170.408 289.547C137.514 315.031 130.237 328.005 152.732 344.745L142.106 351.855Z" stroke="#B1613E"/>
<path d="M94.5721 277.636C99.1288 261.851 110.168 258.941 150.034 266.038L150.705 267.661L153 268.613C133.537 265.251 123.938 268.058 106.636 281.87C83.7233 290.178 77.1294 301.923 77.954 337.155C65.0122 298.008 72.2027 276.038 94.5721 277.636Z" stroke="#B1613E"/>
<path d="M348.793 328.283C355.734 308.3 356.518 297.33 351.06 271.823L250.56 380.337C253.046 395.756 253.589 404.731 262.43 417.691C263.589 421.947 264.743 425.85 265.921 429.421C244.514 464.968 317.332 535.543 325.493 421.316C325.934 419.664 326.59 417.885 327.477 415.963C342.22 395.549 349.185 366.904 348.793 328.283Z" fill="#D9D9D9" stroke="black" stroke-width="0.3"/>
<path d="M262.431 417.691C263.59 421.947 264.743 425.85 265.921 429.421C244.514 464.968 317.332 535.543 325.493 421.316C325.934 419.664 326.59 417.885 327.478 415.963C301.958 424.5 287.708 425.327 262.431 417.691Z" fill="#454057" stroke="black"/>
<path d="M251.692 385.439C251.692 385.439 263.692 376.439 270.192 367.939C277.317 358.623 285.929 343.689 285.929 343.689C285.929 343.689 294.125 343.342 299.192 341.939C306.457 339.927 316.192 331.939 316.192 331.939C316.192 331.939 296.926 353.502 288.409 369.098C285.864 373.759 284.303 376.345 282.456 381.314C280.598 386.312 279.975 391.628 279.975 396.95C279.975 409.166 282.456 419.939 282.456 419.939C282.456 419.939 280.043 421.42 279.975 422.939C279.915 424.288 281.692 425.939 281.692 425.939C281.692 425.939 275.99 438.079 275.192 446.439C273.781 461.23 284.192 481.439 284.192 481.439C284.192 481.439 264.542 468.939 262.692 450.439C260.842 431.939 266.692 428.939 266.692 428.939C266.692 428.939 264.692 427.806 264.692 426.439V422.939C264.692 422.939 262.75 422.524 262.192 420.939C261.645 419.384 262.692 416.939 262.692 416.939C261.476 415.173 257.422 408.965 255.192 401.939C252.712 394.121 251.692 385.439 251.692 385.439Z" fill="url(#paint5_linear_1365_93)" fill-opacity="0.3"/>
<path d="M400.068 95.659C390.62 93.3343 385.196 99.1412 375.48 113.887C370.398 121.245 365.779 127.282 361.232 132.134C348.468 145.751 336.268 150.024 315.998 147.914L340.18 233.153L354.246 231.838C372.62 216.606 380.502 200.728 391.71 163.762C402.866 144.692 408.856 127.004 400.46 112.227L403.035 98.2338L400.068 95.659Z" fill="#D9D9D9" stroke="black"/>
<path d="M400.068 95.659C390.62 93.3344 385.196 99.1413 375.48 113.887C370.398 121.245 365.779 127.282 361.232 132.134C363.141 152.141 370.391 158.619 391.71 163.762C402.866 144.692 408.856 127.004 400.46 112.227L403.035 98.2338L400.068 95.659Z" fill="#1E4D77" stroke="black"/>
<path d="M285.51 342.989C299.122 342.703 305.902 339.801 316.748 330.607C333.322 317.699 341.076 307.186 352.699 283.711C357.161 262.95 358.06 251.199 355.231 229.931C351.922 210.39 342.641 193.211 325.857 171.624C323.921 161.168 322.175 154.033 319.733 147.204C318.987 141.904 319.147 139.667 316.271 132.717C272.011 154.287 224.955 152.049 196.148 130.411L174.784 114.74L187.167 130.239C195.296 144.004 197.918 153.717 198.824 174.914C196.128 188.901 192.947 207.046 192.119 234.017L177.229 272.299C166.611 300.543 158.601 324.454 153.311 344.787C148.568 364.631 145.924 380.099 145.537 392.798C102.958 417.837 180.871 539.971 205.619 406.981C208.194 406.026 210.682 405.081 213.087 404.142C217.853 402.28 222.296 400.439 226.454 398.579C255.752 385.476 270.915 371.46 285.51 342.989Z" fill="#D9D9D9"/>
<path d="M266.807 174.975C272.701 190.647 275.096 199.652 273.244 217.179C265.414 225.505 259.959 229.03 249.175 234.362C246.903 250.807 244.278 259.492 236.133 273.6M307.388 169.21C314.465 187.014 317.052 196.984 315.951 214.717C324.932 220.792 328.569 224.581 333.638 231.733C340.069 252.267 340.813 263.056 340.299 281.829M234.174 278.973C231.542 292.445 228.504 299.811 219.956 312.613L226.561 330.412C252.792 342.062 260.775 351.795 261.935 375.471M339.851 288.098C337.575 315.584 334.413 328.011 325.465 346.142L316.901 355.769C303.838 365.252 295.127 370.357 275.257 376.423L269.155 384.651C266.489 399.348 267.457 407.065 274.528 419.69" stroke="#5B5B5B"/>
<path d="M306.889 186.503C297.403 188.838 291.565 189.403 280.054 188.779C279.601 191.982 279.86 193.841 281.581 197.277C293.16 198.291 299.285 197.619 309.537 194.241C309.118 191.163 308.577 189.458 306.889 186.503Z" fill="#676D83" stroke="black" stroke-width="0.3"/>
<path d="M352.699 283.711C357.161 262.95 358.06 251.199 355.231 229.931C351.922 210.39 342.641 193.211 325.857 171.624C323.921 161.168 322.175 154.033 319.733 147.204C318.987 141.904 319.147 139.667 316.271 132.717C272.011 154.287 224.955 152.049 196.148 130.411L174.784 114.74L187.167 130.239C195.296 144.004 197.918 153.717 198.824 174.914C196.128 188.901 192.947 207.046 192.119 234.017L177.229 272.299C166.611 300.543 158.601 324.454 153.311 344.787C148.568 364.631 145.924 380.099 145.537 392.798C102.958 417.837 180.871 539.971 205.619 406.981C208.194 406.026 210.682 405.081 213.087 404.142C217.853 402.28 222.296 400.439 226.454 398.579C255.752 385.476 270.915 371.46 285.51 342.989C299.122 342.703 305.902 339.801 316.748 330.607" stroke="black"/>
<path d="M205.619 406.981C180.872 539.971 102.959 417.837 145.537 392.798L145.761 392.895C173.674 404.907 189.394 411.672 205.619 406.981Z" fill="#454057" stroke="black"/>
<path d="M320.426 43.0793C316.192 7.92713 301.972 18.153 287.112 37.3267L317.949 77.7518L320.426 43.0793Z" fill="url(#paint6_linear_1365_93)" stroke="#B85F37" stroke-width="0.3"/>
<path d="M192.119 234.017C192.947 207.046 196.128 188.901 198.824 174.914L231.543 183.483C223.562 220.625 217.938 241.696 221.037 275.429C201.372 304.196 182.251 372.141 179.676 408.188C161.136 420.277 156.847 435.151 163.302 467.236C138.737 460.317 119.352 408.196 145.537 392.798C145.924 380.099 148.568 364.631 153.311 344.786C158.601 324.454 166.611 300.543 177.229 272.299L192.119 234.017Z" fill="url(#paint7_linear_1365_93)" fill-opacity="0.3"/>
<path d="M320.825 84.7025C316.307 69.6263 310.888 62.5235 299.654 50.5888L287.111 37.3268C264.507 32.3609 251.56 31.4144 232.066 36.7668L216.567 64.8882L209.746 82.3877C198.168 115.367 206.772 126.866 235.421 131.437C269.186 145.155 279.755 146.423 293.102 142.303C303.234 138.375 311.34 134.835 317.498 131.267C336.638 120.178 336.963 108.82 320.825 84.7025Z" fill="url(#paint8_linear_1365_93)"/>
<path d="M287.111 37.3268C264.507 32.3609 251.56 31.4144 232.066 36.7668L216.567 64.8882L209.746 82.3877C198.168 115.367 206.772 126.866 235.421 131.437C269.186 145.155 279.755 146.423 293.102 142.303C303.234 138.375 311.34 134.835 317.498 131.267C336.638 120.178 336.963 108.82 320.825 84.7025C316.307 69.6263 310.888 62.5235 299.654 50.5888L287.111 37.3268ZM287.111 37.3268C301.971 18.153 316.192 7.92719 320.426 43.0793" stroke="#B85F37" stroke-width="0.3"/>
<path d="M174.784 114.74C173.211 101.859 173.571 94.9682 177.021 83.4224L222.239 127.123L237.353 146.256C217.818 144.073 195.171 133.463 174.784 114.74Z" fill="url(#paint9_linear_1365_93)" stroke="#B85F37" stroke-width="0.3"/>
<path d="M250.76 89.8147C249.003 98.6826 241.659 111.643 248.283 124.487C252.688 131.952 255.758 135.528 262.149 140.94L241.576 133.878C216.955 116.607 223.421 95.6771 235.262 86.459C247.165 77.1919 252.518 80.9468 250.76 89.8147Z" fill="#FFF6D5"/>
<path d="M310.039 94.0496C314.194 98.8432 316.945 109.43 318.667 130.64C329.846 122.77 334.814 116.467 330.731 103.397C326.286 95.992 324.739 92.8514 318.268 89.0165C311.797 85.1817 305.885 89.256 310.039 94.0496Z" fill="#FFF6D5"/>
<path d="M273.61 68.9634C256.832 67.7648 252.838 44.9959 261.147 38.8443C269.456 32.6928 290.387 70.1619 273.61 68.9634Z" fill="#FFF6D5"/>
<path d="M289.268 54.3435C292.304 59.0571 296.289 61.1501 297.257 68.4044L307.164 71.3605C306.319 57.155 295.66 43.5583 291.266 42.1203C286.872 40.6822 286.233 49.6299 289.268 54.3435Z" fill="#FFF6D5"/>
<path d="M175.844 29.3778C175.175 9.26568 186.529 13.2783 207.141 23.7443C218.728 25.8869 224.412 28.3776 232.067 36.7669C245.21 49.6029 237.204 67.1711 218.793 65.2124C212.701 49.3287 208.352 43.2143 198.135 39.6535C191.152 58.6978 193.968 67.9939 209.697 82.3842C203.758 100.48 202.835 107.448 205.142 114.66C183.284 108.269 179.668 103.111 187.567 93.1692C181.848 90.738 179.551 88.576 177.021 83.4225C169.005 61.6809 167.856 49.7723 175.844 29.3778Z" fill="#FFF6D5"/>
<path d="M270.813 92.3714C264.821 113.303 287.11 131.758 300.612 115.86C291.744 114.102 287.51 110.427 282.317 104.435L278.723 93.8641C287.59 93.5699 291.871 91.9487 298.417 85.6982L301.251 91.1734L305.566 93.73C309.558 88.8513 309.034 86.1722 306.445 81.4268L304.287 80.1485L298.417 85.6982L285.673 73.1977C276.947 80.9941 273.492 85.2131 270.813 92.3714Z" fill="#FFF6D5"/>
<path d="M306.285 20.7097C303.134 33.1193 302.124 40.1719 302.85 53.0655L309.081 60.2557L309.157 60.1858C314.181 55.5598 317.021 52.9447 320.266 45.3163C319.467 25.0239 311.079 16.5554 306.285 20.7097Z" fill="#FFF6D5"/>
<path d="M241.972 134.154C241.839 134.062 241.707 133.97 241.576 133.878M198.135 39.6535C197.098 39.2722 196.001 38.9237 194.837 38.6038M198.135 39.6535C208.352 43.2143 212.701 49.3287 218.793 65.2124C237.204 67.1711 245.21 49.6029 232.067 36.7669C224.412 28.3776 218.728 25.8869 207.141 23.7443C186.529 13.2783 175.175 9.26568 175.844 29.3778C167.856 49.7723 169.005 61.6809 177.021 83.4225C179.551 88.576 181.848 90.738 187.567 93.1692C179.669 103.111 183.284 108.269 205.142 114.66C202.835 107.448 203.758 100.48 209.697 82.3842C193.968 67.9939 191.152 58.6978 198.135 39.6535ZM298.417 85.6983L301.251 91.1734L305.566 93.73C309.558 88.8513 309.034 86.1722 306.445 81.4268L304.287 80.1485L298.417 85.6983ZM298.417 85.6983L285.673 73.1977C276.947 80.9941 273.492 85.2131 270.813 92.3714C264.821 113.303 287.11 131.758 300.612 115.86C291.744 114.102 287.51 110.427 282.317 104.435L278.723 93.8641C287.59 93.5699 291.871 91.9487 298.417 85.6983ZM241.576 133.878C216.955 116.607 223.421 95.6771 235.262 86.459C247.165 77.1919 252.518 80.9468 250.76 89.8147C249.003 98.6826 241.659 111.643 248.283 124.487C252.688 131.952 255.758 135.528 262.149 140.94L241.576 133.878ZM318.667 130.64C316.945 109.43 314.194 98.8432 310.039 94.0496C305.885 89.256 311.797 85.1817 318.268 89.0165C324.739 92.8514 326.286 95.992 330.731 103.397C334.814 116.467 329.846 122.77 318.667 130.64ZM273.61 68.9634C256.832 67.7648 252.838 44.9959 261.147 38.8443C269.456 32.6928 290.387 70.1619 273.61 68.9634ZM297.257 68.4044C296.289 61.1501 292.304 59.0571 289.268 54.3435C286.233 49.6299 286.872 40.6822 291.266 42.1203C295.66 43.5583 306.319 57.155 307.164 71.3605L297.257 68.4044ZM302.85 53.0655C302.124 40.1719 303.134 33.1193 306.285 20.7097C311.079 16.5554 319.467 25.0239 320.266 45.3163C317.005 52.983 314.153 55.5859 309.081 60.2557L302.85 53.0655Z" stroke="#B96038" stroke-width="1.3"/>
<path d="M285.833 70.9607C281.588 73.5301 290.88 81.4039 299.495 84.3026C305.799 82.122 312.437 76.2338 309.321 72.6387C306.206 69.0436 290.079 68.3912 285.833 70.9607Z" fill="black"/>
<path d="M262.499 66.2167C261.843 65.9775 261.126 65.823 260.348 65.7674C249.164 64.9684 247.645 86.2194 258.83 87.0184C269.237 87.7619 271.275 69.4159 262.499 66.2167Z" fill="black"/>
<path d="M260.348 65.7674C271.533 66.5665 270.015 87.8175 258.83 87.0184C247.645 86.2194 249.164 64.9684 260.348 65.7674ZM260.348 65.7674C267.539 67.0967 270.699 69.113 274.249 75.754M299.495 84.3026C290.88 81.4039 281.588 73.5301 285.833 70.9607C290.079 68.3912 306.206 69.0436 309.321 72.6387C312.437 76.2338 305.799 82.122 299.495 84.3026Z" stroke="black"/>
<path d="M253.107 306.822C272.799 315.426 284.192 341.939 284.192 341.939C284.192 341.939 284.192 306.822 257.64 297.903C231.088 288.984 216.192 297.903 216.192 297.903C216.192 297.903 241.73 301.851 253.107 306.822Z" fill="#1E4D77" stroke="black"/>
<path d="M257.98 308.189C246.838 301.63 219.192 297.939 219.192 297.939C219.192 297.939 246.932 298.847 259.92 306.481C274.597 315.108 283.192 338.939 283.192 338.939C283.192 338.939 272.506 316.74 257.98 308.189Z" fill="#0F283F"/>
<path d="M266.241 305.717C261.529 301.806 249.192 297.939 249.192 297.939C249.192 297.939 261.568 300.147 267.061 304.698C273.268 309.842 278.192 322.939 278.192 322.939C278.192 322.939 272.384 310.815 266.241 305.717Z" fill="white"/>
<path d="M336.973 313.837C327.929 318.635 316.192 330.939 316.192 330.939C316.192 330.939 328.333 322.623 336.973 320.324C342.215 318.929 351.192 319.439 351.192 319.439C351.192 319.439 352.227 316.107 352.692 314.439C353.375 311.99 353.692 307.939 353.692 307.939C353.692 307.939 343.011 310.633 336.973 313.837Z" fill="#1E4D77" stroke="black"/>
<path d="M334.192 320.439C328.235 322.166 320.192 327.939 320.192 327.939L327.692 320.939C327.692 320.939 330.014 319.896 333.192 318.939C337.867 317.531 345.692 318.939 345.692 318.939C345.692 318.939 338.542 319.178 334.192 320.439Z" fill="#0F283F"/>
<path d="M348.192 310.939L342.192 312.939C342.192 312.939 348.192 313.439 348.192 314.439C348.192 315.439 346.692 316.939 346.692 316.939H350.692C350.692 316.939 351.798 314.873 352.192 313.439C352.559 312.108 352.692 309.939 352.692 309.939L348.192 310.939Z" fill="white"/>
<g filter="url(#filter0_f_1365_93)">
<circle cx="2.24264" cy="2.24264" r="2.24264" transform="matrix(-0.997458 -0.0712598 -0.0712598 0.997458 259.47 78.0708)" fill="white"/>
</g>
<g filter="url(#filter1_f_1365_93)">
<circle cx="1.12132" cy="1.12132" r="1.12132" transform="matrix(-0.997458 -0.0712598 -0.0712598 0.997458 257.552 73.437)" fill="white"/>
</g>
<path d="M305.567 93.7299C302.369 91.6293 299.736 89.4156 298.297 85.3413C294.569 89.626 291.062 91.8993 286.51 92.9705L288.23 100.361L296.858 105.474C301.492 103.556 303.863 99.631 305.567 93.7299Z" fill="#5E1200" stroke="#B96038" stroke-width="0.3"/>
<path d="M272.97 93.6496C278.578 93.9146 282.876 93.8252 286.509 92.9705C288.965 97.3034 291.824 97.2449 294.133 103.031C296.526 105.197 299.413 107.127 303.329 109.309C304.509 110.656 304.907 111.399 300.852 112.504C297.698 113.381 295.645 113.387 291.815 113.112C286.24 109.997 280.869 104.054 272.97 93.6496Z" fill="#FF9A9A"/>
<path d="M300.612 115.86C297.406 115.509 294.585 114.659 291.815 113.112M291.815 113.112C286.24 109.997 280.869 104.054 272.97 93.6496C278.578 93.9146 282.876 93.8252 286.509 92.9705C288.965 97.3034 291.824 97.2449 294.133 103.031C296.526 105.197 299.413 107.127 303.329 109.309C304.509 110.656 304.907 111.399 300.852 112.504C297.698 113.381 295.645 113.387 291.815 113.112Z" stroke="#B96038" stroke-width="0.3"/>
<path d="M129.648 226.138L129.312 230.84C127.451 230.112 125.651 229.567 123.916 229.188C122.853 228.955 121.815 228.785 120.803 228.672C119.445 228.521 118.135 228.475 116.875 228.523C115.488 228.575 114.163 228.743 112.902 229.011C111.569 229.295 110.309 229.692 109.127 230.186C107.856 230.718 106.676 231.362 105.593 232.1C104.266 233.004 103.085 234.047 102.061 235.195C101.028 236.352 100.156 237.615 99.4558 238.947C98.81 240.175 98.3108 241.462 97.9676 242.779C97.6339 244.059 97.4477 245.368 97.4179 246.677C97.3938 247.737 97.472 248.798 97.6572 249.845C97.8503 250.937 98.1597 252.015 98.5906 253.062C99.0409 254.156 99.6238 255.218 100.345 256.227C101.055 257.22 101.898 258.163 102.881 259.038C104.02 260.053 105.346 260.978 106.869 261.786C107.961 262.365 109.153 262.885 110.45 263.334C111.648 263.748 112.935 264.103 114.313 264.391C115.538 264.646 116.836 264.849 118.208 264.992C119.453 265.122 120.76 265.203 122.129 265.232C123.145 265.253 124.196 265.246 125.281 265.207L126.401 271.589C125.053 271.492 123.75 271.372 122.488 271.229C120.712 271.028 119.021 270.782 117.41 270.494C115.636 270.176 113.96 269.808 112.38 269.394C110.738 268.964 109.198 268.484 107.757 267.958C106.1 267.355 104.574 266.692 103.173 265.977C101.56 265.155 100.113 264.264 98.8218 263.317C97.3262 262.22 96.04 261.046 94.9491 259.815C93.5781 258.268 92.5155 256.629 91.7332 254.935C90.89 253.109 90.3724 251.218 90.1455 249.308C89.928 247.478 89.9773 245.63 90.2625 243.803C90.5493 241.967 91.0745 240.153 91.8068 238.4C92.5808 236.548 93.5861 234.766 94.7858 233.1C95.7346 231.782 96.8049 230.538 97.9786 229.39C99.3596 228.039 100.884 226.822 102.521 225.776C103.935 224.873 105.433 224.099 106.997 223.477C108.297 222.959 109.642 222.548 111.022 222.256C112.571 221.928 114.164 221.752 115.784 221.746C117.328 221.741 118.896 221.892 120.476 222.215C122.011 222.529 123.555 223.006 125.099 223.661C126.621 224.308 128.141 225.129 129.648 226.138Z" fill="#444757"/>
<path d="M123.916 229.188C125.651 229.567 127.451 230.112 129.312 230.84L129.648 226.138C128.141 225.129 126.621 224.308 125.099 223.661M123.916 229.188C123.046 226.564 123.47 225.414 125.099 223.661M123.916 229.188C122.853 228.955 121.815 228.785 120.803 228.672M125.099 223.661C123.555 223.006 122.011 222.529 120.476 222.215M120.803 228.672C118.597 226.249 118.516 224.855 120.476 222.215M120.803 228.672C119.445 228.521 118.135 228.475 116.875 228.523M120.476 222.215C118.896 221.892 117.328 221.741 115.784 221.746M115.784 221.746C114.549 224.443 114.692 225.926 116.875 228.523M115.784 221.746C114.164 221.752 112.571 221.928 111.022 222.256M116.875 228.523C115.488 228.575 114.163 228.743 112.902 229.011M112.902 229.011C110.914 226.965 110.498 225.413 111.022 222.256M112.902 229.011C111.569 229.295 110.309 229.692 109.127 230.186M111.022 222.256C109.642 222.548 108.297 222.959 106.997 223.477M106.997 223.477C106.584 225.928 106.682 227.346 109.127 230.186M106.997 223.477C105.433 224.099 103.935 224.873 102.521 225.776M109.127 230.186C107.856 230.718 106.676 231.362 105.593 232.1M102.521 225.776C102.151 229.026 103.203 230.221 105.593 232.1M102.521 225.776C100.884 226.822 99.3596 228.039 97.9786 229.39M105.593 232.1C104.266 233.004 103.085 234.047 102.061 235.195M97.9786 229.39C98.1924 232.659 99.1569 233.872 102.061 235.195M97.9786 229.39C96.8049 230.538 95.7346 231.782 94.7858 233.1M102.061 235.195C101.028 236.352 100.156 237.615 99.4558 238.947M94.7858 233.1C95.4778 236.125 96.4197 237.459 99.4558 238.947M94.7858 233.1C93.5861 234.766 92.5808 236.548 91.8068 238.4M99.4558 238.947C98.81 240.175 98.3108 241.462 97.9676 242.779M91.8068 238.4C93.5683 241.735 95.0082 242.466 97.9676 242.779M91.8068 238.4C91.0745 240.153 90.5493 241.967 90.2625 243.803M97.9676 242.779C97.6339 244.059 97.4477 245.368 97.4179 246.677M90.2625 243.803C92.7449 246.07 94.1796 247.183 97.4179 246.677M90.2625 243.803C89.9773 245.63 89.928 247.478 90.1455 249.308M97.4179 246.677C97.3938 247.737 97.472 248.798 97.6572 249.845M90.1455 249.308C92.3232 251.901 97.393 251.8 97.6572 249.845M90.1455 249.308C90.3724 251.218 90.89 253.109 91.7332 254.935M97.6572 249.845C97.8503 250.937 98.1597 252.015 98.5906 253.062M91.7332 254.935C95.0632 255.59 96.6157 255.289 98.5906 253.062M91.7332 254.935C92.5155 256.629 93.5781 258.268 94.9491 259.815M98.5906 253.062C99.0409 254.156 99.6238 255.218 100.345 256.227M94.9491 259.815C98.3881 259.589 99.4969 258.743 100.345 256.227M94.9491 259.815C96.04 261.046 97.3262 262.22 98.8218 263.317M100.345 256.227C101.055 257.22 101.898 258.163 102.881 259.038M98.8218 263.317C101.261 262.536 102.314 261.773 102.881 259.038M98.8218 263.317C100.113 264.264 101.56 265.155 103.173 265.977M102.881 259.038C104.02 260.053 105.346 260.978 106.869 261.786M103.173 265.977C105.261 264.927 106.211 264.138 106.869 261.786M103.173 265.977C104.574 266.692 106.1 267.355 107.757 267.958M106.869 261.786C107.961 262.365 109.153 262.885 110.45 263.334M107.757 267.958C109.607 266.691 110.261 265.723 110.45 263.334M107.757 267.958C109.198 268.484 110.738 268.964 112.38 269.394M110.45 263.334C111.648 263.748 112.935 264.103 114.313 264.391M112.38 269.394C113.939 267.822 114.508 266.795 114.313 264.391M112.38 269.394C113.96 269.808 115.636 270.176 117.41 270.494M114.313 264.391C115.538 264.646 116.836 264.849 118.208 264.992M118.208 264.992C118.872 267.1 118.89 268.296 117.41 270.494M118.208 264.992C119.453 265.122 120.76 265.203 122.129 265.232M117.41 270.494C119.021 270.782 120.712 271.028 122.488 271.229M122.129 265.232C123.145 265.253 124.196 265.246 125.281 265.207L126.401 271.589C125.053 271.492 123.75 271.372 122.488 271.229M122.129 265.232C123.17 267.581 123.296 268.891 122.488 271.229" stroke="#313131" stroke-width="1.3"/>
<path d="M181.995 259.658C238.975 277.906 320.938 288.235 353.049 279.754C354.73 281.536 354.639 282.584 352.713 284.456C329.931 294.643 233.882 283.055 180.092 264.247C179.756 261.956 179.744 260.754 181.995 259.658Z" fill="#676D83" stroke="black"/>
<path d="M156.428 143.461C163.313 146.316 174.283 147.099 174.283 147.099L209.267 153.537L175.009 280.259L121.555 256.75C124.455 217.879 128.197 196.731 139.468 160.364C139.468 160.364 149.543 140.606 156.428 143.461Z" fill="#D9D9D9" stroke="black"/>
<path d="M148.815 239.007L168.015 146.651L192.979 150.01L188.555 244.997L148.815 239.007Z" fill="#8CA6B5" stroke="black" stroke-width="0.3"/>
<path d="M359.667 131.989L362.074 131.373C364.257 144.919 378.922 160.144 392.187 161.879L392.859 163.502C392.44 170.829 391.111 174.232 387.765 179.678L386.086 181.134C369.238 174.417 350.208 154.154 348.696 142.232L349.648 139.937C352.669 136.849 354.877 135.102 359.667 131.989Z" fill="#1E4D77" stroke="black"/>
<path d="M380.692 178.939L375.192 174.939C375.192 174.939 383.971 174.514 386.192 170.439C388.917 165.441 380.692 156.939 380.692 156.939C380.692 156.939 397.494 153.439 400.692 139.939C403.891 126.439 403.692 122.939 403.692 122.939C403.692 122.939 404.327 130.902 403.692 135.939C402.314 146.878 392.692 161.939 392.692 161.939C392.692 161.939 392.906 169.247 391.192 173.439C389.86 176.697 386.192 180.939 386.192 180.939L380.692 178.939Z" fill="#0F283F" stroke="black"/>
<path d="M381.182 149.58C386.626 149.345 388.217 150.468 389.048 154.195C400.848 161.117 404.232 113.742 397.097 113.232C393.02 112.941 376.608 142.503 381.182 149.58Z" fill="#59A3BC"/>
<path d="M395.758 111.891C392.555 114.751 391.105 116.576 388.873 120.063C385.141 117.41 384.456 113.263 385.226 107.318C388.684 100.814 390.941 98.107 396.211 96.9587C397.833 102.613 398.472 106.546 395.758 111.891Z" fill="#59A3BC"/>
<path d="M381.171 135.396C383.136 130.153 384.515 127.403 387.203 122.656C384.429 116.893 382.406 116.307 378.318 117.969C376.697 128.457 377.161 132.488 381.171 135.396Z" fill="#59A3BC"/>
<path d="M381.182 149.58C386.626 149.345 388.217 150.468 389.048 154.195C400.848 161.117 404.232 113.742 397.097 113.232C393.02 112.941 376.608 142.503 381.182 149.58Z" stroke="black" stroke-width="1.5"/>
<path d="M395.758 111.891C392.555 114.751 391.105 116.576 388.873 120.063C385.141 117.41 384.456 113.263 385.226 107.318C388.684 100.814 390.941 98.107 396.211 96.9587C397.833 102.613 398.472 106.546 395.758 111.891Z" stroke="black" stroke-width="1.5"/>
<path d="M381.171 135.396C383.136 130.153 384.515 127.403 387.203 122.656C384.429 116.893 382.406 116.307 378.318 117.969C376.697 128.457 377.161 132.488 381.171 135.396Z" stroke="black" stroke-width="1.5"/>
<path d="M401.21 95.7406L398.133 100.704C398.859 105.191 398.93 107.683 397.326 112.003C398.61 112.684 399.344 113.16 400.964 116.201C401.734 119.321 402.153 121.059 402.027 123.366C406.726 121.11 408.656 114.469 405.274 110.996C406.773 106.944 406.862 101.327 401.21 95.7406Z" fill="#59A3BC"/>
<path d="M400.964 116.201C399.344 113.16 398.61 112.684 397.326 112.003C398.93 107.683 398.859 105.191 398.133 100.704L401.21 95.7406C406.862 101.327 406.773 106.944 405.274 110.996M400.964 116.201C403.454 115.227 404.524 113.022 405.274 110.996M400.964 116.201C401.734 119.321 402.153 121.059 402.027 123.366C406.726 121.11 408.656 114.469 405.274 110.996" stroke="black" stroke-width="1.5"/>
<path d="M232.935 197.818C239.089 170.972 223.49 159.208 197.717 160.757C169.537 171.622 160.122 183.984 135.402 231.027C127.933 238.95 125.083 241.653 114.763 278.947C76.6928 310.73 123.542 363.313 159.145 294.455C168.98 288.157 179.342 278.761 189.354 257.352C198.926 252.603 219.07 232.532 232.935 197.818Z" fill="#D9D9D9" stroke="black"/>
<path d="M114.764 278.947C76.6928 310.73 123.542 363.313 159.145 294.455L117.805 276.173L114.764 278.947Z" fill="#1E4D77" stroke="black"/>
<path d="M335.531 117.041C338.595 88.7918 335.823 78.3782 325.793 65.9371C278.328 13.7131 193.92 81.7192 220.786 124.596C273.154 156.782 319.411 155.27 335.531 117.041Z" fill="#9BD5FF" fill-opacity="0.21"/>
<path d="M188.824 164.055C172.984 143.233 171.003 102.452 177.239 83.6777C204.442 99.7986 239.929 66.1032 232.597 36.437C252.549 30.4248 265.577 31.6443 286.947 36.382C302.766 47.5893 316.191 47.4469 325.792 65.9363C306.021 45.939 266.516 46.7368 242.336 65.4875C221.57 80.5441 217.686 93.4224 221.681 123.083C258.218 147.23 312.091 147.548 335.586 116.256C335.725 117.611 337.6 119.056 337.657 120.342C338.463 138.515 331.515 146.609 324.335 163.497C289.808 177.463 268.228 176.625 228.536 170.445C219.982 161.108 202.205 156.657 188.824 164.055Z" fill="#D9D9D9" stroke="black"/>
<path d="M202.046 133.33C201.867 135.838 205.927 137.808 207.98 138.48C207.226 140.217 206.697 141.083 205.349 142.23C201.602 141.31 199.948 140.015 197.904 136.185C199.36 134.188 202.226 130.823 202.046 133.33Z" fill="#616161"/>
<path d="M327.578 415.769C307.484 421.422 281.457 421.925 262.874 417.447C261.441 419.456 261.801 420.695 264.049 423.044C282.688 426.739 307.932 426.179 325.619 421.142C327.826 419.36 327.999 418.127 327.578 415.769Z" fill="#5E536C"/>
<path d="M207.796 405.636C188.757 410.513 167.104 401.941 145.946 389.403C143.418 390.76 144.437 391.695 145.666 393.321C168.335 406.755 189.134 413.05 205.221 408.602C206.976 408.255 207.688 407.763 207.796 405.636Z" fill="#5E536C"/>
<path d="M327.578 415.769C307.484 421.422 281.457 421.925 262.874 417.447C261.441 419.456 261.801 420.695 264.049 423.044C282.688 426.739 307.932 426.179 325.619 421.142C327.826 419.36 327.999 418.127 327.578 415.769Z" stroke="black"/>
<path d="M207.796 405.636C188.757 410.513 167.104 401.941 145.946 389.403C143.418 390.76 144.437 391.695 145.666 393.321C168.335 406.755 189.134 413.05 205.221 408.602C206.976 408.255 207.688 407.763 207.796 405.636Z" stroke="black"/>
<path d="M334.143 125.44C310.402 146.939 289.22 147.785 246.321 142.007L238.652 172.176M315.505 55.585C293.694 44.9356 270.563 45.7959 251.817 54.0542M216.599 128.069C205.143 95.9576 223.464 66.5444 251.817 54.0542M174.732 107.75L237.869 139.04L228.521 170.665M232.609 36.2732C239.354 51.3691 243.572 55.1501 251.817 54.0542" stroke="#8A8A8A" stroke-width="1.5"/>
<path d="M164.374 307.854C168.983 311.214 182.341 316.131 198.94 319.342M160.288 320.952C166.321 327.422 177.696 331.466 198.719 334.251M198.719 334.251C202.108 334.7 205.748 335.117 209.656 335.505C213.951 330.458 214.962 327.428 214.582 321.68C209.176 321.112 203.912 320.304 198.94 319.342M198.719 334.251C197.756 338.227 196.91 340.26 194.152 343.062C174.338 340.65 164.889 338.731 156.314 332.482M198.94 319.342C201.038 317.829 201.28 316.905 200.869 315.187C179.823 309.44 170.567 306.377 166.389 301.697" stroke="#515151" stroke-width="1.3"/>
<path d="M193.616 80.7449C223.642 93.0528 217.494 141.089 196.692 149.846C140.978 152.641 157.744 78.1821 193.616 80.7449Z" fill="#D9D9D9" stroke="black"/>
<path d="M167.435 186.146C167.667 185.862 168.043 185.725 168.403 185.795C179.905 188.051 186.614 190.66 197.927 199.242C198.368 199.577 198.45 200.214 198.112 200.653C188.824 212.73 184.432 220.485 178.027 234.288C177.797 234.783 177.207 235.007 176.709 234.784C164.199 229.195 157.901 225.292 149.718 217.181C149.445 216.91 149.352 216.5 149.481 216.138C153.72 204.292 158.098 197.573 167.435 186.146Z" fill="#193248"/>
<path d="M165.662 289.831C148.534 287.032 130.343 277.068 119.652 261.34C115.615 266.326 114.304 269.745 114.558 277.516C123.962 289.214 137.451 298.842 155.475 300.13C159.858 296.885 163.239 295.296 165.662 289.831Z" fill="#1E4D77" stroke="black"/>
<path d="M123.693 267.439C122.197 265.583 120.193 262.439 120.193 262.439C120.193 262.439 116.042 267.509 115.193 271.439C114.574 274.302 115.193 278.939 115.193 278.939C115.193 278.939 98.6926 291.439 100.693 305.939C102.693 320.439 106.693 320.939 106.693 320.939C106.693 320.939 103.705 308.444 106.693 301.439C107.967 298.45 108.866 296.708 111.193 294.439C115.88 289.869 127.193 289.439 127.193 289.439C127.193 289.439 115.052 277.594 118.193 272.939C121.333 268.284 134.193 276.939 134.193 276.939C134.193 276.939 127.162 271.745 123.693 267.439Z" fill="#0F283F" stroke="black"/>
<path d="M212.569 129.356C186.318 121.968 170.529 125.969 164.153 134.561C168.177 141.723 171.553 144.887 180.496 148.331C183.215 155.258 184.47 158.854 188.836 163.892C201.878 157.735 220.573 160.646 228.521 170.665C270.809 177.094 292.354 176.569 324.347 163.334C332.389 146.8 335.655 138.645 337.11 128.015C314.844 149.319 294.786 153.243 245.257 145.869L243.074 154.377C240.612 155.776 237.277 154.598 233.783 152.138L236.75 143.686L217.831 132.883L214.864 119.281L212.569 129.356Z" fill="#454057" fill-opacity="0.38"/>
<path d="M345.225 201.843C359.789 194.245 365.783 187.873 374.723 174.809C379.037 177.764 381.521 179.174 386.085 181.134C375.703 209.3 368.839 218.895 355.747 230.95C351.337 213.594 349.008 206.718 345.225 201.843Z" fill="#454057" fill-opacity="0.38"/>
<path d="M212.569 129.356C186.318 121.968 170.529 125.969 164.153 134.561C168.177 141.723 171.553 144.887 180.496 148.331C183.215 155.258 184.47 158.854 188.836 163.892C201.878 157.735 220.573 160.646 228.521 170.665C270.809 177.094 292.354 176.569 324.347 163.334C332.389 146.8 335.655 138.645 337.11 128.015C314.844 149.319 294.786 153.243 245.257 145.869L243.074 154.377C240.612 155.776 237.277 154.598 233.783 152.138L236.75 143.686L217.831 132.883L214.864 119.281L212.569 129.356Z" stroke="#4F4F4F"/>
<path d="M345.225 201.843C359.789 194.245 365.783 187.873 374.723 174.809C379.037 177.764 381.521 179.174 386.085 181.134C375.703 209.3 368.839 218.895 355.747 230.95C351.337 213.594 349.008 206.718 345.225 201.843Z" stroke="#4F4F4F"/>
<path d="M177.843 115.53C179.131 97.5063 189.989 99.8574 195.531 110.492C197.686 117.919 198.233 121.832 194.355 126.948C188.515 137.763 178.898 133.216 177.851 120.256L170.492 120.026C169.968 124.712 168.696 129.063 166.48 131.258C156.125 132.881 156.853 100.641 167.768 102.208C169.681 103.136 170.845 108.986 170.775 115.322L177.843 115.53Z" fill="#616161"/>
<path d="M268.264 33.3073C266.808 31.6278 261.323 31.236 260.427 32.7474C268.459 38.0184 273.618 42.4255 274.42 46.3489L280.745 46.0133C277.058 40.4065 274.506 37.5238 268.264 33.3073Z" fill="#616161"/>
<rect width="13.4217" height="4.65746" rx="2.32873" transform="matrix(0.98857 -0.0771419 -0.0752965 1.004 160.56 201.437)" fill="#EA4335"/>
<rect width="13.2346" height="5.16106" rx="2.58053" transform="matrix(0.457428 0.898631 -0.836001 0.534635 163.094 200.514)" fill="#4285F4"/>
<rect width="13.7105" height="4.95447" rx="2.47724" transform="matrix(-0.98857 0.0771419 0.0752965 -1.004 182.906 216.698)" fill="#FBBC05"/>
<rect width="13.2346" height="4.9537" rx="2.47685" transform="matrix(-0.457428 -0.898631 0.836001 -0.534635 180.372 217.621)" fill="#34A835"/>
<defs>
<filter id="filter0_f_1365_93" x="254.13" y="77.2052" width="5.88535" height="5.88547" filterUnits="userSpaceOnUse" color-interpolation-filters="sRGB">
<feFlood flood-opacity="0" result="BackgroundImageFix"/>
<feBlend mode="normal" in="SourceGraphic" in2="BackgroundImageFix" result="shape"/>
<feGaussianBlur stdDeviation="0.35" result="effect1_foregroundBlur_1365_93"/>
</filter>
<filter id="filter1_f_1365_93" x="254.832" y="72.9542" width="3.04219" height="3.04268" filterUnits="userSpaceOnUse" color-interpolation-filters="sRGB">
<feFlood flood-opacity="0" result="BackgroundImageFix"/>
<feBlend mode="normal" in="SourceGraphic" in2="BackgroundImageFix" result="shape"/>
<feGaussianBlur stdDeviation="0.2" result="effect1_foregroundBlur_1365_93"/>
</filter>
<linearGradient id="paint0_linear_1365_93" x1="142.748" y1="185.523" x2="63.4136" y2="383.331" gradientUnits="userSpaceOnUse">
<stop stop-color="#CE4507"/>
<stop offset="1" stop-color="#FFA554"/>
</linearGradient>
<linearGradient id="paint1_linear_1365_93" x1="118.301" y1="150.051" x2="83.7068" y2="288.102" gradientUnits="userSpaceOnUse">
<stop stop-color="#E07647"/>
<stop offset="1" stop-color="#FDBB81"/>
</linearGradient>
<linearGradient id="paint2_linear_1365_93" x1="118.301" y1="150.051" x2="83.7068" y2="288.102" gradientUnits="userSpaceOnUse">
<stop stop-color="#E07647"/>
<stop offset="1" stop-color="#FDBB81"/>
</linearGradient>
<linearGradient id="paint3_linear_1365_93" x1="118.301" y1="150.051" x2="83.7068" y2="288.102" gradientUnits="userSpaceOnUse">
<stop stop-color="#E07647"/>
<stop offset="1" stop-color="#FDBB81"/>
</linearGradient>
<linearGradient id="paint4_linear_1365_93" x1="118.301" y1="150.051" x2="83.7068" y2="288.102" gradientUnits="userSpaceOnUse">
<stop stop-color="#E07647"/>
<stop offset="1" stop-color="#FDBB81"/>
</linearGradient>
<linearGradient id="paint5_linear_1365_93" x1="283.942" y1="331.939" x2="283.942" y2="481.439" gradientUnits="userSpaceOnUse">
<stop offset="0.515625" stop-color="#322E40"/>
<stop offset="1"/>
</linearGradient>
<linearGradient id="paint6_linear_1365_93" x1="274.249" y1="28.5384" x2="258.989" y2="147.735" gradientUnits="userSpaceOnUse">
<stop offset="0.0510413" stop-color="#B85F37"/>
<stop offset="0.446875" stop-color="#4D2818"/>
</linearGradient>
<linearGradient id="paint7_linear_1365_93" x1="191.26" y1="174.374" x2="148.692" y2="459.939" gradientUnits="userSpaceOnUse">
<stop offset="0.760417" stop-color="#322E40"/>
<stop offset="1" stop-color="#050505"/>
</linearGradient>
<linearGradient id="paint8_linear_1365_93" x1="274.249" y1="28.5385" x2="258.988" y2="147.736" gradientUnits="userSpaceOnUse">
<stop offset="0.477603" stop-color="#B85F37"/>
<stop offset="0.773519" stop-color="#FEBC81"/>
<stop offset="0.983333" stop-color="#FDE3CB"/>
</linearGradient>
<linearGradient id="paint9_linear_1365_93" x1="206.391" y1="85.5207" x2="187.694" y2="347.243" gradientUnits="userSpaceOnUse">
<stop offset="0.372774" stop-color="#E07D3A"/>
<stop offset="1" stop-color="#F9D3B7"/>
</linearGradient>
</defs>
</svg>
