<svg width="236" height="263" viewBox="0 0 236 263" fill="none" xmlns="http://www.w3.org/2000/svg">
<path d="M145.946 89.2203C153.221 95.5087 157.911 98.5399 166.765 103.55L220.57 152.217C226.19 147.553 228.878 144.272 228.41 130.858C238.834 85.5947 240.534 61.088 197.588 27.0342C181.69 11.1697 169.719 8.34209 145.946 8.108C109.987 -6.22184 73.216 -0.00322652 58.0748 37.0381C24.1936 72.6762 58.0748 122.747 126.75 94.3574C132.519 92.4683 139.641 92.0141 145.946 89.2203Z" fill="url(#paint0_linear_1619_2422)" stroke="black"/>
<path d="M117.233 248.873C117.829 244.808 116.479 239.016 116.479 239.016L114.582 219.829L197.707 214.419C199.288 226.431 200.596 233.119 192.254 246.224C168.024 251.801 154.481 253.721 130.386 254.532C130.386 254.532 116.636 252.938 117.233 248.873Z" fill="#D9D9D9" stroke="black"/>
<path d="M114.582 219.828L197.707 214.418C198.853 223.131 199.857 229.043 197.138 236.633C163.892 245.481 132.59 247.454 117.105 242.61C116.839 240.558 116.479 239.015 116.479 239.015L114.582 219.828Z" fill="#8CA6B5"/>
<path d="M102.39 100.227C136.657 65.8894 111.313 15.5997 64.2676 25.0628C68.6866 17.727 72.1434 13.9439 82.3827 8.57C121.338 1.7042 145.38 22.3591 139.432 53.1818C143.081 78.2502 139.236 83.7309 131.05 91.5749C119.956 97.069 113.66 98.5031 102.39 100.227Z" fill="url(#paint1_linear_1619_2422)"/>
<path d="M163.225 42.6372C165.295 28.4659 162.135 21.0304 149.706 8.57C167.848 11.0257 176.681 15.1073 181.61 44.2594C185.104 71.9773 175.729 80.6342 151.598 91.5749C167.874 76.7852 170.752 66.1943 163.225 42.6372Z" fill="url(#paint2_linear_1619_2422)"/>
<path d="M203.24 31.8222C205.948 79.9833 196.179 95.4125 163.225 98.875C167.369 103.2 170.152 105.509 177.014 109.149C192.598 104.856 201.649 103.356 211.081 81.3007C219.485 68.4556 221.593 59.7751 220.274 49.1262C214.057 40.3966 209.247 37.7008 203.24 31.8222Z" fill="url(#paint3_linear_1619_2422)"/>
<path d="M233.792 81.3007C221.977 105.439 211.742 114.988 193.506 117.531C204.872 120.631 212.7 118.908 233.792 98.875C234.502 92.6736 235.575 86.7707 233.792 81.3007Z" fill="url(#paint4_linear_1619_2422)"/>
<path d="M231.089 117.531C226.607 126.051 224.319 130.096 215.407 134.835L221.625 151.328C227.303 147.272 229.196 138.89 228.385 130.509L231.089 117.531Z" fill="url(#paint5_linear_1619_2422)"/>
<path d="M220.544 179.447C208.918 221.896 176.473 238.118 119.694 229.737L70.2158 137.81C79.411 130.059 84.3115 125.14 89.5959 115.639C89.9827 114.943 90.3715 114.223 90.7643 113.476C105.812 96.6546 114.516 98.1932 130.239 109.15C137.677 99.5 142.812 97.6009 153.491 99.6867C163.299 99.5873 169.705 103.332 182.151 114.287C198.104 118.572 204.904 123.141 214.325 134.024C220.544 142.406 225.14 153.491 220.544 179.447Z" fill="#D9D9D9"/>
<path d="M130.239 109.15C137.677 99.5 142.812 97.6009 153.491 99.6867C163.299 99.5873 169.705 103.332 182.151 114.287C198.104 118.572 204.904 123.141 214.325 134.024C220.544 142.406 225.14 153.491 220.544 179.447C208.918 221.896 176.473 238.118 119.694 229.737L70.2158 137.81C79.411 130.059 84.3115 125.14 89.5959 115.639M130.239 109.15C114.516 98.1932 105.812 96.6546 90.7643 113.476C90.3715 114.223 89.9827 114.943 89.5959 115.639M130.239 109.15C128.633 112.825 128.502 115.044 129.008 119.154M144.569 145.11C147.777 156.716 154.302 160.251 156.195 166.199M112.124 159.71C112.618 152.786 113.445 147.105 114.831 142.135M151.869 166.199C143.85 158.213 141.761 151.118 148.084 127.535C146.897 116.897 144.61 112.944 132.672 115.639C131.373 116.837 130.154 118.005 129.008 119.154M89.5959 115.639C98.3347 107.528 105.448 111.854 107.527 119.154C108.948 124.14 108.404 129.469 105.318 139.161M101.038 151.328C101.871 149.099 102.626 147.032 103.307 145.11M129.008 119.154C121.613 126.572 117.321 133.205 114.831 142.135M103.307 145.11L107.527 142.135M103.307 145.11C104.069 142.955 104.738 140.981 105.318 139.161M107.527 142.135L105.318 139.161M107.527 142.135H114.831" stroke="black"/>
<path d="M153.491 99.6867C163.299 99.5873 169.705 103.332 182.151 114.287C183.503 113.476 185.395 114.287 185.666 115.368C184.043 128.346 158.628 154.032 145.921 148.895C144.747 148.42 144.298 147.002 144.839 146.191L142.135 139.161L148.084 127.535C146.897 116.897 144.61 112.944 132.672 115.639C131.373 116.837 130.154 118.005 129.008 119.154C128.502 115.044 128.632 112.825 130.239 109.15C137.676 99.5 142.812 97.6009 153.491 99.6867Z" fill="#454057"/>
<path d="M182.151 114.287C169.705 103.332 163.299 99.5873 153.491 99.6867C142.812 97.6009 137.676 99.5 130.239 109.15C128.632 112.825 128.502 115.044 129.008 119.154C130.154 118.005 131.373 116.837 132.672 115.639C144.61 112.944 146.897 116.897 148.084 127.535L142.135 139.161L144.839 146.191M182.151 114.287C182.151 126.724 158.087 150.517 144.839 146.191M182.151 114.287C183.503 113.476 185.395 114.287 185.666 115.368C184.043 128.346 158.628 154.032 145.921 148.895C144.747 148.42 144.298 147.002 144.839 146.191" stroke="black"/>
<path d="M220.544 179.447C208.918 221.896 176.473 238.118 119.694 229.737C220.544 232.981 227.844 134.024 178.906 129.698C178.606 128.072 178.084 127.526 176.202 127.535C173.651 107.257 142.551 97.8425 130.239 109.15C137.677 99.5 142.812 97.6009 153.491 99.6867C163.3 99.5873 169.705 103.332 182.151 114.287C198.104 118.572 204.904 123.141 214.325 134.024C220.544 142.406 225.14 153.491 220.544 179.447Z" fill="url(#paint6_linear_1619_2422)" fill-opacity="0.3"/>
<path d="M182.151 114.286C182.151 126.724 158.087 150.516 144.839 146.19C144.298 147.002 144.746 148.42 145.921 148.894C158.628 154.031 184.314 129.427 185.666 115.368C185.395 114.286 183.503 113.475 182.151 114.286Z" fill="#5E536C" stroke="black"/>
<path d="M90.7643 113.476C105.812 96.6544 114.516 98.1931 130.239 109.15C128.633 112.825 128.502 115.044 129.008 119.154C121.613 126.572 117.321 133.205 114.831 142.135H107.528L105.318 139.161C108.404 129.469 108.948 124.14 107.528 119.154C105.448 111.853 98.3348 107.527 89.5959 115.639C89.9827 114.943 90.3716 114.223 90.7643 113.476Z" fill="#454057"/>
<path d="M132.672 115.639C131.373 116.837 130.154 118.005 129.008 119.154M129.008 119.154C128.502 115.044 128.633 112.825 130.239 109.15C114.516 98.1931 105.812 96.6544 90.7643 113.476C90.3716 114.223 89.9827 114.943 89.5959 115.639C98.3348 107.527 105.448 111.853 107.528 119.154C108.948 124.14 108.404 129.469 105.318 139.161L107.528 142.135H114.831C117.321 133.205 121.613 126.572 129.008 119.154Z" stroke="black"/>
<path d="M90.7643 113.476C105.812 96.6544 114.516 98.1931 130.239 109.15C129.153 111.633 128.742 113.452 128.745 115.639C115.773 106.899 107.528 105.094 104.214 113.476C100.85 110.365 95.6077 110.059 89.5959 115.639C89.9827 114.943 90.3716 114.223 90.7643 113.476Z" fill="#322F3F"/>
<path d="M108.879 117.531C104.581 123.094 96.2871 124.994 92.9272 122.398C89.5673 119.802 92.116 113.746 97.4647 108.947C103.451 103.576 106.871 102.227 110.231 104.823C113.591 107.419 113.177 111.969 108.879 117.531Z" fill="#70698C"/>
<path d="M145.109 115.368C142.921 122.048 136.921 127.205 132.886 125.884C132.672 125.372 128.726 117.902 131.591 111.312C134.294 105.094 139.274 102.209 143.309 103.531C145.92 104.823 147.297 108.688 145.109 115.368Z" fill="#70698C"/>
<circle cx="122.628" cy="110.861" r="27.8611" fill="url(#paint7_linear_1619_2422)"/>
<mask id="mask0_1619_2422" style="mask-type:alpha" maskUnits="userSpaceOnUse" x="94" y="83" width="57" height="56">
<circle cx="122.628" cy="110.861" r="27.8611" fill="#D9D9D9"/>
</mask>
<g mask="url(#mask0_1619_2422)">
<path d="M114.732 130.762C107.382 126.949 103.946 125.706 98.8116 124.792L97.8486 127.809L102.471 136.604L126.48 142.446L136.495 135.063C135.339 133.779 132.065 135.469 130.974 135.063C119.419 130.762 117.878 132.394 114.732 130.762Z" fill="url(#paint8_linear_1619_2422)"/>
<path d="M136.11 127.809C138.932 129.956 140.495 130.636 143.235 130.634L145.739 128.13L138.613 126.525L125.004 123.893L120.895 125.305C126.856 127.517 129.988 128.655 131.231 128.579C134.055 128.451 135.211 127.296 136.11 127.809Z" fill="#923446"/>
<path d="M102.856 114.585C104.245 115.493 104.786 116.048 105.488 117.088L95.4734 114.585L92.9697 109.513C96.3927 111.609 98.2118 112.811 102.856 114.585Z" fill="#923446"/>
<path d="M146.317 96.2888C138.677 95.9678 122.574 92.6896 109.083 86.531L106.579 87.1088L100.673 92.3087C119.547 97.8295 136.495 101.81 150.361 103.415L147.922 96.6098L146.317 96.2888Z" fill="url(#paint9_linear_1619_2422)"/>
<path d="M151.067 110.155V105.533C149.112 105.533 147.117 105.468 145.097 105.344C144.612 106.829 143.943 107.665 141.438 109.168C144.852 109.052 147.611 109.742 151.067 110.155Z" fill="url(#paint10_linear_1619_2422)"/>
<path d="M99.4535 94.1703L97.5276 97.5085C102.063 99.8406 106.422 101.711 111.587 103.32C113.93 104.203 116.45 104.938 119.29 105.596C125.974 104.311 129.019 103.882 132.579 103.892C120.756 101.925 108.928 98.3624 99.4535 94.1703Z" fill="url(#paint11_linear_1619_2422)"/>
<path d="M121.665 125.313C126.608 124.999 134.055 128.323 145.354 128.323L147.344 125.049C141.039 125.132 131.68 123.701 127.764 122.802C123.848 121.903 123.013 117.409 116.658 116.832C120.687 118.772 122.043 119.879 122.179 121.903C116.646 122.393 114.034 121.93 110.559 119.335C104.536 116.031 100.862 114.695 93.9968 112.851L92.7771 117.987C92.7771 117.987 98.3622 121.518 106.964 121.903C115.567 122.288 115.567 123.829 115.567 123.829C114.92 124.41 114.066 124.348 111.587 123.508C115.246 126.782 116.722 125.626 121.665 125.313Z" fill="url(#paint12_linear_1619_2422)"/>
<path d="M114.989 118.886C117.493 118.18 119.249 118.302 119.675 120.491C118.006 123.059 112.485 119.592 114.989 118.886Z" fill="url(#paint13_linear_1619_2422)"/>
<path d="M106.643 129.607C105.853 128.28 104.076 128.066 104.332 130.441C105.36 132.239 106.959 132.072 107.299 131.918C107.621 131.772 107.299 131.083 106.643 129.607Z" fill="url(#paint14_linear_1619_2422)"/>
<path d="M134.89 104.257C130.332 104.955 127.157 105.027 121.986 106.181C126.783 107.156 132.481 107.998 139.64 108.99C142.194 107.796 143.291 107.023 144.07 105.276C141.049 105.06 137.975 104.715 134.89 104.257Z" fill="url(#paint15_linear_1619_2422)"/>
<path d="M132.001 119.913L149.527 120.876L148.885 123.187C136.944 121.903 131.359 120.619 124.875 120.426C124.118 118.694 122.507 117.691 118.327 115.868C121.473 115.291 124.875 119.913 132.001 119.913Z" fill="url(#paint16_linear_1619_2422)"/>
<path d="M132.579 113.878L151.003 116.639L151.709 114.97L128.021 111.182H120.702L106.194 106.945L94.9598 101.745L94.2537 103.671L103.049 106.945L117.749 111.824L123.078 113.044L126.288 112.338L132.579 113.878Z" fill="url(#paint17_linear_1619_2422)"/>
<path d="M142.401 94.8122C136.816 96.2246 131.744 92.2444 121.344 91.0889C130.35 93.5972 138.549 96.4171 144.07 97.8937L140.411 95.7752L142.401 94.8122Z" fill="#923240"/>
<path d="M115.374 96.0962C113.512 95.9678 111.009 92.8864 102.984 91.0889L101.058 92.3086C103.236 93.619 104.714 94.2909 107.606 95.069C114.76 96.3443 118.69 97.1895 125.517 98.985C121.768 97.0032 120.317 95.8394 115.374 96.0962Z" fill="#923240"/>
<path d="M139.319 110.476C145.085 110.382 147.86 110.606 150.489 112.402L151.003 114.071C142.724 113.027 138.087 112.204 129.818 110.476C124.554 109.376 113.32 109.256 113.32 107.78C113.356 107.089 110.375 106.666 105.488 105.918C104.104 105.74 103.253 105.414 101.572 104.313C99.6601 103.086 99.5177 104.313 95.1523 102.323L95.9227 100.333C97.145 101.297 98.2983 101.755 101.765 102.323C105.681 103.864 106.515 106.047 109.34 106.368C114.411 106.368 118.584 108.358 121.152 108.358C124.352 108.5 126.165 108.692 129.433 109.256C133.306 110.074 135.473 110.423 139.319 110.476Z" fill="#923240"/>
<path d="M119.804 138.658C76.5354 113.172 115.823 72.4079 144.455 93.4L141.694 83.578L116.401 79.2126L93.9967 93.4L88.6042 128.451L105.295 138.658H119.804Z" fill="#831F37" fill-opacity="0.26"/>
</g>
<circle cx="122.628" cy="110.861" r="27.3611" stroke="black"/>
<path d="M89.596 115.638C98.3348 107.527 105.448 111.853 107.528 119.153C108.706 123.29 108.533 127.662 106.677 134.565C107.528 136.728 105.905 140.513 104.283 141.594C92.6724 140.509 86.8927 138.152 77.7864 131.05C77.7864 128.346 79.9138 126.784 81.9526 126.724C84.7357 123.525 87.1238 120.083 89.596 115.638Z" fill="#1E4D77"/>
<path d="M81.9526 126.724C84.7357 123.525 87.1238 120.083 89.596 115.638C98.3348 107.527 105.448 111.853 107.528 119.153C108.706 123.29 108.533 127.662 106.677 134.565M81.9526 126.724C90.373 133.108 95.7981 134.794 106.677 134.565M81.9526 126.724C79.9138 126.784 77.7864 128.346 77.7864 131.05C86.8927 138.152 92.6724 140.509 104.283 141.594C105.905 140.513 107.528 136.728 106.677 134.565" stroke="black"/>
<path d="M107.527 119.153C108.706 123.29 108.532 127.662 106.677 134.565C107.527 136.728 105.905 140.513 104.283 141.594C101.982 141.379 99.9092 141.114 97.9946 140.772C101.239 141.262 102.861 136.457 101.239 134.483C108.81 124.29 103.238 111.843 95.0205 112.018C101.185 109.545 105.899 113.437 107.527 119.153Z" fill="#0F283F"/>
<path d="M106.677 134.565C108.532 127.662 108.706 123.29 107.527 119.153C105.899 113.437 101.185 109.545 95.0205 112.018C103.238 111.843 108.81 124.29 101.239 134.483M106.677 134.565C107.527 136.728 105.905 140.513 104.283 141.594C101.982 141.379 99.9092 141.114 97.9946 140.772C101.239 141.262 102.861 136.457 101.239 134.483M106.677 134.565C104.702 134.606 102.906 134.585 101.239 134.483" stroke="black"/>
<path d="M132.672 115.638C136.728 111.853 150.787 114.557 148.084 127.535C145.38 140.512 146.154 135.175 145.551 138.35C146.732 139.701 145.92 144.838 144.569 145.92C136.457 147.001 121.487 143.059 116.179 137.809C115.098 135.375 117.692 131.265 119.49 131.049C121.886 126.986 124.988 123.186 129.008 119.153C130.154 118.004 128.617 119.423 132.672 115.638Z" fill="#1E4D77"/>
<path d="M119.49 131.049C121.886 126.986 124.988 123.186 129.008 119.153C130.154 118.004 128.617 119.423 132.672 115.638C136.728 111.853 150.787 114.557 148.084 127.535C145.38 140.512 146.154 135.175 145.551 138.35M119.49 131.049C125.372 137.268 139.972 140.783 145.551 138.35M119.49 131.049C117.692 131.265 115.098 135.375 116.179 137.809C121.487 143.059 136.457 147.001 144.569 145.92C145.92 144.838 146.732 139.701 145.551 138.35" stroke="black"/>
<path d="M132.672 115.638C136.728 111.853 150.787 114.557 148.084 127.535C145.38 140.512 146.154 135.175 145.551 138.35C146.732 139.701 145.921 144.838 144.569 145.92C142.719 146.167 140.512 146.152 138.144 145.92C141.255 144.568 141.795 140.836 140.173 139.161C151.529 122.721 140.173 112.394 132.672 115.638Z" fill="#0F283F"/>
<path d="M145.551 138.35C146.154 135.175 145.38 140.512 148.084 127.535C150.787 114.557 136.728 111.853 132.672 115.638C140.173 112.394 151.529 122.721 140.173 139.161M145.551 138.35C146.732 139.701 145.921 144.838 144.569 145.92C142.719 146.167 140.512 146.152 138.144 145.92C141.255 144.568 141.795 140.836 140.173 139.161M145.551 138.35C144.146 138.962 142.439 139.251 140.173 139.161" stroke="black"/>
<path d="M60.087 236.934C46.6516 236.329 40.2751 228.022 29.2644 210.708L28.5781 171.606C42.3672 160.25 38.1867 156.092 54.6795 142.303C64.5313 137.501 73.5496 135.228 79.8243 145.548L97.3987 150.414C121.818 164.241 126.869 177.452 122.543 217.738C124.812 235.194 105.78 246.938 71.9835 248.29L60.087 236.934Z" fill="url(#paint18_linear_1619_2422)" stroke="black"/>
<path d="M71.9836 248.29C105.78 246.938 124.812 235.194 122.544 217.738C123.23 217.055 119.771 212.498 115.514 213.682L71.9836 248.29Z" fill="url(#paint19_linear_1619_2422)"/>
<path d="M33.3199 189.889C35.7533 182.859 36.0236 180.155 28.9939 174.748L11.4196 172.855L9.25659 178.803L33.3199 189.889Z" fill="#984A32"/>
<path d="M101.184 209.085C93.7444 207.94 89.1331 208.798 79.2835 215.845L73.876 219.9L70.6315 239.097L95.2356 236.664L101.184 209.085Z" fill="#984A32"/>
<path d="M33.3199 189.889C35.7533 182.859 36.0236 180.155 28.9939 174.748L11.4196 172.855L9.25659 178.803L33.3199 189.889Z" stroke="#984A32" stroke-width="0.5"/>
<path d="M101.184 209.085C93.7444 207.94 89.1331 208.798 79.2835 215.845L73.876 219.9L70.6315 239.097L95.2356 236.664L101.184 209.085Z" stroke="#984A32" stroke-width="0.5"/>
<path d="M31.9682 213.682C18.5678 208.321 9.25672 198.811 3.57886 185.833L37.1053 200.433C36.1974 205.586 36.1945 209.562 31.9682 213.682Z" fill="url(#paint20_linear_1619_2422)" stroke="#B85F37" stroke-width="0.5"/>
<path d="M119.569 170.692C116.946 165.527 115.08 162.9 110.106 159.336C107.42 163.398 105.51 164.203 101.454 166.096C97.3987 167.988 98.7506 178.533 105.24 178.533C111.728 178.533 115.451 176.057 119.569 170.692Z" fill="#FFF6D5"/>
<path d="M65.2241 185.833C62.7908 175.289 75.8936 161.061 81.0307 164.846C83.658 166.483 85.2392 168.501 86.0104 170.679L82.3826 169.983L84.2752 172.417L86.5714 173.498C87.2069 184.535 71.0809 197.128 65.2241 185.833Z" fill="#FFF6D5"/>
<path d="M67.512 156.735C61.023 152.139 45.7572 164.744 49.2721 175.289C55.2203 183.129 74.1259 163.765 67.512 156.735Z" fill="#FFF6D5"/>
<path d="M66.3056 138.518C61.7054 138.419 59.365 139.293 55.4906 142.033C53.7033 145.722 53.6213 148.119 55.4906 153.118C59.7443 152.751 62.116 151.472 66.3056 146.629C64.6109 144.358 64.2052 142.796 66.3056 138.518Z" fill="#FFF6D5"/>
<path d="M119.569 170.692C116.946 165.527 115.08 162.9 110.106 159.336C107.42 163.398 105.51 164.203 101.454 166.096C97.3987 167.988 98.7506 178.533 105.24 178.533C111.728 178.533 115.451 176.057 119.569 170.692Z" stroke="#B85F37" stroke-width="0.5"/>
<path d="M65.2241 185.833C62.7908 175.289 75.8936 161.061 81.0307 164.846C83.658 166.483 85.2392 168.501 86.0104 170.679L82.3826 169.983L84.2752 172.417L86.5714 173.498C87.2069 184.535 71.0809 197.128 65.2241 185.833Z" stroke="#B85F37" stroke-width="0.5"/>
<path d="M67.512 156.735C61.023 152.139 45.7572 164.744 49.2721 175.289C55.2203 183.129 74.1259 163.765 67.512 156.735Z" stroke="#B85F37" stroke-width="0.5"/>
<path d="M66.3056 138.518C61.7054 138.419 59.365 139.293 55.4906 142.033C53.7033 145.722 53.6213 148.119 55.4906 153.118C59.7443 152.751 62.116 151.472 66.3056 146.629C64.6109 144.358 64.2052 142.796 66.3056 138.518Z" stroke="#B85F37" stroke-width="0.5"/>
<path d="M66.4873 154.306C63.6734 157.488 61.7418 158.104 60.4291 157.117C58.3226 155.532 59.6692 153.475 61.7336 150.731C63.7981 147.986 65.7171 147.218 67.4587 147.924C70.1213 149.004 69.3513 151.709 66.4873 154.306Z" fill="black"/>
<path d="M60.429 156.846C58.1944 154.74 58.4648 152.307 61.4389 149.603" stroke="black"/>
<circle cx="63.186" cy="152.409" r="0.540748" fill="#D9D9D9"/>
<path d="M67.6575 153.659C75.7687 164.203 89.017 164.203 97.669 153.659C96.5875 135.544 71.7131 129.595 67.6575 153.659Z" fill="#FFF6D5" stroke="#B96038" stroke-width="0.5"/>
<path d="M87.1244 146.899C80.6355 148.792 72.5243 143.655 71.9835 141.492C71.4427 139.329 80.0947 136.085 83.0688 137.707C86.0429 139.329 88.7467 145.818 87.1244 146.899Z" fill="black" stroke="black"/>
<path d="M94.3182 165.285C93.7774 168.259 91.0737 170.151 87.8292 171.233C82.0124 171.233 80.7116 169.516 80.9282 167.177C80.9834 166.581 81.1373 165.944 81.3402 165.285C82.1722 162.581 84.5847 161.499 87.8292 160.688C91.8848 160.688 94.3182 161.999 94.3182 165.285Z" fill="black"/>
<path d="M94.3182 165.285C93.7774 168.259 91.0737 170.151 87.8292 171.233C82.0124 171.233 80.7116 169.516 80.9282 167.177C80.9834 166.581 81.1373 165.944 81.3402 165.285C82.1722 162.581 84.5847 161.499 87.8292 160.688C91.8848 160.688 94.3182 161.999 94.3182 165.285Z" stroke="black"/>
<path d="M81.6107 166.907C81.0699 173.667 91.0738 176.641 95.9404 170.693" stroke="black" stroke-width="2"/>
<circle cx="86.0433" cy="164.203" r="0.811123" fill="#D9D9D9"/>
<ellipse cx="89.2875" cy="165.014" rx="1.35187" ry="1.0815" transform="rotate(-30.2426 89.2875 165.014)" fill="#D9D9D9"/>
<path d="M37.6459 190.43C41.972 194.756 39.5386 203.678 33.3199 203.678C7.09377 197.73 -6.96574 177.182 5.74175 171.774C21.171 168.405 27.5554 168.874 33.3199 175.559C24.3492 174.941 19.7266 174.994 13.6058 177.182C17.2569 181.322 22.6244 184.571 37.6459 190.43Z" fill="#FFF6D5"/>
<path d="M76.5799 233.339C93.3888 225.643 100.841 220.097 100.102 207.464C113.574 208.922 116.324 211.519 116.979 218.008C119.569 243.694 63.3316 255.32 60.3574 243.694C59.4257 227.514 60.5832 219.216 72.7947 209.086C77.8256 207.267 79.4644 208.848 81.717 213.141C77.3231 220.522 76.0833 224.92 76.5799 233.339Z" fill="#FFF6D5"/>
<path d="M11.69 174.748C12.3032 175.606 12.9246 176.409 13.6058 177.182M13.6058 177.182C17.2569 181.322 22.6244 184.571 37.6459 190.43C41.972 194.756 39.5386 203.678 33.3199 203.678C7.09377 197.73 -6.96574 177.182 5.74175 171.774C21.171 168.405 27.5554 168.874 33.3199 175.559C24.3492 174.941 19.7266 174.994 13.6058 177.182ZM72.7947 235.042C74.1054 234.461 75.367 233.894 76.5799 233.339M76.5799 233.339C93.3888 225.643 100.841 220.097 100.102 207.464C113.574 208.922 116.324 211.519 116.979 218.008C119.569 243.694 63.3316 255.32 60.3574 243.694C59.4257 227.514 60.5832 219.216 72.7947 209.086C77.8256 207.267 79.4644 208.848 81.717 213.141C77.3231 220.522 76.0833 224.92 76.5799 233.339Z" stroke="#B85F37" stroke-width="0.5"/>
<defs>
<linearGradient id="paint0_linear_1619_2422" x1="139.705" y1="1" x2="227.574" y2="179.988" gradientUnits="userSpaceOnUse">
<stop stop-color="#A74721"/>
<stop offset="1" stop-color="#FCC09B"/>
</linearGradient>
<linearGradient id="paint1_linear_1619_2422" x1="131.591" y1="-0.352338" x2="209.188" y2="209.458" gradientUnits="userSpaceOnUse">
<stop stop-color="#FFC796"/>
<stop offset="1" stop-color="#FEBC81" stop-opacity="0"/>
</linearGradient>
<linearGradient id="paint2_linear_1619_2422" x1="131.591" y1="-0.352338" x2="209.188" y2="209.458" gradientUnits="userSpaceOnUse">
<stop stop-color="#FFC796"/>
<stop offset="1" stop-color="#FEBC81" stop-opacity="0"/>
</linearGradient>
<linearGradient id="paint3_linear_1619_2422" x1="131.591" y1="-0.352338" x2="209.188" y2="209.458" gradientUnits="userSpaceOnUse">
<stop stop-color="#FFC796"/>
<stop offset="1" stop-color="#FEBC81" stop-opacity="0"/>
</linearGradient>
<linearGradient id="paint4_linear_1619_2422" x1="131.591" y1="-0.352338" x2="209.188" y2="209.458" gradientUnits="userSpaceOnUse">
<stop stop-color="#FFC796"/>
<stop offset="1" stop-color="#FEBC81" stop-opacity="0"/>
</linearGradient>
<linearGradient id="paint5_linear_1619_2422" x1="131.591" y1="-0.352338" x2="209.188" y2="209.458" gradientUnits="userSpaceOnUse">
<stop stop-color="#FFC796"/>
<stop offset="1" stop-color="#FEBC81" stop-opacity="0"/>
</linearGradient>
<linearGradient id="paint6_linear_1619_2422" x1="155.314" y1="86.7089" x2="171.955" y2="232.13" gradientUnits="userSpaceOnUse">
<stop offset="0.132447" stop-color="#050505"/>
<stop offset="1" stop-color="#322E40" stop-opacity="0.29"/>
</linearGradient>
<linearGradient id="paint7_linear_1619_2422" x1="94.2535" y1="110.861" x2="119.932" y2="110.861" gradientUnits="userSpaceOnUse">
<stop stop-color="#BB2A4B"/>
<stop offset="0.997353" stop-color="#DA5254"/>
</linearGradient>
<linearGradient id="paint8_linear_1619_2422" x1="105.039" y1="129.799" x2="129.562" y2="137.246" gradientUnits="userSpaceOnUse">
<stop stop-color="#A4293E"/>
<stop offset="1" stop-color="#A9343C"/>
</linearGradient>
<linearGradient id="paint9_linear_1619_2422" x1="114.09" y1="92.758" x2="141.759" y2="102.323" gradientUnits="userSpaceOnUse">
<stop stop-color="#E9A17B"/>
<stop offset="1" stop-color="#F9D1A0"/>
</linearGradient>
<linearGradient id="paint10_linear_1619_2422" x1="114.09" y1="92.758" x2="141.759" y2="102.323" gradientUnits="userSpaceOnUse">
<stop stop-color="#E9A17B"/>
<stop offset="1" stop-color="#F9D1A0"/>
</linearGradient>
<linearGradient id="paint11_linear_1619_2422" x1="114.09" y1="92.758" x2="141.759" y2="102.323" gradientUnits="userSpaceOnUse">
<stop stop-color="#E9A17B"/>
<stop offset="1" stop-color="#F9D1A0"/>
</linearGradient>
<linearGradient id="paint12_linear_1619_2422" x1="114.09" y1="92.758" x2="141.759" y2="102.323" gradientUnits="userSpaceOnUse">
<stop stop-color="#E9A17B"/>
<stop offset="1" stop-color="#F9D1A0"/>
</linearGradient>
<linearGradient id="paint13_linear_1619_2422" x1="114.09" y1="92.758" x2="141.759" y2="102.323" gradientUnits="userSpaceOnUse">
<stop stop-color="#E9A17B"/>
<stop offset="1" stop-color="#F9D1A0"/>
</linearGradient>
<linearGradient id="paint14_linear_1619_2422" x1="114.09" y1="92.758" x2="141.759" y2="102.323" gradientUnits="userSpaceOnUse">
<stop stop-color="#E9A17B"/>
<stop offset="1" stop-color="#F9D1A0"/>
</linearGradient>
<linearGradient id="paint15_linear_1619_2422" x1="114.09" y1="92.758" x2="141.759" y2="102.323" gradientUnits="userSpaceOnUse">
<stop stop-color="#E9A17B"/>
<stop offset="1" stop-color="#F9D1A0"/>
</linearGradient>
<linearGradient id="paint16_linear_1619_2422" x1="113.384" y1="116.96" x2="145.482" y2="110.027" gradientUnits="userSpaceOnUse">
<stop stop-color="#A01F45"/>
<stop offset="1" stop-color="#AC3839"/>
</linearGradient>
<linearGradient id="paint17_linear_1619_2422" x1="113.384" y1="116.96" x2="145.482" y2="110.027" gradientUnits="userSpaceOnUse">
<stop stop-color="#A01F45"/>
<stop offset="1" stop-color="#AC3839"/>
</linearGradient>
<linearGradient id="paint18_linear_1619_2422" x1="92.5319" y1="148.251" x2="50.8943" y2="209.356" gradientUnits="userSpaceOnUse">
<stop stop-color="#FECFA4"/>
<stop offset="1" stop-color="#B96038"/>
</linearGradient>
<linearGradient id="paint19_linear_1619_2422" x1="120.651" y1="213.141" x2="71.7133" y2="251.264" gradientUnits="userSpaceOnUse">
<stop stop-color="#D28664"/>
<stop offset="1" stop-color="#B96038"/>
</linearGradient>
<linearGradient id="paint20_linear_1619_2422" x1="6.55297" y1="188.807" x2="36.0238" y2="209.626" gradientUnits="userSpaceOnUse">
<stop stop-color="#B96038"/>
<stop offset="1" stop-color="#78391C"/>
</linearGradient>
</defs>
</svg>
