<svg width="226" height="233" viewBox="0 0 226 233" fill="none" xmlns="http://www.w3.org/2000/svg">
<path d="M113.642 67.7025C93.1421 75.2025 94.1422 89.2025 71.1422 102.702C71.6398 94.7017 55.0616 122.727 63.1398 115.702C59.1398 124.702 51.1398 124.702 47.1398 136.702C42.6398 141.202 45.6422 123.702 24.1398 154.202C8.63965 163.702 -7.36033 188.702 3.63979 192.202C9.09534 194.146 11.5987 197.071 15.6396 203.702C30.7909 199.327 40.497 199.032 36.6396 192.202C42.3849 188.31 43.7028 184.529 42.6396 174.702C45.6422 167.702 55.6396 169.202 67.6396 148.202C73.5658 145.88 74.4288 147.079 71.6398 153.202C68.8508 159.324 50.7652 167.161 45.6422 177.202C37.6274 207.125 59.6412 247.202 82.1405 227.702C104.64 208.202 109.54 209.487 112.642 207.202C119.829 206.257 124.642 210.202 131.642 208.202C140.767 197.48 145.538 192.176 149.642 191.702C162.642 190.702 178.45 177.81 171.142 169.202C169.642 154.202 191.142 144.202 181.642 138.702C183.642 121.702 193.142 118.705 198.642 107.702C199.148 106.69 199.131 106.328 197.642 106.702C187.664 112.142 183.071 116.217 176.642 125.202C173.12 125.713 171.558 125.439 172.642 119.702L225.642 65.7017V32.2017L194.142 63.7017C191.305 66.931 189.366 67.5373 185.642 67.7025L187.642 62.7017C188.615 58.3968 188.138 57.4874 183.642 61.2017C174.956 67.1985 154.623 89.482 126.142 119.702L125.642 119.202C128.286 115.346 129.936 112.878 133.142 107.702C133.695 105.955 133.736 105.131 130.142 105.702C137.483 92.9511 143.468 86.4507 155.142 75.2025C155.487 73.8326 155.204 73.552 152.642 75.2025C126.456 95.4853 118.142 103.702 107.142 117.702C104.617 118.813 102.42 119.02 98.1422 119.202C101.703 116.137 102.642 113.702 105.642 110.202C108.642 106.702 109.142 104.702 107.142 106.702C105.142 108.703 88.224 122.304 74.1422 131.202L72.6422 129.702C73.9829 125.24 75.7427 122.971 80.1422 119.202C92.6427 110.473 98.8001 104.616 107.142 91.2025C107.605 90.9222 165.642 32.7017 177.642 22.0987C189.642 11.4957 194.497 5.19471 195.142 4.20249C197.466 0.630344 198.142 -1.79789 193.142 1.70249C188.142 5.20287 145.588 42.1184 110.142 75.2025C115.016 69.0566 115.02 68.1132 113.642 67.7025Z" fill="#EFE9D3"/>
<path d="M34.1395 172.201C31.6393 167.298 29.5838 165.981 23.6395 168.701C17.596 169.189 14.9644 170.063 14.1395 174.701C10.5619 178.262 9.35076 180.415 9.63954 184.701C5.35236 190.93 11.0632 193.281 19.6395 197.701C26.6395 197.701 31.6395 192.701 34.1395 184.701C38.1395 179.201 38.1395 177.701 34.1395 172.201Z" fill="#E82338"/>
<path d="M56.1396 183.201C55.2726 189.115 55.2066 196.306 56.1396 201.702L65.6396 209.701L97.1396 208.202C97.1396 208.202 101.14 195.7 99.6396 190.201C98.1396 184.701 95.1802 184.758 93.6396 180.701C90.1573 179.064 88.2576 177.91 85.1396 174.701C79.5333 172.835 76.2653 172.714 70.1396 174.701L69.9621 174.844C64.2379 179.458 60.9756 182.087 56.1396 183.201Z" fill="#E82338"/>
<path d="M116.14 177.701C114.609 182.071 113.761 185.4 111.14 191.701L121.14 196.201L136.64 189.701C137.281 184.87 137.64 180.701 133.64 176.201C129.64 171.701 122.533 169.389 116.14 177.701Z" fill="#E82338"/>
<path d="M142.64 119.701C139.028 114.288 135.04 124.552 126.64 138.202L133.64 144.702L149.64 139.201C155.035 123.425 155.293 111.585 142.64 119.701Z" fill="#E82338"/>
<path d="M47.1396 148.202C41.6396 149.202 40.2457 153.345 39.1396 158.702L52.6396 156.202C53.8649 151.032 52.6396 147.202 47.1396 148.202Z" fill="#E82338"/>
<path d="M68.1393 190.201C61.8352 183.785 59.5312 186.655 56.6393 198.201C55.1954 202.479 57.0584 206.051 62.1393 213.201H68.6393C76.0842 218.883 78.5163 219.591 80.6393 217.701L88.6393 216.201C92.8266 213.257 94.6822 211.505 97.1393 208.201L97.6393 200.201C97.0834 194.204 97.4959 189.955 86.1393 197.201C83.196 198.042 82.1135 197.632 80.6393 196.201C76.4996 187.144 73.8934 184.657 68.1393 190.201Z" fill="#23262B"/>
<path d="M34.1142 184.828C32.5903 192.254 28.1863 196.853 19.1396 197.702C20.9288 190.408 22.7264 190.319 26.1396 191.202C27.2515 186.223 29.9153 185.818 34.1142 184.828Z" fill="#23262B"/>
<path d="M14.6396 187.703C12.9329 185.235 9.83787 183.471 9.13965 185.703C9.63965 192.703 20.1396 193.203 19.1396 187.703C18.4786 186.993 17.7172 186.852 14.6396 187.703Z" fill="#23262B"/>
<path d="M136.64 190.201C129.887 188.217 130.64 186.703 119.64 195.203C120.284 191.45 121.499 189.372 124.64 185.703C121.993 183.688 120.214 183.279 116.14 184.703C112.797 188.072 111.343 189.229 111.5 192.5C125.5 203.5 133.1 201.961 136.64 190.201Z" fill="#23262B"/>
<path d="M126.682 137.891C126.664 137.827 126.65 137.764 126.64 137.703C126.653 137.766 126.668 137.829 126.682 137.891C126.965 138.886 128.259 140.206 131.64 138.703C135.24 137.103 136.806 135.703 137.14 135.203C140.235 133.637 141.09 133.964 142.14 135.203L144.64 139.703C145.473 138.37 147.14 136.103 147.14 137.703L147.64 140.203C147.64 140.203 154.14 124.704 150.64 137.203C147.159 149.633 129.337 149.207 126.682 137.891Z" fill="#23262B"/>
<path d="M17.5 176.5C19.3129 176.321 20.0193 175.559 21 174C22.1317 172.996 22.4117 173.461 22.5 175.5C21.9532 177.069 21.2276 177.72 19.1396 178.5C16.7162 177.572 16.3853 177.103 17.5 176.5Z" fill="#23262B"/>
<path d="M161.64 97.7025C162.64 91.7034 158.949 96.0905 156.449 100.633C157.637 105.178 160.64 103.702 161.64 97.7025Z" fill="#23262B"/>
<path d="M86.1396 148.702C82.6396 147.202 92.1396 138.702 92.6396 142.702C93.1396 146.702 89.6396 150.202 86.1396 148.702Z" fill="#23262B"/>
<path d="M144.14 154.702C143.14 150.202 141.791 153.249 140.64 158.202C143.672 159.861 145.14 159.202 144.14 154.702Z" fill="#23262B"/>
<path d="M65.6396 128.702C59.73 130.646 58.3437 131.951 59.6396 134.702C66.6396 133.202 69.5381 130.578 65.6396 128.702Z" fill="#23262B"/>
<path d="M65.0869 205.121C61.5869 203.621 71.0869 195.121 71.5869 199.121C72.0869 203.121 68.5869 206.621 65.0869 205.121Z" fill="#E82338"/>
<path d="M92.1396 202.202C86.2301 204.146 84.8437 205.451 86.1396 208.202C93.1397 206.702 96.0381 204.078 92.1396 202.202Z" fill="#E82338"/>
<path d="M65.0869 205.121C61.5869 203.621 71.0869 195.121 71.5869 199.121C72.0869 203.121 68.5869 206.621 65.0869 205.121Z" stroke="#23262B"/>
<path d="M92.1396 202.202C86.2301 204.146 84.8437 205.451 86.1396 208.202C93.1397 206.702 96.0381 204.078 92.1396 202.202Z" stroke="#23262B"/>
<path d="M166.64 138.701C162.895 139.48 161.952 141.617 161.14 146.701L174.14 144.701C174.379 139.23 170.477 134.53 166.64 138.701Z" fill="#E82338"/>
</svg>
