<svg width="148" height="145" viewBox="0 0 148 145" fill="none" xmlns="http://www.w3.org/2000/svg">
<g id="Group 233">
<g id="MOON">
<path id="Ellipse 41" d="M74.7377 142.662C114.466 142.022 146.22 109.973 145.593 71.0118C144.965 32.0505 112.195 1.04065 72.4667 1.68062C32.7379 2.32058 0.983927 34.3699 1.61153 73.3311C2.23914 112.292 35.0089 143.302 74.7377 142.662Z" fill="#A8A9AD" stroke="white" stroke-width="3"/>
<g id="Moon">
<g id="MOON_2">
<g id="moon">
<ellipse id="Ellipse 45" cx="118.4" cy="22.15" rx="4.5" ry="2.5" transform="rotate(36.1299 118.4 22.15)" fill="#535257"/>
<ellipse id="Ellipse 44" cx="79.9917" cy="16.5566" rx="3.4783" ry="1.75524" transform="rotate(12.1259 79.9917 16.5566)" fill="#58585A"/>
<ellipse id="Ellipse 46" cx="76.0143" cy="4.62385" rx="3" ry="1.5" transform="rotate(-0.922865 76.0143 4.62385)" fill="#58585A"/>
<g id="Group 216">
<ellipse id="Ellipse 48" cx="58.5733" cy="8.40528" rx="3.5" ry="2" transform="rotate(-0.922865 58.5733 8.40528)" fill="#58585A"/>
<ellipse id="Ellipse 47" cx="52.0982" cy="10.0098" rx="5" ry="3.5" transform="rotate(-0.922865 52.0982 10.0098)" fill="#58585A"/>
<ellipse id="Ellipse 49" cx="52.09" cy="9.50989" rx="4" ry="3" transform="rotate(-0.922865 52.09 9.50989)" fill="#454648"/>
</g>
<circle id="Ellipse 51" cx="115.565" cy="38.4913" r="3" transform="rotate(-0.922865 115.565 38.4913)" fill="#4C4D4F"/>
<ellipse id="Ellipse 52" cx="116.129" cy="73.4866" rx="28" ry="26" transform="rotate(-0.922865 116.129 73.4866)" fill="#949599"/>
<ellipse id="Ellipse 53" cx="77.1096" cy="72.6152" rx="25" ry="24.5" transform="rotate(-0.922865 77.1096 72.6152)" fill="#949599"/>
<ellipse id="Ellipse 54" cx="112.193" cy="108.555" rx="17.5" ry="17" transform="rotate(-0.922865 112.193 108.555)" fill="#949599"/>
<ellipse id="Ellipse 56" cx="92.5438" cy="37.3617" rx="17" ry="16.5" transform="rotate(-0.922865 92.5438 37.3617)" fill="#949599"/>
<ellipse id="Ellipse 57" cx="39.7266" cy="111.222" rx="16" ry="15.5" transform="rotate(-0.922865 39.7266 111.222)" fill="#949599"/>
<circle id="Ellipse 58" cx="35.4626" cy="32.7806" r="13" transform="rotate(-0.922865 35.4626 32.7806)" fill="#949599"/>
<ellipse id="Ellipse 61" cx="25.6895" cy="46.9398" rx="16" ry="17" transform="rotate(-0.922865 25.6895 46.9398)" fill="#58585A"/>
<g id="Group 215">
<ellipse id="Ellipse 42" cx="101.155" cy="20.3325" rx="6.71652" ry="4.46934" transform="rotate(20.4716 101.155 20.3325)" fill="#616265"/>
<ellipse id="Ellipse 43" cx="101.539" cy="19.9766" rx="5.34528" ry="3.55688" transform="rotate(20.4716 101.539 19.9766)" fill="#4C4D4F"/>
</g>
<ellipse id="Ellipse 59" cx="33.6712" cy="72.5834" rx="20.5791" ry="30.9662" transform="rotate(11.9331 33.6712 72.5834)" fill="#575759"/>
</g>
<ellipse id="Ellipse 63" cx="9.44543" cy="80.6087" rx="2.5" ry="4" transform="rotate(-11.8962 9.44543 80.6087)" fill="#575759"/>
<ellipse id="Ellipse 64" cx="13.2797" cy="63.6623" rx="5.97923" ry="11.5" transform="rotate(-13.3987 13.2797 63.6623)" fill="#4C4D4F"/>
<ellipse id="Ellipse 65" cx="17.6155" cy="59.5123" rx="1.5" ry="2.53297" transform="rotate(-14.3523 17.6155 59.5123)" fill="#6D6E70"/>
<ellipse id="Ellipse 67" cx="18.7541" cy="82.0561" rx="5.5" ry="6" transform="rotate(-0.922865 18.7541 82.0561)" fill="#4C4D4F"/>
<circle id="Ellipse 68" cx="30.3172" cy="85.8707" r="3" transform="rotate(-0.922865 30.3172 85.8707)" fill="#4C4D51"/>
<circle id="Ellipse 69" cx="33.8249" cy="86.3139" r="2.5" transform="rotate(-0.922865 33.8249 86.3139)" fill="#6C6D71"/>
<circle id="Ellipse 70" cx="46.9681" cy="95.1034" r="6.5" transform="rotate(-0.922865 46.9681 95.1034)" fill="#575759"/>
<circle id="Ellipse 73" cx="52.7492" cy="112.512" r="6" transform="rotate(-0.922865 52.7492 112.512)" fill="#565658"/>
<ellipse id="Ellipse 75" cx="17.8613" cy="106.436" rx="4.56016" ry="7.07606" transform="rotate(-27.106 17.8613 106.436)" fill="#58585A"/>
<ellipse id="Ellipse 76" cx="18.6387" cy="105.858" rx="3.16112" ry="4.90515" transform="rotate(-27.106 18.6387 105.858)" fill="#4C4D4F"/>
<ellipse id="Ellipse 77" cx="9.50116" cy="92.0326" rx="2.8874" ry="6" transform="rotate(-17.4343 9.50116 92.0326)" fill="#E6E5EA"/>
<ellipse id="Ellipse 78" cx="32.2197" cy="110.843" rx="7.5" ry="8" transform="rotate(-0.922865 32.2197 110.843)" fill="#58585A"/>
<ellipse id="Ellipse 79" cx="33.2033" cy="109.827" rx="5.5" ry="6" transform="rotate(-0.922865 33.2033 109.827)" fill="#4C4D4F"/>
<path id="Ellipse 82" d="M88.0489 37.6978C88.2568 50.6076 65.9892 65.2046 55.3551 56.9633C43.7586 57.1501 36.7206 48.7432 36.556 38.5272C36.556 38.5272 36.7375 30.8802 57.2553 19.6914C77.7732 8.50268 91.6877 24.9887 88.0489 37.6978Z" fill="#58585A"/>
<ellipse id="Ellipse 81" cx="53.4437" cy="62.4951" rx="6.5" ry="6" transform="rotate(-0.922865 53.4437 62.4951)" fill="#4C4D51"/>
<path id="Ellipse 83" d="M54.4945 34.6C54.5345 37.085 52.3287 39.1355 49.5676 39.18C46.8066 39.2244 44.5358 37.246 44.4958 34.7611C44.4558 32.2761 46.6616 30.2256 49.4227 30.1811C52.1838 30.1367 54.4545 32.1151 54.4945 34.6Z" fill="#4A4E4F"/>
<path id="Ellipse 84" d="M65.612 41.7964C65.6876 46.4902 61.9438 50.3566 57.25 50.4322C52.5562 50.5078 48.6898 46.764 48.6142 42.0702C48.5386 37.3764 52.2824 33.51 56.9762 33.4344C61.67 33.3588 65.5364 37.1026 65.612 41.7964Z" fill="#4C4D4F"/>
<ellipse id="Ellipse 85" cx="66.1843" cy="46.2877" rx="5.5" ry="5" transform="rotate(-0.922865 66.1843 46.2877)" fill="#4C4D4F"/>
<circle id="Ellipse 86" cx="57.0164" cy="35.9341" r="1.5" transform="rotate(-0.922865 57.0164 35.9341)" fill="#6F7072"/>
<circle id="Ellipse 89" cx="57.0164" cy="35.9341" r="1.5" transform="rotate(-0.922865 57.0164 35.9341)" fill="#6F7072"/>
<circle id="Ellipse 90" cx="46.0984" cy="41.1104" r="1.5" transform="rotate(-0.922865 46.0984 41.1104)" fill="#6F7072"/>
<ellipse id="Ellipse 135" cx="38.0671" cy="39.2398" rx="2.5" ry="1.5" transform="rotate(14.4311 38.0671 39.2398)" fill="#6F7072"/>
<circle id="Ellipse 87" cx="62.2735" cy="51.8516" r="1.5" transform="rotate(-0.922865 62.2735 51.8516)" fill="#6A6B6D"/>
<circle id="Ellipse 88" cx="67.9258" cy="61.2615" r="2" transform="rotate(-0.922865 67.9258 61.2615)" fill="#F2F3F7"/>
<circle id="Ellipse 117" cx="66.3286" cy="86.2908" r="2" transform="rotate(-0.922865 66.3286 86.2908)" fill="#F2F3F7"/>
<circle id="Ellipse 118" cx="77.7545" cy="81.6059" r="2.5" transform="rotate(-0.922865 77.7545 81.6059)" fill="#F2F3F7"/>
<circle id="Ellipse 121" cx="81.3428" cy="87.049" r="3" transform="rotate(-0.922865 81.3428 87.049)" fill="#F2F3F7"/>
<circle id="Ellipse 120" cx="86.4226" cy="91.9675" r="2" transform="rotate(-0.922865 86.4226 91.9675)" fill="#F2F3F7"/>
<circle id="Ellipse 122" cx="82.391" cy="90.0321" r="1" transform="rotate(-0.922865 82.391 90.0321)" fill="#F2F3F7"/>
<circle id="Ellipse 123" cx="95.3409" cy="86.8231" r="1" transform="rotate(-0.922865 95.3409 86.8231)" fill="#F2F3F7"/>
<circle id="Ellipse 165" cx="115.499" cy="96.4999" r="1" transform="rotate(-0.922865 115.499 96.4999)" fill="#F2F3F7"/>
<circle id="Ellipse 166" cx="117.612" cy="103.467" r="1" transform="rotate(-0.922865 117.612 103.467)" fill="#F2F3F7"/>
<circle id="Ellipse 167" cx="95.631" cy="104.821" r="1" transform="rotate(-0.922865 95.631 104.821)" fill="#F2F3F7"/>
<circle id="Ellipse 124" cx="91.8012" cy="84.3801" r="0.5" transform="rotate(-0.922865 91.8012 84.3801)" fill="#F2F3F7"/>
<circle id="Ellipse 125" cx="93.6882" cy="77.3488" r="0.5" transform="rotate(-0.922865 93.6882 77.3488)" fill="#F2F3F7"/>
<circle id="Ellipse 126" cx="87.7372" cy="80.445" r="0.5" transform="rotate(-0.922865 87.7372 80.445)" fill="#F2F3F7"/>
<circle id="Ellipse 127" cx="95.2604" cy="81.8241" r="1" transform="rotate(-0.922865 95.2604 81.8241)" fill="#F2F3F7"/>
<circle id="Ellipse 128" cx="87.8017" cy="84.4445" r="0.5" transform="rotate(-0.922865 87.8017 84.4445)" fill="#F2F3F7"/>
<circle id="Ellipse 136" cx="36.9062" cy="29.257" r="0.5" transform="rotate(-0.922865 36.9062 29.257)" fill="#F2F3F7"/>
<circle id="Ellipse 137" cx="36.8256" cy="24.2575" r="0.5" transform="rotate(-0.922865 36.8256 24.2575)" fill="#F2F3F7"/>
<circle id="Ellipse 138" cx="42.841" cy="25.1608" r="0.5" transform="rotate(-0.922865 42.841 25.1608)" fill="#F2F3F7"/>
<circle id="Ellipse 139" cx="46.8244" cy="24.0969" r="0.5" transform="rotate(-0.922865 46.8244 24.0969)" fill="#F2F3F7"/>
<circle id="Ellipse 140" cx="50.7433" cy="19.0329" r="0.5" transform="rotate(-0.922865 50.7433 19.0329)" fill="#F2F3F7"/>
<circle id="Ellipse 143" cx="81.5461" cy="6.53534" r="0.5" transform="rotate(-0.922865 81.5461 6.53534)" fill="#CACBCF"/>
<circle id="Ellipse 144" cx="90.6899" cy="15.3889" r="0.5" transform="rotate(-0.922865 90.6899 15.3889)" fill="#CACBCF"/>
<circle id="Ellipse 145" cx="88.819" cy="23.4201" r="0.5" transform="rotate(-0.922865 88.819 23.4201)" fill="#CACBCF"/>
<circle id="Ellipse 146" cx="89.9155" cy="29.4035" r="0.5" transform="rotate(-0.922865 89.9155 29.4035)" fill="#CACBCF"/>
<circle id="Ellipse 155" cx="116.17" cy="44.9826" r="0.5" transform="rotate(-0.922865 116.17 44.9826)" fill="#CACBCF"/>
<circle id="Ellipse 168" cx="115.848" cy="24.985" r="0.5" transform="rotate(-0.922865 115.848 24.985)" fill="#CACBCF"/>
<circle id="Ellipse 169" cx="117.863" cy="25.9528" r="0.5" transform="rotate(-0.922865 117.863 25.9528)" fill="#CACBCF"/>
<circle id="Ellipse 201" cx="88.9948" cy="96.4269" r="0.5" transform="rotate(-0.922865 88.9948 96.4269)" fill="#CACBCF"/>
<circle id="Ellipse 202" cx="87.0434" cy="99.4587" r="0.5" transform="rotate(-0.922865 87.0434 99.4587)" fill="#CACBCF"/>
<circle id="Ellipse 203" cx="89.0915" cy="102.426" r="0.5" transform="rotate(-0.922865 89.0915 102.426)" fill="#CACBCF"/>
<circle id="Ellipse 204" cx="91.0429" cy="99.3942" r="0.5" transform="rotate(-0.922865 91.0429 99.3942)" fill="#CACBCF"/>
<circle id="Ellipse 205" cx="92.091" cy="102.378" r="0.5" transform="rotate(-0.922865 92.091 102.378)" fill="#CACBCF"/>
<circle id="Ellipse 206" cx="95.9938" cy="96.3141" r="0.5" transform="rotate(-0.922865 95.9938 96.3141)" fill="#CACBCF"/>
<circle id="Ellipse 207" cx="93.9299" cy="92.3469" r="0.5" transform="rotate(-0.922865 93.9299 92.3469)" fill="#CACBCF"/>
<circle id="Ellipse 208" cx="80.5846" cy="102.063" r="1" transform="rotate(-0.922865 80.5846 102.063)" fill="#F2F3F7"/>
<circle id="Ellipse 209" cx="71.65" cy="106.207" r="1" transform="rotate(-0.922865 71.65 106.207)" fill="#F2F3F7"/>
<circle id="Ellipse 210" cx="86.1884" cy="108.474" r="0.5" transform="rotate(-0.922865 86.1884 108.474)" fill="#CACBCF"/>
<circle id="Ellipse 211" cx="92.2199" cy="110.377" r="0.5" transform="rotate(-0.922865 92.2199 110.377)" fill="#CACBCF"/>
<circle id="Ellipse 212" cx="78.2219" cy="110.602" r="0.5" transform="rotate(-0.922865 78.2219 110.602)" fill="#CACBCF"/>
<circle id="Ellipse 213" cx="74.0612" cy="100.668" r="0.5" transform="rotate(-0.922865 74.0612 100.668)" fill="#CACBCF"/>
<circle id="Ellipse 214" cx="79.9316" cy="92.5724" r="0.5" transform="rotate(-0.922865 79.9316 92.5724)" fill="#CACBCF"/>
<circle id="Ellipse 215" cx="89.027" cy="98.4265" r="0.5" transform="rotate(-0.922865 89.027 98.4265)" fill="#CACBCF"/>
<circle id="Ellipse 216" cx="89.1721" cy="107.425" r="0.5" transform="rotate(-0.922865 89.1721 107.425)" fill="#CACBCF"/>
<circle id="Ellipse 217" cx="91.4616" cy="125.391" r="0.5" transform="rotate(-0.922865 91.4616 125.391)" fill="#CACBCF"/>
<circle id="Ellipse 218" cx="92.4133" cy="122.375" r="0.5" transform="rotate(-0.922865 92.4133 122.375)" fill="#CACBCF"/>
<circle id="Ellipse 219" cx="89.4135" cy="122.424" r="0.5" transform="rotate(-0.922865 89.4135 122.424)" fill="#CACBCF"/>
<circle id="Ellipse 220" cx="86.3495" cy="118.472" r="0.5" transform="rotate(-0.922865 86.3495 118.472)" fill="#CACBCF"/>
<circle id="Ellipse 221" cx="84.2692" cy="113.505" r="0.5" transform="rotate(-0.922865 84.2692 113.505)" fill="#CACBCF"/>
<circle id="Ellipse 224" cx="68.4323" cy="123.761" r="0.5" transform="rotate(-0.922865 68.4323 123.761)" fill="#CACBCF"/>
<circle id="Ellipse 225" cx="52.5956" cy="134.018" r="0.5" transform="rotate(-0.922865 52.5956 134.018)" fill="#CACBCF"/>
<circle id="Ellipse 226" cx="46.5964" cy="134.114" r="0.5" transform="rotate(-0.922865 46.5964 134.114)" fill="#CACBCF"/>
<circle id="Ellipse 227" cx="54.6437" cy="136.986" r="0.5" transform="rotate(-0.922865 54.6437 136.986)" fill="#CACBCF"/>
<circle id="Ellipse 228" cx="62.4333" cy="123.858" r="0.5" transform="rotate(-0.922865 62.4333 123.858)" fill="#CACBCF"/>
<circle id="Ellipse 229" cx="70.2873" cy="114.731" r="0.5" transform="rotate(-0.922865 70.2873 114.731)" fill="#CACBCF"/>
<circle id="Ellipse 230" cx="80.1572" cy="106.57" r="0.5" transform="rotate(-0.922865 80.1572 106.57)" fill="#CACBCF"/>
<circle id="Ellipse 231" cx="85.559" cy="131.487" r="0.5" transform="rotate(-0.922865 85.559 131.487)" fill="#CACBCF"/>
<circle id="Ellipse 222" cx="74.7626" cy="113.158" r="1" transform="rotate(-0.922865 74.7626 113.158)" fill="#F2F3F7"/>
<ellipse id="Ellipse 223" cx="72.2306" cy="111.199" rx="0.5" ry="1" transform="rotate(-0.922865 72.2306 111.199)" fill="#CACBCF"/>
<circle id="Ellipse 156" cx="114.267" cy="51.0139" r="0.5" transform="rotate(-0.922865 114.267 51.0139)" fill="#CACBCF"/>
<circle id="Ellipse 157" cx="118.363" cy="56.9489" r="0.5" transform="rotate(-0.922865 118.363 56.9489)" fill="#CACBCF"/>
<circle id="Ellipse 158" cx="117.411" cy="59.9645" r="0.5" transform="rotate(-0.922865 117.411 59.9645)" fill="#CACBCF"/>
<circle id="Ellipse 159" cx="141.505" cy="65.5768" r="0.5" transform="rotate(-0.922865 141.505 65.5768)" fill="#CACBCF"/>
<circle id="Ellipse 160" cx="130.941" cy="92.7507" r="0.5" transform="rotate(-0.922865 130.941 92.7507)" fill="#CACBCF"/>
<circle id="Ellipse 161" cx="133.941" cy="92.7023" r="0.5" transform="rotate(-0.922865 133.941 92.7023)" fill="#CACBCF"/>
<circle id="Ellipse 162" cx="134.577" cy="101.193" r="1" transform="rotate(-0.922865 134.577 101.193)" fill="#CACBCF"/>
<circle id="Ellipse 163" cx="124.216" cy="109.862" r="0.5" transform="rotate(-0.922865 124.216 109.862)" fill="#CACBCF"/>
<circle id="Ellipse 164" cx="124.361" cy="118.86" r="0.5" transform="rotate(-0.922865 124.361 118.86)" fill="#CACBCF"/>
<circle id="Ellipse 147" cx="91.9958" cy="34.3703" r="0.5" transform="rotate(-0.922865 91.9958 34.3703)" fill="#CACBCF"/>
<circle id="Ellipse 149" cx="99.535" cy="36.7494" r="1" transform="rotate(-0.922865 99.535 36.7494)" fill="#CACBCF"/>
<circle id="Ellipse 153" cx="126.532" cy="36.3143" r="1" transform="rotate(-0.922865 126.532 36.3143)" fill="#F2F3F7"/>
<circle id="Ellipse 154" cx="118.484" cy="33.4437" r="1" transform="rotate(-0.922865 118.484 33.4437)" fill="#F2F3F7"/>
<circle id="Ellipse 150" cx="110.308" cy="22.5741" r="1" transform="rotate(-0.922865 110.308 22.5741)" fill="#636468"/>
<circle id="Ellipse 151" cx="109.437" cy="30.5892" r="1" transform="rotate(-0.922865 109.437 30.5892)" fill="#636468"/>
<circle id="Ellipse 170" cx="116.944" cy="30.968" r="0.5" transform="rotate(-0.922865 116.944 30.968)" fill="#8E8F93"/>
<circle id="Ellipse 172" cx="123.992" cy="33.8552" r="0.5" transform="rotate(-0.922865 123.992 33.8552)" fill="#8E8F93"/>
<circle id="Ellipse 173" cx="122.976" cy="32.8713" r="0.5" transform="rotate(-0.922865 122.976 32.8713)" fill="#8E8F93"/>
<circle id="Ellipse 171" cx="115.993" cy="33.9841" r="0.5" transform="rotate(-0.922865 115.993 33.9841)" fill="#8E8F93"/>
<circle id="Ellipse 152" cx="107.566" cy="38.62" r="1" transform="rotate(-0.922865 107.566 38.62)" fill="#636468"/>
<circle id="Ellipse 148" cx="94.1081" cy="41.3371" r="0.5" transform="rotate(-0.922865 94.1081 41.3371)" fill="#CACBCF"/>
<circle id="Ellipse 141" cx="58.694" cy="15.9045" r="0.5" transform="rotate(-0.922865 58.694 15.9045)" fill="#F2F3F7"/>
<circle id="Ellipse 129" cx="81.7702" cy="82.5412" r="0.5" transform="rotate(-0.922865 81.7702 82.5412)" fill="#F2F3F7"/>
<circle id="Ellipse 130" cx="76.8193" cy="85.6213" r="0.5" transform="rotate(-0.922865 76.8193 85.6213)" fill="#F2F3F7"/>
<circle id="Ellipse 131" cx="77.964" cy="94.6042" r="0.5" transform="rotate(-0.922865 77.964 94.6042)" fill="#F2F3F7"/>
<circle id="Ellipse 132" cx="88.882" cy="89.4279" r="0.5" transform="rotate(-0.922865 88.882 89.4279)" fill="#F2F3F7"/>
<circle id="Ellipse 133" cx="96.6393" cy="74.301" r="0.5" transform="rotate(-0.922865 96.6393 74.301)" fill="#F2F3F7"/>
<circle id="Ellipse 119" cx="71.1829" cy="77.2111" r="3" transform="rotate(-0.922865 71.1829 77.2111)" fill="#F2F3F7"/>
<ellipse id="Ellipse 92" cx="136.819" cy="78.8144" rx="3.5" ry="8" transform="rotate(15.3462 136.819 78.8144)" fill="#58585A"/>
<circle id="Ellipse 93" cx="115.862" cy="87.9931" r="6.5" transform="rotate(-0.922865 115.862 87.9931)" fill="#58585A"/>
<circle id="Ellipse 94" cx="110.928" cy="92.0732" r="2.5" transform="rotate(-0.922865 110.928 92.0732)" fill="#707175"/>
<circle id="Ellipse 95" cx="66.5305" cy="67.785" r="3.5" transform="rotate(-0.922865 66.5305 67.785)" fill="#58585A"/>
<circle id="Ellipse 96" cx="70.1187" cy="73.2279" r="5" transform="rotate(-0.922865 70.1187 73.2279)" fill="#58585A"/>
<ellipse id="Ellipse 97" cx="40.6688" cy="16.3383" rx="6.46644" ry="4" transform="rotate(-21.0937 40.6688 16.3383)" fill="#535458"/>
<ellipse id="Ellipse 98" cx="33.0811" cy="20.9694" rx="5.04007" ry="4" transform="rotate(-21.0937 33.0811 20.9694)" fill="#535458"/>
<ellipse id="Ellipse 99" cx="21.5854" cy="40.5053" rx="6" ry="4.5" transform="rotate(-0.922865 21.5854 40.5053)" fill="#4C4D4F"/>
<ellipse id="Ellipse 100" cx="25.5354" cy="29.4125" rx="5.5" ry="10.5" transform="rotate(41.2855 25.5354 29.4125)" fill="#4C4D4F"/>
<ellipse id="Ellipse 101" cx="91.5929" cy="9.37352" rx="7.5" ry="3.5" transform="rotate(21.2563 91.5929 9.37352)" fill="#E5E6EA"/>
<ellipse id="Ellipse 102" cx="108.613" cy="15.6049" rx="3.50096" ry="2.83095" transform="rotate(21.2563 108.613 15.6049)" fill="#E5E6EA"/>
<circle id="Ellipse 103" cx="81.9722" cy="64.0358" r="7" transform="rotate(-0.922865 81.9722 64.0358)" fill="#58585A"/>
<ellipse id="Ellipse 104" cx="87.512" cy="70.2284" rx="3.40637" ry="5.2988" transform="rotate(-16.5582 87.512 70.2284)" fill="#58585A"/>
<ellipse id="Ellipse 105" cx="88.3907" cy="58.9318" rx="4.5" ry="5" transform="rotate(-0.922865 88.3907 58.9318)" fill="#58585A"/>
<path id="Rectangle 101" d="M95.9188 40.8993C102.409 40.7948 113.775 49.8887 115.515 56.9372C114.053 67.1736 108.221 71.59 102.907 71.6756C83.7331 69.7705 84.2949 66.3782 81.7606 53.5861C80.7796 48.6345 79.1032 44.1219 95.9188 40.8993Z" fill="#58585A"/>
<ellipse id="Ellipse 106" cx="109.163" cy="44.5953" rx="4.5" ry="5" transform="rotate(-0.922865 109.163 44.5953)" fill="#58585A"/>
<ellipse id="Ellipse 108" cx="51.4507" cy="125.035" rx="2.5" ry="3.5" transform="rotate(-20.2149 51.4507 125.035)" fill="#E6E5EA"/>
<ellipse id="Ellipse 109" cx="41.3876" cy="121.197" rx="2.5" ry="3.5" transform="rotate(1.03468 41.3876 121.197)" fill="#E6E5EA"/>
<circle id="Ellipse 107" cx="45.9273" cy="123.624" r="3" transform="rotate(-0.922865 45.9273 123.624)" fill="#4C4D4F"/>
<circle id="Ellipse 110" cx="78.415" cy="122.6" r="7.5" transform="rotate(-0.922865 78.415 122.6)" fill="#E6E5EA"/>
<circle id="Ellipse 111" cx="78.415" cy="122.601" r="5.5" transform="rotate(-0.922865 78.415 122.601)" fill="#D1D1D3"/>
<circle id="Ellipse 113" cx="117.902" cy="121.464" r="3" transform="rotate(-0.922865 117.902 121.464)" fill="#E6E7EB"/>
<ellipse id="Ellipse 114" cx="126.14" cy="98.6377" rx="3" ry="2" transform="rotate(-61.9659 126.14 98.6377)" fill="#E6E7EB"/>
<ellipse id="Ellipse 116" cx="101.418" cy="116.038" rx="3" ry="2" transform="rotate(-61.9659 101.418 116.038)" fill="#E6E7EB"/>
<ellipse id="Ellipse 115" cx="133.225" cy="87.907" rx="2.3032" ry="1.53546" transform="rotate(-61.9659 133.225 87.907)" fill="#E6E7EB"/>
<ellipse id="Ellipse 62" cx="7.15914" cy="76.2423" rx="2" ry="3" transform="rotate(-0.922865 7.15914 76.2423)" fill="#707175"/>
<circle id="Ellipse 134" cx="56.0883" cy="71.4534" r="2" transform="rotate(-0.922865 56.0883 71.4534)" fill="#F2F3F7"/>
<ellipse id="Ellipse 80" cx="55.2091" cy="78.9689" rx="6" ry="6.5" transform="rotate(-0.922865 55.2091 78.9689)" fill="#58585A"/>
<ellipse id="Ellipse 66" cx="37.9053" cy="60.245" rx="12" ry="12.5" transform="rotate(-0.922865 37.9053 60.245)" fill="#4C4D4F"/>
<circle id="Ellipse 185" cx="32.6315" cy="74.3317" r="0.5" transform="rotate(-0.922865 32.6315 74.3317)" fill="#8E8F93"/>
<circle id="Ellipse 186" cx="25.5842" cy="71.445" r="0.5" transform="rotate(-0.922865 25.5842 71.445)" fill="#8E8F93"/>
<circle id="Ellipse 187" cx="31.4223" cy="61.3493" r="0.5" transform="rotate(-0.922865 31.4223 61.3493)" fill="#8E8F93"/>
<circle id="Ellipse 188" cx="48.9355" cy="93.0715" r="0.5" transform="rotate(-0.922865 48.9355 93.0715)" fill="#8E8F93"/>
<circle id="Ellipse 189" cx="44.9843" cy="96.1354" r="0.5" transform="rotate(-0.922865 44.9843 96.1354)" fill="#8E8F93"/>
<circle id="Ellipse 190" cx="66.9333" cy="92.7814" r="0.5" transform="rotate(-0.922865 66.9333 92.7814)" fill="#8E8F93"/>
<circle id="Ellipse 191" cx="52.733" cy="111.513" r="1" transform="rotate(-0.922865 52.733 111.513)" fill="#8E8F93"/>
<circle id="Ellipse 192" cx="45.8629" cy="119.624" r="1" transform="rotate(-0.922865 45.8629 119.624)" fill="#8E8F93"/>
<circle id="Ellipse 193" cx="55.8133" cy="116.464" r="1" transform="rotate(-0.922865 55.8133 116.464)" fill="#8E8F93"/>
<circle id="Ellipse 194" cx="63.1432" cy="105.844" r="0.5" transform="rotate(-0.922865 63.1432 105.844)" fill="#8E8F93"/>
<circle id="Ellipse 195" cx="63.2236" cy="110.844" r="0.5" transform="rotate(-0.922865 63.2236 110.844)" fill="#8E8F93"/>
<circle id="Ellipse 196" cx="64.8443" cy="118.319" r="1" transform="rotate(-0.922865 64.8443 118.319)" fill="#8E8F93"/>
<circle id="Ellipse 197" cx="65.1664" cy="138.316" r="1" transform="rotate(-0.922865 65.1664 138.316)" fill="#8E8F93"/>
<circle id="Ellipse 198" cx="92.0663" cy="131.882" r="1" transform="rotate(-0.922865 92.0663 131.882)" fill="#8E8F93"/>
<circle id="Ellipse 199" cx="84.0028" cy="128.011" r="1" transform="rotate(-0.922865 84.0028 128.011)" fill="#8E8F93"/>
<circle id="Ellipse 200" cx="93.6796" cy="107.853" r="1" transform="rotate(-0.922865 93.6796 107.853)" fill="#8E8F93"/>
<ellipse id="Ellipse 184" cx="30.5199" cy="36.3608" rx="1" ry="0.5" transform="rotate(-0.922865 30.5199 36.3608)" fill="#8E8F93"/>
<circle id="Ellipse 178" cx="117.798" cy="83.9611" r="0.5" transform="rotate(-0.922865 117.798 83.9611)" fill="#8E8F93"/>
<circle id="Ellipse 112" cx="81.0838" cy="133.059" r="3" transform="rotate(-0.922865 81.0838 133.059)" fill="#F2F3F7"/>
</g>
<circle id="Ellipse 117_2" cx="94.3015" cy="53.3359" r="10.5" transform="rotate(-0.922865 94.3015 53.3359)" fill="#4C4D4F"/>
<ellipse id="Ellipse 118_2" cx="94.0352" cy="67.8419" rx="2" ry="3" transform="rotate(22.3181 94.0352 67.8419)" fill="#6E6F73"/>
<ellipse id="Ellipse 149_2" cx="91.8813" cy="38.627" rx="4" ry="2" transform="rotate(10.5216 91.8813 38.627)" fill="#D9D9D9"/>
<ellipse id="Ellipse 160_2" cx="141.432" cy="61.0778" rx="1.5" ry="3" transform="rotate(-18.9733 141.432 61.0778)" fill="#6C6D71"/>
<circle id="Ellipse 201_2" cx="92.8245" cy="116.868" r="3" transform="rotate(-0.922865 92.8245 116.868)" fill="#E6E7EB"/>
<ellipse id="Ellipse 202_2" cx="90.8249" cy="116.9" rx="2" ry="3" transform="rotate(-18.5904 90.8249 116.9)" fill="#E6E7EB"/>
<path id="Vector 216" d="M75.5202 129.148C70.5501 135.138 66.9615 136.928 60.1833 139.397" stroke="#D4D5D9" stroke-width="0.5"/>
<path id="Vector 218" d="M74.3188 116.666C67.0751 103.192 64.0602 95.1958 61.2245 79.8722M85.0027 127.995C90.8965 133.203 94.3497 134.624 100.63 135.745M85.9301 123.48C103.445 127.895 110.644 127.207 120.926 122.916M144.004 65.537C140.012 97.1054 119.357 113.451 84.8577 118.997C128.019 94.393 134.006 65.6981 127.378 26.7998M79.5356 130.084C79.2534 134.268 79.1204 136.149 82.7043 140.534" stroke="#D4D5D9" stroke-width="0.5"/>
<ellipse id="Ellipse 71" cx="61.0225" cy="98.3774" rx="10.5" ry="10" transform="rotate(-0.922865 61.0225 98.3774)" fill="#58575C"/>
<ellipse id="Ellipse 72" cx="58.2163" cy="110.425" rx="7.5" ry="8" transform="rotate(-0.922865 58.2163 110.425)" fill="#4C4D4F"/>
<path id="Vector 217" d="M47.8707 120.092C57.3146 124.122 62.399 125.028 70.9321 123.721C53.1625 121.393 45.8931 116.032 36.0742 101.78" stroke="#D4D5D9" stroke-width="0.5"/>
<ellipse id="Ellipse 74" cx="43.2987" cy="115.666" rx="6.5" ry="6" transform="rotate(-0.922865 43.2987 115.666)" fill="#59595B"/>
<circle id="Ellipse 55" cx="102.92" cy="122.706" r="6" transform="rotate(-0.922865 102.92 122.706)" fill="#949599"/>
<g id="Group 218">
<ellipse id="Ellipse 42_2" cx="7.21973" cy="6.84527" rx="7.21973" ry="6.84527" transform="matrix(-0.0103489 0.999947 -0.998886 0.0471939 117.51 103.706)" fill="#616265"/>
<ellipse id="Ellipse 43_2" cx="5.74575" cy="5.01935" rx="5.74575" ry="5.01935" transform="matrix(-0.0103489 0.999947 -0.998886 0.0471939 115.622 105.491)" fill="#4C4D4F"/>
</g>
<ellipse id="Ellipse 91" cx="119.161" cy="75.4382" rx="15" ry="14" transform="rotate(-0.922865 119.161 75.4382)" fill="#58585A"/>
<circle id="Ellipse 142" cx="34.6972" cy="16.2907" r="0.5" transform="rotate(-0.922865 34.6972 16.2907)" fill="#F2F3F7"/>
<circle id="Ellipse 174" cx="116.177" cy="76.4862" r="1" transform="rotate(-0.922865 116.177 76.4862)" fill="#8E8F93"/>
<circle id="Ellipse 175" cx="120.096" cy="71.4227" r="1" transform="rotate(-0.922865 120.096 71.4227)" fill="#8E8F93"/>
<circle id="Ellipse 176" cx="113.847" cy="87.0251" r="0.5" transform="rotate(-0.922865 113.847 87.0251)" fill="#8E8F93"/>
<circle id="Ellipse 179" cx="103.526" cy="67.1891" r="0.5" transform="rotate(-0.922865 103.526 67.1891)" fill="#8E8F93"/>
<circle id="Ellipse 180" cx="98.4621" cy="63.2702" r="0.5" transform="rotate(-0.922865 98.4621 63.2702)" fill="#8E8F93"/>
<circle id="Ellipse 177" cx="109.146" cy="74.5995" r="1" transform="rotate(-0.922865 109.146 74.5995)" fill="#8E8F93"/>
<circle id="Ellipse 181" cx="13.2314" cy="49.6408" r="0.5" transform="rotate(-0.922865 13.2314 49.6408)" fill="#8E8F93"/>
<circle id="Ellipse 182" cx="31.7049" cy="47.8431" r="1" transform="rotate(-0.922865 31.7049 47.8431)" fill="#8E8F93"/>
<circle id="Ellipse 183" cx="22.2624" cy="51.4958" r="0.5" transform="rotate(-0.922865 22.2624 51.4958)" fill="#8E8F93"/>
<g id="Group 217">
<ellipse id="Ellipse 42_3" cx="127.616" cy="48.6853" rx="12.3527" ry="8.21982" transform="rotate(63.3811 127.616 48.6853)" fill="#616265"/>
<ellipse id="Ellipse 43_3" cx="128.58" cy="48.6876" rx="9.8308" ry="6.54167" transform="rotate(63.3811 128.58 48.6876)" fill="#4C4D4F"/>
</g>
<circle id="Ellipse 232" cx="131.345" cy="55.7394" r="0.5" transform="rotate(-0.922865 131.345 55.7394)" fill="#8E8F93"/>
<circle id="Ellipse 233" cx="125.314" cy="53.8361" r="0.5" transform="rotate(-0.922865 125.314 53.8361)" fill="#8E8F93"/>
</g>
</g>
</g>
</svg>
