<svg width="277" height="263" viewBox="0 0 277 263" fill="none" xmlns="http://www.w3.org/2000/svg">
<circle cx="150.317" cy="116.842" r="95.5098" fill="#59A3BC"/>
<path d="M88.2595 159.506L55.2917 117.326C54.3357 97.0982 57.716 86.7831 67.4127 68.8447C80.5029 46.5429 99.4104 31.0285 126.076 23.7558C155.758 18.3001 179.634 22.0801 204.617 38.3005L159.528 36.3612C163.849 46.5811 167.966 52.163 176.012 62.0567C165.696 53.3602 161.081 47.9163 154.196 36.3612C145.116 37.238 140.054 38.4513 133.348 42.6639C152.403 71.1439 165.859 86.9183 192.011 114.902C164.66 93.526 149.824 79.9503 126.076 47.0273C121.426 45.9335 115.544 49.8686 103.774 58.663C105.748 66.2694 107.565 70.1296 111.531 76.6014L101.35 62.0567C89.0698 73.7678 84.0394 82.9013 76.6238 101.327L86.8051 122.659L75.1694 105.691L69.8363 120.72L88.2595 159.506Z" fill="#E8E9C7"/>
<path d="M114.44 79.9955C102.904 64.0462 96.2016 54.6334 94.0776 39.2705L91.1687 41.6946C92.7804 53.8323 99.1596 62.7018 114.44 79.9955Z" fill="#0F283F"/>
<path d="M63.5338 76.1172L59.6552 84.844C72.1896 109.778 83.4405 122.548 104.744 143.507C82.0457 115.459 72.4667 100.554 63.5338 76.1172Z" fill="#0F283F"/>
<path d="M224.494 63.9967C224.108 61.1567 224.023 59.5644 224.494 56.7243C238.822 75.4009 243.887 88.2377 246.311 113.448C247.281 159.991 213.828 201.201 169.71 210.898C96.3159 223.121 46.5651 164.355 55.2917 98.9038C60.6247 124.599 81.472 153.204 101.835 160.476C92.1975 150.926 87.6039 145.154 80.5024 134.296C113.395 168.602 153.71 200.716 176.497 205.565C153.628 193.139 141.197 185.509 123.167 164.84L140.62 169.203C133.604 163.785 129.203 159.26 121.227 150.78C138.848 166.192 149.223 174.016 169.71 184.717L142.56 161.931L169.71 163.87L176.497 161.931C163.805 152.78 157.607 146.91 147.408 135.75C167.77 155.34 193.951 172.597 218.677 178.899C170.679 159.022 107.652 91.6315 96.9863 67.8752C122.197 104.722 171.164 151.265 213.828 170.173C203.723 164.79 198.877 161.057 191.042 153.689C196.405 153.384 197.539 151.782 196.86 146.901C167.593 124.163 152.757 109.884 129.469 81.4502C167.478 122.042 210.919 155.143 234.676 158.052L208.01 142.538V140.598C189.018 126.599 179.919 118.111 164.079 102.962C181.524 119.625 208.085 138.689 228.858 146.901L210.919 134.781V133.326C160.69 99.9982 118.318 49.9368 118.318 26.1806L121.227 25.2109C119.773 51.8761 208.01 136.72 238.554 138.659L213.828 124.115C216.674 123.888 217.853 123.283 218.677 120.721C193.744 103.386 184.405 92.5036 167.285 73.2083C196.337 99.8614 211.222 111.25 234.676 123.63L235.16 122.66L223.04 113.448C221.698 111.694 221.864 111.183 224.494 111.509C224.494 111.509 206.071 96.4797 204.617 95.0252C203.162 93.5708 203.647 92.6011 205.586 93.5708C207.526 94.5404 221.101 104.722 221.101 104.722C222.418 104.911 223.177 104.9 224.494 104.722C226.55 104.24 227.011 103.409 226.434 100.843L222.555 98.419C221.427 96.3661 221.068 95.3648 224.01 95.5101L228.373 98.419C229.783 98.3841 229.897 98.0519 228.858 96.9645C207.561 82.0945 198.054 71.7013 183.769 50.9065C201.433 70.1005 211.305 79.0493 228.858 89.6922C230.446 89.4167 230.789 88.8152 230.312 86.7833C220.914 78.8346 216.769 74.7643 213.344 68.8449C220.685 74.5953 224.304 76.4538 230.312 78.5413C231.063 76.2206 231.222 74.8071 230.312 71.7538C228.19 69.8112 226.946 68.3499 224.494 63.9967Z" fill="#0F283F"/>
<path d="M100.865 94.5407C86.9586 80.6093 80.1734 72.0452 75.6542 57.2092L73.2301 60.6031C76.735 72.3349 83.0492 79.872 100.865 94.5407Z" fill="#0F283F"/>
<path d="M105.228 106.661C113.645 120.893 120.635 127.341 136.257 136.72C118.648 130.486 112.062 123.697 105.228 106.661Z" fill="#0F283F"/>
<path d="M100.865 94.5407C86.9586 80.6093 80.1734 72.0452 75.6542 57.2092L73.2301 60.6031C76.735 72.3349 83.0492 79.872 100.865 94.5407Z" stroke="#0F283F"/>
<path d="M105.228 106.661C113.645 120.893 120.635 127.341 136.257 136.72C118.648 130.486 112.062 123.697 105.228 106.661Z" stroke="#0F283F"/>
<path d="M126.076 63.9965C114.54 48.0472 113.17 44.4523 111.046 29.0894L107.168 31.0286C108.78 43.1663 110.795 46.7028 126.076 63.9965Z" fill="#0F283F"/>
<path d="M213.829 61.0873C202.678 47.5123 195.965 45.5401 192.012 30.5436L185.942 28.3789C189 40.2351 196.582 45.754 213.829 61.0873Z" fill="#0F283F"/>
<path d="M106.116 144.01C252.299 280.046 289.87 261.267 222.533 178.414L240.471 194.413C320.47 292.941 264.961 290.682 103.814 147.929L106.116 144.01Z" fill="#84AEBC"/>
<path d="M124.015 160.439C-23.9534 27.0083 -1.92088 -13.0208 86.569 48.1827L76.3862 37.5171C-24.4551 -46.3575 -40.0681 16.9315 119.353 162.484L124.015 160.439Z" fill="#84AEBC"/>
<path d="M106.116 144.01C252.299 280.046 289.87 261.267 222.533 178.414L240.471 194.413C320.47 292.941 264.961 290.682 103.814 147.929L106.116 144.01Z" stroke="black"/>
<path d="M124.015 160.439C-23.9534 27.0083 -1.92088 -13.0208 86.569 48.1827L76.3862 37.5171C-24.4551 -46.3575 -40.0681 16.9315 119.353 162.484L124.015 160.439Z" stroke="black"/>
<path d="M104.507 141.268C260.135 289.624 310.77 274.894 223.018 178.899L222.048 179.869L233.47 194.599L245.59 215.931L248.984 232.9H230.561L191.775 210.598L170.443 194.599L119.052 150.48L75.418 106.846L41.4805 65.6363L26.451 38.9711V22.972H40.026L62.8127 33.6381L82.2055 46.7282L83.1778 45.7579C-21.0607 -39.5696 -27.3664 19.0941 104.507 141.268Z" fill="#0F283F"/>
<path d="M109.84 138.845C232.985 256.656 277.803 252.592 221.079 180.839L222.533 179.085C289.923 264.413 243.865 265.683 108.115 142.053L109.84 138.845Z" fill="#59A3BC"/>
<path d="M124.919 153.073C0.270706 37.5171 7.66196 -5.30608 82.2055 47.6983L84.1448 46.7286C-4.49825 -16.2381 -12.6053 28.5882 121.69 154.642L124.919 153.073Z" fill="#59A3BC"/>
<path d="M109.84 138.845C232.985 256.656 277.803 252.592 221.079 180.839L222.533 179.085C289.923 264.413 243.865 265.683 108.115 142.053L109.84 138.845Z" stroke="black"/>
<path d="M124.919 153.073C0.270706 37.5171 7.66196 -5.30608 82.2055 47.6983L84.1448 46.7286C-4.49825 -16.2381 -12.6053 28.5882 121.69 154.642L124.919 153.073Z" stroke="black"/>
</svg>
