<svg width="240" height="227" viewBox="0 0 240 227" fill="none" xmlns="http://www.w3.org/2000/svg">
<circle cx="129.949" cy="101.01" r="82.5681" fill="#59A3BC"/>
<path d="M76.3001 137.893L47.7995 101.428C46.973 83.9412 49.8953 75.0238 58.2781 59.5161C69.5945 40.2363 85.9401 26.8241 108.992 20.5369C134.653 15.8204 155.293 19.0882 176.891 33.1107L137.912 31.4342C141.647 40.2693 145.206 45.0948 152.162 53.6479C143.244 46.1298 139.254 41.4236 133.302 31.4342C125.453 32.1921 121.077 33.2411 115.279 36.8828C131.752 61.5038 143.385 75.1407 165.993 99.3328C142.348 80.853 129.522 69.1169 108.992 40.655C104.972 39.7094 99.8872 43.1113 89.7122 50.714C91.419 57.2897 92.9899 60.6269 96.4183 66.2217L87.6166 53.6479C77.0006 63.7721 72.6519 71.6681 66.2411 87.5972L75.0428 106.039L64.9837 91.3694L60.3733 104.362L76.3001 137.893Z" fill="#E8E9C7"/>
<path d="M98.9333 69.1559C88.9602 55.3677 83.1661 47.2304 81.3299 33.9492L78.8152 36.0449C80.2085 46.5378 85.7233 54.2055 98.9333 69.1559Z" fill="#0F283F"/>
<path d="M54.9248 65.8032L51.5718 73.3475C62.4078 94.9028 72.1341 105.942 90.5506 124.062C70.9283 99.8144 62.6473 86.9284 54.9248 65.8032Z" fill="#0F283F"/>
<path d="M194.075 55.3251C193.741 52.87 193.668 51.4935 194.075 49.0382C206.461 65.184 210.84 76.2815 212.936 98.0761C213.774 138.312 184.854 173.938 146.714 182.321C83.2649 192.888 40.2553 142.084 47.7994 85.5023C52.4098 107.716 70.4323 132.445 88.0357 138.731C79.7045 130.475 75.7333 125.486 69.5941 116.099C98.03 145.756 132.882 173.519 152.581 177.71C132.811 166.969 122.065 160.372 106.477 142.504L121.566 146.276C115.5 141.592 111.695 137.68 104.801 130.349C120.034 143.673 129.003 150.437 146.714 159.688L123.242 139.989L146.714 141.665L152.581 139.989C141.609 132.078 136.251 127.004 127.434 117.356C145.037 134.291 167.67 149.21 189.045 154.658C147.552 137.474 93.0652 79.2154 83.8444 58.6781C105.639 90.5318 147.971 130.768 184.854 147.114C176.118 142.461 171.929 139.233 165.155 132.864C169.792 132.6 170.772 131.215 170.185 126.996C144.883 107.339 132.058 94.9947 111.926 70.4137C144.784 105.505 182.339 134.121 202.877 136.636L179.825 123.224V121.547C163.405 109.444 155.539 102.107 141.846 89.0102C156.928 103.416 179.889 119.896 197.847 126.996L182.339 116.518V115.26C138.916 86.4484 102.286 43.1704 102.286 22.6332L104.801 21.7949C103.543 44.8469 179.825 118.194 206.23 119.871L184.854 107.297C187.314 107.101 188.333 106.578 189.045 104.363C167.491 89.3775 159.417 79.9693 144.618 63.2885C169.733 86.3301 182.601 96.1758 202.877 106.878L203.296 106.04L192.818 98.0761C191.658 96.5594 191.801 96.1173 194.075 96.3996C194.075 96.3996 178.148 83.4066 176.891 82.1493C175.633 80.8919 176.052 80.0536 177.729 80.8919C179.405 81.7301 191.141 90.5318 191.141 90.5318C192.28 90.6956 192.936 90.6858 194.075 90.5318C195.852 90.1153 196.251 89.3966 195.751 87.1788L192.398 85.0832C191.423 83.3085 191.113 82.4428 193.656 82.5684L197.428 85.0832C198.647 85.053 198.745 84.7659 197.847 83.8258C179.436 70.9707 171.217 61.9857 158.868 44.0087C174.139 60.6019 182.673 68.3381 197.847 77.5389C199.22 77.3007 199.517 76.7807 199.104 75.0241C190.98 68.1525 187.396 64.6337 184.435 59.5164C190.782 64.4876 193.91 66.0943 199.104 67.8989C199.753 65.8927 199.891 64.6707 199.104 62.0312C197.27 60.3518 196.194 59.0885 194.075 55.3251Z" fill="#0F283F"/>
<path d="M87.1974 81.7303C75.1755 69.6867 69.3097 62.283 65.4029 49.4573L63.3072 52.3913C66.3372 62.5334 71.7959 69.0493 87.1974 81.7303Z" fill="#0F283F"/>
<path d="M90.9696 92.2084C98.2462 104.512 104.289 110.086 117.794 118.194C102.571 112.805 96.877 106.936 90.9696 92.2084Z" fill="#0F283F"/>
<path d="M108.992 55.3246C99.0192 41.5365 97.8356 38.4287 95.9994 25.1475L92.6464 26.824C94.0396 37.3169 95.7824 40.3742 108.992 55.3246Z" fill="#0F283F"/>
<path d="M184.854 52.8101C175.214 41.0745 169.412 39.3696 165.994 26.405L160.746 24.5337C163.39 34.7834 169.944 39.5545 184.854 52.8101Z" fill="#0F283F"/>
<path d="M91.7368 124.497C218.112 242.099 250.592 225.865 192.379 154.239L207.887 168.07C277.045 253.247 229.058 251.294 89.7466 127.884L91.7368 124.497Z" fill="#84AEBC"/>
<path d="M107.211 138.699C-20.7076 23.3486 -1.6606 -11.2565 74.8388 41.6538L66.0357 32.4335C-21.1414 -40.076 -34.6388 14.6372 103.18 140.467L107.211 138.699Z" fill="#84AEBC"/>
<path d="M90.3464 122.126C224.886 250.379 268.66 237.645 192.798 154.658L191.96 155.496L201.834 168.23L212.312 186.672L215.246 201.341H199.319L165.789 182.062L147.348 168.23L102.92 130.09L65.1987 92.3684L35.8598 56.7425L22.8669 33.6905V19.8594H34.6025L54.3014 29.0802L71.0665 40.3966L71.9071 39.5578C-18.2069 -34.2077 -23.6582 16.507 90.3464 122.126Z" fill="#0F283F"/>
<path d="M94.9568 120.031C201.415 221.879 240.16 218.366 191.122 156.335L192.379 154.818C250.638 228.585 210.821 229.682 93.4655 122.805L94.9568 120.031Z" fill="#59A3BC"/>
<path d="M107.992 132.331C0.234001 32.4333 6.62373 -4.58721 71.0665 41.2349L72.743 40.3967C-3.88875 -14.038 -10.8973 24.7143 105.201 133.687L107.992 132.331Z" fill="#59A3BC"/>
</svg>
