<svg width="19" height="26" viewBox="0 0 19 26" fill="none" xmlns="http://www.w3.org/2000/svg">
<mask id="path-1-outside-1_963_134" maskUnits="userSpaceOnUse" x="-5" y="-4" width="29" height="34" fill="black">
<rect fill="white" x="-5" y="-4" width="29" height="34"/>
<path d="M6.375 25.75L0.125 19.5L6.375 13.25L0.125 7L6.375 0.75L18.875 13.25L6.375 25.75Z"/>
</mask>
<path d="M6.375 25.75L0.125 19.5L6.375 13.25L0.125 7L6.375 0.75L18.875 13.25L6.375 25.75Z" fill="#F4E1B9"/>
<path d="M6.375 25.75L4.25368 27.8713L6.375 29.9926L8.49632 27.8713L6.375 25.75ZM0.125 19.5L-1.99632 17.3787L-4.11764 19.5L-1.99632 21.6213L0.125 19.5ZM6.375 13.25L8.49632 15.3713L10.6176 13.25L8.49632 11.1287L6.375 13.25ZM0.125 7L-1.99632 4.87868L-4.11764 7L-1.99632 9.12132L0.125 7ZM6.375 0.75L8.49632 -1.37132L6.375 -3.49264L4.25368 -1.37132L6.375 0.75ZM18.875 13.25L20.9963 15.3713L23.1176 13.25L20.9963 11.1287L18.875 13.25ZM8.49632 23.6287L2.24632 17.3787L-1.99632 21.6213L4.25368 27.8713L8.49632 23.6287ZM2.24632 21.6213L8.49632 15.3713L4.25368 11.1287L-1.99632 17.3787L2.24632 21.6213ZM8.49632 11.1287L2.24632 4.87868L-1.99632 9.12132L4.25368 15.3713L8.49632 11.1287ZM2.24632 9.12132L8.49632 2.87132L4.25368 -1.37132L-1.99632 4.87868L2.24632 9.12132ZM4.25368 2.87132L16.7537 15.3713L20.9963 11.1287L8.49632 -1.37132L4.25368 2.87132ZM16.7537 11.1287L4.25368 23.6287L8.49632 27.8713L20.9963 15.3713L16.7537 11.1287Z" fill="black" mask="url(#path-1-outside-1_963_134)"/>
</svg>
