 <svg width="451" height="564" viewBox="0 0 451 564" fill="none" xmlns="http://www.w3.org/2000/svg">
              <path d="M2.5 2.5H448.5V561.5H2.5V2.5Z" fill="#F4E1B9" stroke="black" stroke-width="5"/>
              <path d="M422 44H441V554.5H422V44Z" fill="#F4E1B9" stroke="black" stroke-width="2"/>
              <rect x="9" y="7" width="434" height="34" fill="black"/>
              <path d="M438.5 11H410V37.5H438.5V11Z" stroke="#F4E1B9" stroke-width="2"/>
              <path d="M422.452 26.9922V26.7301C422.452 26.0057 422.511 25.4283 422.631 24.9979C422.754 24.5675 422.933 24.2223 423.168 23.9624C423.402 23.6982 423.688 23.4574 424.024 23.2401C424.293 23.0696 424.531 22.897 424.74 22.7223C424.953 22.5433 425.121 22.3516 425.245 22.147C425.369 21.9425 425.43 21.7102 425.43 21.4503C425.43 21.1989 425.371 20.9773 425.251 20.7855C425.132 20.5937 424.968 20.4467 424.759 20.3445C424.555 20.2379 424.327 20.1847 424.075 20.1847C423.824 20.1847 423.587 20.2422 423.366 20.3572C423.148 20.4723 422.969 20.6364 422.829 20.8494C422.692 21.0582 422.622 21.3118 422.618 21.6101H419.678C419.69 20.7152 419.897 19.9822 420.298 19.4112C420.702 18.8402 421.237 18.4183 421.902 18.1456C422.567 17.8686 423.3 17.7301 424.101 17.7301C424.979 17.7301 425.759 17.8665 426.44 18.1392C427.126 18.4119 427.665 18.8146 428.058 19.3473C428.45 19.88 428.646 20.532 428.646 21.3033C428.646 21.8104 428.56 22.2578 428.39 22.6456C428.219 23.0334 427.981 23.3764 427.674 23.6747C427.371 23.9687 427.016 24.2372 426.607 24.4801C426.287 24.6676 426.021 24.8636 425.808 25.0682C425.599 25.2727 425.441 25.5071 425.335 25.7713C425.228 26.0312 425.175 26.3509 425.175 26.7301V26.9922H422.452ZM423.864 31.1854C423.404 31.1854 423.01 31.0234 422.682 30.6996C422.358 30.3757 422.198 29.9837 422.202 29.5234C422.198 29.0717 422.358 28.6861 422.682 28.3665C423.01 28.0426 423.404 27.8807 423.864 27.8807C424.303 27.8807 424.689 28.0426 425.021 28.3665C425.354 28.6861 425.522 29.0717 425.526 29.5234C425.522 29.8303 425.441 30.1094 425.283 30.3608C425.13 30.6122 424.928 30.8125 424.676 30.9616C424.429 31.1108 424.158 31.1854 423.864 31.1854Z" fill="#F4E1B9"/>
              </svg>