<svg width="29" height="36" viewBox="0 0 29 36" fill="none" xmlns="http://www.w3.org/2000/svg">
<path d="M25.2676 4.33032L27.7414 4.35713L3.45079 31.9272L0.975378 31.9478L25.2676 4.33032Z" fill="black"/>
<mask id="path-2-inside-1_145_7" fill="white">
<path d="M1.19925 4.23545L9.51072 4.27967L28.7117 31.6366L20.4225 31.6366L1.19925 4.23545Z"/>
</mask>
<path d="M1.19925 4.23545L9.51072 4.27967L28.7117 31.6366L20.4225 31.6366L1.19925 4.23545Z" fill="white"/>
<path d="M1.19925 4.23545L1.45809 -9.12119L-24.1114 -9.25722L-8.9886 12.2991L1.19925 4.23545ZM9.51072 4.27967L19.697 -3.78628L16.0069 -9.04379L9.76956 -9.07698L9.51072 4.27967ZM28.7117 31.6366L28.5164 44.9934L53.9339 44.9934L38.898 23.5707L28.7117 31.6366ZM20.4225 31.6366L10.2347 39.7003L13.9481 44.9934L20.2272 44.9934L20.4225 31.6366ZM0.940413 17.5921L9.25188 17.6363L9.76956 -9.07698L1.45809 -9.12119L0.940413 17.5921ZM-0.675528 12.3456L18.5255 39.7026L38.898 23.5707L19.697 -3.78628L-0.675528 12.3456ZM28.907 18.2798L20.6178 18.2798L20.2272 44.9934L28.5164 44.9934L28.907 18.2798ZM30.6104 23.573L11.3871 -3.82822L-8.9886 12.2991L10.2347 39.7003L30.6104 23.573Z" fill="black" mask="url(#path-2-inside-1_145_7)"/>
</svg>
